<?xml version="1.0" encoding="utf-8"?>
<!-- Generator: Adobe Illustrator 19.0.0, SVG Export Plug-In . SVG Version: 6.00 Build 0)  -->
<svg version="1.1" id="Capa_1" xmlns="http://www.w3.org/2000/svg" xmlns:xlink="http://www.w3.org/1999/xlink" x="0px" y="0px"
	 viewBox="-1018 1609 24 24" style="enable-background:new -1018 1609 24 24;" xml:space="preserve">
<style type="text/css">
	.st0{fill:#80CF00;}
</style>
<g>
	<g>
		<path class="st0" d="M-995,1616.3c-1.3-2.9-3.4-5.1-6.4-6.4c-1.5-0.6-3-1-4.7-1c-1.6,0-3.2,0.3-4.7,1c-3,1.3-5.1,3.4-6.4,6.4
			c-0.6,1.5-0.9,3-0.9,4.7c0,1.6,0.3,3.2,0.9,4.7c1.3,3,3.4,5.1,6.4,6.4c1.5,0.6,3,1,4.7,1s3.2-0.3,4.7-1c3-1.3,5.1-3.4,6.4-6.4
			c0.6-1.5,1-3,1-4.7C-994,1619.4-994.3,1617.8-995,1616.3z M-996.9,1626.3c-0.9,1.6-2.2,2.9-3.9,3.8c-1.6,0.9-3.4,1.4-5.3,1.4
			c-1.4,0-2.8-0.3-4.1-0.8c-1.3-0.6-2.4-1.3-3.4-2.2c-0.9-0.9-1.7-2.1-2.2-3.4c-0.6-1.3-0.8-2.7-0.8-4.1c0-1.9,0.5-3.7,1.4-5.3
			c0.9-1.6,2.2-2.9,3.8-3.8c1.6-0.9,3.4-1.4,5.3-1.4c1.9,0,3.7,0.5,5.3,1.4c1.6,0.9,2.9,2.2,3.9,3.8c0.9,1.6,1.4,3.4,1.4,5.3
			C-995.5,1622.9-995.9,1624.7-996.9,1626.3z"/>
		<path class="st0" d="M-1005.3,1620.9v-6.8c0-0.4-0.4-0.7-0.8-0.7c-0.4,0-0.7,0.3-0.7,0.7v6.9c0,0,0,0.1,0,0.1c0,0.2,0,0.4,0.2,0.6
			l3.9,3.9c0.3,0.3,0.7,0.3,1,0c0.3-0.3,0.3-0.7,0-1L-1005.3,1620.9z"/>
	</g>
</g>
</svg>
