<svg width="20" height="28" viewBox="0 0 20 28" fill="none" xmlns="http://www.w3.org/2000/svg">
<path d="M9.99984 27.8594L9.51975 27.1647C9.15867 26.6414 0.666504 14.2911 0.666504 9.33333C0.666504 4.18717 4.85367 0 9.99984 0C15.146 0 19.3332 4.18717 19.3332 9.33333C19.3332 14.2911 10.841 26.6414 10.4799 27.1647L9.99984 27.8594ZM9.99984 1.16667C5.4965 1.16667 1.83317 4.83 1.83317 9.33333C1.83317 13.2924 8.18275 23.0738 9.99984 25.7915C11.8169 23.0738 18.1665 13.2924 18.1665 9.33333C18.1665 4.83 14.5032 1.16667 9.99984 1.16667Z" fill="#80CF00"/>
<path d="M9.99984 13.4167C7.74875 13.4167 5.9165 11.585 5.9165 9.33333C5.9165 7.08167 7.74875 5.25 9.99984 5.25C12.2509 5.25 14.0832 7.08167 14.0832 9.33333C14.0832 11.585 12.2509 13.4167 9.99984 13.4167ZM9.99984 6.41667C8.39159 6.41667 7.08317 7.72508 7.08317 9.33333C7.08317 10.9416 8.39159 12.25 9.99984 12.25C11.6081 12.25 12.9165 10.9416 12.9165 9.33333C12.9165 7.72508 11.6081 6.41667 9.99984 6.41667Z" fill="#80CF00"/>
</svg>
