<svg width="24" height="24" viewBox="0 0 24 24" fill="none" xmlns="http://www.w3.org/2000/svg">
<g clip-path="url(#clip0)">
<path d="M23.3829 17.7016L20.3994 14.718C19.5768 13.8955 18.2383 13.8955 17.4158 14.718L16.0597 16.0742C15.4365 16.6973 14.4225 16.6971 13.7996 16.0744L7.92145 10.1913C7.29684 9.56664 7.29675 8.55569 7.92145 7.93098C8.13989 7.71255 8.76713 7.08531 9.2776 6.57484C10.0965 5.75593 10.108 4.42163 9.2768 3.59054L6.29404 0.617158C5.47148 -0.20536 4.13305 -0.205359 3.31269 0.615001C2.69882 1.22353 2.50081 1.41985 2.22556 1.69271C-0.740692 4.65892 -0.740692 9.48532 2.22542 12.4514L11.5391 21.77C14.5123 24.7432 19.3245 24.7435 22.298 21.77L23.3829 20.6851C24.2055 19.8625 24.2055 18.5241 23.3829 17.7016ZM4.30504 1.61166C4.57921 1.33749 5.02527 1.33744 5.30034 1.61241L8.28309 4.58579C8.55792 4.86062 8.55792 5.30542 8.28309 5.58029L7.7858 6.07754L3.81032 2.10207L4.30504 1.61166ZM12.5338 20.7757L3.22007 11.457C0.925155 9.16206 0.799014 5.55854 2.83213 3.11293L6.79607 7.07687C5.75451 8.25761 5.79792 10.0568 6.92671 11.1856L12.8047 17.0685C12.8047 17.0685 12.8048 17.0686 12.8049 17.0687C13.9324 18.1963 15.7315 18.2425 16.9137 17.1995L20.8778 21.1636C18.4399 23.1932 14.8445 23.0864 12.5338 20.7757ZM22.3885 19.6906L21.8912 20.1879L17.9131 16.2098L18.4103 15.7125C18.6845 15.4384 19.1306 15.4383 19.4049 15.7125L22.3884 18.6961C22.6626 18.9703 22.6626 19.4165 22.3885 19.6906Z" fill="white"/>
</g>
<defs>
<clipPath id="clip0">
<rect width="24" height="24" fill="white"/>
</clipPath>
</defs>
</svg>
