<svg width="28" height="28" viewBox="0 0 28 28" fill="none" xmlns="http://www.w3.org/2000/svg">
<path d="M0.0695915 11.9301C0.0955296 11.877 0.131456 11.8296 0.175453 11.79L3.27907 9.1133V6.54457C3.27907 6.53438 3.28425 6.52555 3.28502 6.51517C3.28733 6.47425 3.2954 6.4339 3.30885 6.39529C3.31404 6.38049 3.31768 6.36589 3.32422 6.35148C3.34708 6.30076 3.37859 6.25446 3.41759 6.21488L7.14907 2.48339C7.18884 2.4442 7.23515 2.41269 7.28625 2.39002C7.30009 2.38407 7.31373 2.38022 7.32814 2.37504C7.3681 2.3612 7.4096 2.35313 7.45167 2.35083C7.45917 2.3514 7.46762 2.34679 7.47684 2.34679H11.1286L13.7023 0.127922C13.8773 -0.0230892 14.1365 -0.0230892 14.3116 0.127922L16.8853 2.34679H24.2685C24.5262 2.34679 24.735 2.55544 24.735 2.81308V9.1133L27.838 11.7887C27.882 11.828 27.918 11.8755 27.9441 11.9285C27.9506 11.9416 27.9562 11.9537 27.9618 11.9673C27.9858 12.0225 27.9987 12.0817 28 12.1418V27.534C28 27.5467 27.994 27.5569 27.9931 27.569C27.9925 27.6005 27.9885 27.6316 27.9814 27.6624C27.9773 27.6718 27.9729 27.681 27.9679 27.6898C27.9604 27.7092 27.9516 27.7279 27.9412 27.7459C27.9251 27.7774 27.9053 27.807 27.882 27.8339C27.869 27.8491 27.8551 27.8635 27.8405 27.877C27.8123 27.9016 27.7808 27.9227 27.7472 27.9394C27.7324 27.9488 27.7166 27.9573 27.7005 27.9646C27.6476 27.9867 27.591 27.999 27.5335 28.0005H0.480551C0.423298 27.9997 0.366619 27.9882 0.313593 27.9669C0.297455 27.9596 0.2817 27.9511 0.266907 27.9417C0.233284 27.925 0.201967 27.9039 0.173532 27.8793C0.158932 27.8658 0.145098 27.8514 0.132032 27.8364C0.108786 27.8095 0.0889969 27.7799 0.0728588 27.7482C0.0624828 27.7302 0.0536461 27.7115 0.0461521 27.6921C0.0411568 27.6833 0.0367393 27.6741 0.0327034 27.6647C0.0255947 27.6341 0.0215607 27.6028 0.0209846 27.5713C0.0209846 27.5592 0.0140667 27.549 0.0140667 27.5363V12.1418C0.0154133 12.0822 0.0282841 12.0234 0.0519161 11.9687C0.0572968 11.9552 0.0607548 11.9431 0.0695915 11.9301ZM0.946842 13.1595V26.686L9.97276 20.9406L0.946842 13.1595ZM1.19449 12.1418L3.27907 13.9384V10.3469L1.19449 12.1418ZM4.87141 6.07808H7.01055V3.93914L4.87141 6.07808ZM14.007 1.09662L12.5572 2.34679H15.4566L14.007 1.09662ZM7.94333 3.27957V6.54457C7.94333 6.80221 7.73448 7.01105 7.47703 7.01105H4.21184V14.7426L10.9336 20.5375H17.0803L23.802 14.7426V3.27957H7.94333ZM18.0411 20.9406L27.067 26.6842V13.1576L18.0411 20.9406ZM24.735 13.9384L26.8194 12.1418L24.735 10.345V13.9384ZM25.9318 27.0675L17.1362 21.4705H10.8777L2.08231 27.0675H25.9318Z" fill="#80CF00"/>
<path d="M21.0034 9.34251H13.074V10.2755H21.0034V9.34251Z" fill="#80CF00"/>
<path d="M21.0034 12.1412H10.7419V13.0739H21.0034V12.1412Z" fill="#80CF00"/>
<path d="M21.0034 14.9396H16.3392V15.8726H21.0034V14.9396Z" fill="#80CF00"/>
<path d="M12.1411 9.34251H7.01037V10.2755H12.1411V9.34251Z" fill="#80CF00"/>
<path d="M9.80908 12.1412H7.01056V13.0739H9.80908V12.1412Z" fill="#80CF00"/>
<path d="M21.0034 6.5439H17.2719V7.47687H21.0034V6.5439Z" fill="#80CF00"/>
<path d="M15.4062 14.9396H7.0105V15.8726H15.4062V14.9396Z" fill="#80CF00"/>
<path d="M17.7383 17.7384H10.2753V18.6712H17.7383V17.7384Z" fill="#80CF00"/>
</svg>
