<svg width="36" height="41" viewBox="0 0 36 41" fill="none" xmlns="http://www.w3.org/2000/svg">
<path d="M15.6601 18.3248C15.4406 18.6763 15.2649 19.0718 15.0453 19.4234C13.6841 21.9282 12.3228 24.433 10.9615 26.9378C10.0393 28.6077 9.11715 30.3215 8.2389 31.9914C7.185 33.925 6.1311 35.8585 5.0772 37.836C4.90155 38.1876 4.63807 38.3194 4.24286 38.3194C3.40852 38.3194 2.57418 38.3194 1.73984 38.3194C0.99333 38.3194 0.64203 37.6163 0.949418 36.9571C4.15503 30.5413 7.40456 24.0815 10.6102 17.6217C10.6541 17.5777 10.6541 17.5338 10.698 17.4459C10.5223 17.4459 10.3906 17.4459 10.2589 17.4019C9.81975 17.358 9.51236 17.0064 9.51236 16.567C9.51236 15.3805 9.51236 14.194 9.51236 13.0075C9.51236 12.4802 9.9954 12.1726 10.3906 12.1726C11.6641 12.1726 12.8936 12.1726 14.1671 12.1726C14.211 12.1726 15.5723 12.1726 15.6601 12.1726C15.0014 11.4255 14.1232 10.5466 13.9475 9.57985C13.9036 9.57985 12.9815 9.57985 12.8936 9.57985C12.0593 9.57985 11.2689 9.57985 10.4345 9.57985C9.86366 9.57985 9.51236 9.2283 9.51236 8.65702C9.51236 6.67953 9.51236 4.65809 9.51236 2.6806C9.51236 2.10932 9.86366 1.75777 10.4345 1.75777C15.3088 1.75777 20.1392 1.75777 25.0135 1.75777C25.0574 1.75777 25.1452 1.75777 25.233 1.75777C25.233 1.45016 25.233 1.1865 25.233 0.92283C25.233 0.659164 25.3209 0.439443 25.4965 0.263666C25.6283 0.0878885 25.8039 0 26.0235 0C26.9017 0 27.78 0 28.6143 0C29.0973 0 29.4047 0.263666 29.4926 0.659164C29.4926 0.747053 29.5365 0.834941 29.5365 0.92283C29.5365 4.08682 29.5365 7.20686 29.5365 10.3708C29.5365 10.9421 29.1852 11.2937 28.6143 11.2937C27.78 11.2937 26.9456 11.2937 26.1113 11.2937C25.5404 11.2937 25.1891 10.9421 25.1891 10.3708C25.1891 10.1072 25.1891 9.84352 25.1891 9.57985C24.5744 9.57985 23.0813 9.57985 22.4666 9.57985C22.3348 10.5906 21.4566 11.4255 20.7979 12.2165C20.8857 12.2165 22.247 12.2165 22.2909 12.2165C23.5644 12.2165 24.7939 12.2165 26.0674 12.2165C26.5504 12.2165 26.8578 12.4802 26.9456 12.9196C26.9456 12.9636 26.9456 13.0514 26.9456 13.0954C26.9456 14.2379 26.9456 15.3805 26.9456 16.523C26.9456 17.0504 26.5943 17.4019 26.0674 17.4459C25.9796 17.4459 25.8478 17.4459 25.76 17.4459C25.8039 17.5338 25.8039 17.5777 25.8478 17.6217C29.0534 24.0815 32.303 30.5413 35.5086 37.0011C35.7281 37.4405 35.6842 37.88 35.289 38.1876C35.1134 38.3194 34.8938 38.3633 34.7181 38.3633C33.8838 38.3633 33.0495 38.3633 32.2151 38.3633C31.8199 38.3633 31.5564 38.1876 31.3808 37.836C29.9756 35.1994 28.5265 32.5627 27.1213 29.926C25.3648 26.6742 23.6083 23.4223 21.8518 20.1704C21.5444 19.5991 21.1931 18.9839 20.8857 18.4126C20.8857 18.3687 20.8418 18.3248 20.7979 18.2808C20.7979 18.4126 20.7979 18.5445 20.754 18.6763C20.7101 20.0386 20.6661 21.3569 20.6222 22.7192C20.5783 23.8617 20.5344 25.0043 20.4905 26.1468C20.4466 27.6849 20.3588 29.2669 20.3148 30.8049C20.2709 31.9475 20.227 33.09 20.1831 34.2326C20.1392 35.5509 20.0953 36.8253 20.0514 38.1436C20.0075 38.8467 20.0075 39.5498 19.9635 40.2529C19.9635 40.6924 19.5683 41.0439 19.1292 41.0439C18.5144 41.0439 17.9436 41.0439 17.3288 41.0439C16.8458 41.0439 16.4945 40.6484 16.4945 40.1651C16.4505 38.8467 16.4066 37.5284 16.3627 36.2101C16.2749 34.2326 16.231 32.299 16.1432 30.3215C16.0553 28.3441 16.0114 26.4105 15.9236 24.433C15.8797 22.7192 15.7919 21.0054 15.7479 19.2915C15.7479 19.0279 15.7479 18.8081 15.704 18.5445C15.704 18.4126 15.6601 18.3687 15.6601 18.3248ZM25.1891 2.63666C20.5344 2.63666 15.0453 2.63666 10.3906 2.63666C10.3906 4.08682 10.3906 7.29475 10.3906 8.74491C15.0453 8.74491 20.5344 8.74491 25.1891 8.74491C25.1891 7.2508 25.1891 4.08682 25.1891 2.63666ZM26.0674 13.0954C21.4127 13.0954 15.0453 13.0954 10.3906 13.0954C10.3906 13.6667 10.3906 15.9957 10.3906 16.567C15.0453 16.567 21.4127 16.567 26.0674 16.567C26.0674 15.9957 26.0674 13.6667 26.0674 13.0954ZM3.10113 37.4845C3.27678 37.4845 3.45243 37.4845 3.62808 37.4845C3.71591 37.4845 4.19895 37.4405 4.28677 37.3526C4.81372 36.3859 5.73588 34.5841 6.26283 33.6613C7.97542 30.4973 9.68801 27.3773 11.3567 24.2133C12.5423 22.06 13.6841 19.9068 14.8697 17.7535C14.9136 17.6656 15.0014 17.5338 15.0453 17.4019C14.5623 17.4019 13.2449 17.4019 12.8058 17.4019C12.718 17.4019 11.7519 17.4459 11.708 17.5338C8.5902 23.8617 4.85763 31.0247 1.69593 37.3526C1.65202 37.3966 3.14504 37.4405 3.10113 37.4845ZM33.3569 37.4845C33.3569 37.4405 34.6303 37.3966 34.6303 37.3526C31.9517 31.9914 28.8339 25.7513 26.1552 20.3901C25.6722 19.4673 25.233 18.5005 24.75 17.5777C24.7061 17.5338 24.6622 17.4898 24.6183 17.4898C24.1352 17.4898 21.9396 17.4898 21.4127 17.4898C21.4566 17.5777 21.4566 17.6217 21.5005 17.6656C22.4666 19.4234 23.3887 21.1811 24.3548 22.9389C25.9796 25.9711 27.6482 29.0032 29.273 32.0354C30.1073 33.5734 30.9417 35.0675 31.7321 36.6056C31.776 36.6495 32.259 37.5723 32.303 37.5723C32.5225 37.4845 33.1812 37.4845 33.3569 37.4845ZM16.4945 17.4459C16.7579 24.6967 17.0214 32.8264 17.3288 40.0772H19.1292C19.3927 32.8264 19.6562 24.6967 19.9635 17.4459C19.3927 17.4459 17.0653 17.4459 16.4945 17.4459ZM21.5883 9.57985C19.3488 9.57985 17.1531 9.57985 14.9136 9.57985C15.1771 10.8103 16.3627 12.0847 18.0753 12.1726C19.9635 12.3044 21.2809 10.8982 21.5883 9.57985ZM26.0674 0.878885C26.0674 3.51554 26.0674 7.86602 26.0674 10.4587C26.3748 10.4587 28.3947 10.4587 28.7021 10.4587C28.7021 7.82208 28.7021 3.4716 28.7021 0.878885C28.3947 0.878885 26.3748 0.878885 26.0674 0.878885Z" fill="white" stroke="white" stroke-width="0.5"/>
</svg>
