<svg width="41" height="37" viewBox="0 0 41 37" fill="none" xmlns="http://www.w3.org/2000/svg">
<path d="M4.68051 6.61503C4.62859 6.61503 4.57572 6.60971 4.52442 6.59907C4.47312 6.58969 4.42276 6.57342 4.37459 6.5534C4.32579 6.53339 4.2795 6.50867 4.23602 6.4799C4.19222 6.45112 4.15125 6.41733 4.11433 6.38042C4.07742 6.34351 4.04395 6.30285 4.01517 6.25874C3.9864 6.21557 3.96137 6.16928 3.94135 6.12017C3.92133 6.07231 3.90538 6.02195 3.89568 5.97065C3.88536 5.91935 3.87973 5.86648 3.87973 5.81424C3.87973 5.76232 3.88536 5.70945 3.89568 5.65815C3.90538 5.60685 3.92133 5.55649 3.94135 5.5077C3.96137 5.45952 3.9864 5.41323 4.01517 5.37006C4.04395 5.32596 4.07742 5.28498 4.11433 5.24838C4.15125 5.21147 4.19222 5.17769 4.23602 5.14828C4.2795 5.11919 4.32579 5.09448 4.37459 5.07446C4.42276 5.05444 4.47312 5.03911 4.52442 5.02879C4.62765 5.00814 4.73338 5.00814 4.8366 5.02879C4.8879 5.03911 4.93826 5.05444 4.98644 5.07446C5.03523 5.09448 5.08184 5.11919 5.12501 5.14828C5.16911 5.17769 5.20978 5.21147 5.24669 5.24838C5.2836 5.28498 5.31707 5.32596 5.34585 5.37006C5.37494 5.41323 5.39965 5.45952 5.41967 5.5077C5.43969 5.55649 5.45564 5.60685 5.46534 5.65815C5.47566 5.70945 5.48129 5.76232 5.48129 5.81424C5.48129 6.02508 5.39559 6.23153 5.24669 6.38042C5.20978 6.41733 5.16911 6.45112 5.12501 6.4799C5.08184 6.50867 5.03523 6.53339 4.98644 6.5534C4.93826 6.57342 4.8879 6.58969 4.8366 6.59907C4.7853 6.60971 4.73275 6.61503 4.68051 6.61503Z" fill="white"/>
<path d="M40.1117 3.05525H8.70445C7.90523 1.61759 6.3703 0.642578 4.61202 0.642578C3.36236 0.642578 2.14774 1.15652 1.28002 2.05239C0.4198 2.94107 -0.0337674 4.10565 0.00189241 5.3331V31.3985C-0.000610029 31.4877 -0.000610029 31.5775 0.00189241 31.6672C-0.0225064 32.8931 0.44545 34.0602 1.32037 34.9548C2.2225 35.8773 3.47872 36.4062 4.76654 36.4062H40.1993C40.6416 36.4062 41 36.0478 41 35.6055V3.94361C41 3.45376 40.6015 3.05525 40.1117 3.05525ZM2.43051 3.1666C3.0067 2.57165 3.78121 2.24414 4.61202 2.24414C6.30867 2.24414 7.68908 3.62455 7.68908 5.32121V28.1347C7.0738 27.5964 6.31618 27.2163 5.4813 27.0587V8.99542C5.4813 8.55311 5.12283 8.19464 4.68052 8.19464C4.23822 8.19464 3.87974 8.55311 3.87974 8.99542V27.0365C3.04267 27.1716 2.25065 27.5351 1.60346 28.0847V5.32121C1.60346 5.31245 1.60346 5.304 1.60314 5.29556C1.57749 4.50009 1.87153 3.74404 2.43051 3.1666ZM39.3985 34.8047H4.76654C3.90664 34.8047 3.06801 34.4512 2.46555 33.835C1.89186 33.2485 1.58563 32.488 1.60346 31.6929C1.60346 31.6838 1.60346 31.6744 1.60346 31.6654C1.60346 31.6622 1.60346 31.6591 1.60346 31.6563V31.4276C1.62973 30.7072 1.91908 30.0297 2.43051 29.5017C3.0067 28.9067 3.78121 28.5792 4.61202 28.5792C6.30867 28.5792 7.68908 29.9596 7.68908 31.6563C7.68908 32.0986 8.04756 32.4571 8.48987 32.4571C8.93217 32.4571 9.29065 32.0986 9.29065 31.6563V5.32121C9.29065 5.09568 9.27469 4.8739 9.24373 4.65681H39.3985V34.8047Z" fill="white"/>
<path d="M11.8519 32.457H35.7946C35.5569 32.7708 35.581 33.2196 35.8672 33.5059C36.0236 33.6623 36.2285 33.7405 36.4337 33.7405C36.6386 33.7405 36.8435 33.6623 36.9999 33.5059L38.2833 32.2224C38.4335 32.0723 38.5176 31.8686 38.5176 31.6562C38.5176 31.4438 38.4335 31.2402 38.2833 31.0901L36.9999 29.8066C36.6871 29.4938 36.18 29.4938 35.8672 29.8066C35.581 30.0928 35.5569 30.5414 35.7946 30.8555H11.8519C11.4099 30.8555 11.0511 31.2139 11.0511 31.6562C11.0511 32.0986 11.4099 32.457 11.8519 32.457Z" fill="white"/>
<path d="M13.6048 18.3245H14.8914V28.6095C14.8914 29.0518 15.2499 29.4103 15.6922 29.4103H32.198C32.6403 29.4103 32.9988 29.0518 32.9988 28.6095V18.3245H34.2853C34.6097 18.3245 34.9019 18.129 35.0254 17.8293C35.1493 17.5296 35.0802 17.1849 34.8506 16.9563L24.5105 6.65433C24.198 6.34309 23.6925 6.34309 23.38 6.65433L20.1609 9.86152V8.99505C20.1609 8.55275 19.8024 8.19427 19.3601 8.19427H16.2371C15.7948 8.19427 15.4363 8.55275 15.4363 8.99505V14.5683L13.0396 16.9563C12.81 17.1849 12.7409 17.5296 12.8647 17.8293C12.9886 18.129 13.2808 18.3245 13.6048 18.3245ZM22.577 27.8087V23.5699H25.3134V27.8087H22.577ZM31.3972 27.8087H26.9147V22.7691C26.9147 22.3268 26.5562 21.9683 26.1139 21.9683H21.7762C21.3339 21.9683 20.9755 22.3268 20.9755 22.7691V27.8087H16.493V18.3245H31.3972V27.8087ZM23.9452 8.35224L32.3472 16.7229H15.5433L23.9452 8.35224ZM17.0379 9.79615H18.5594V11.4571L17.0379 12.973V9.79615Z" fill="white"/>
</svg>
