<svg width="93" height="93" viewBox="0 0 93 93" fill="none" xmlns="http://www.w3.org/2000/svg">
<g clip-path="url(#clip0)">
<path d="M54.9969 43.5413C54.1915 42.7368 52.8865 42.7368 52.0816 43.5414L48.2116 47.4115C47.6781 47.2137 47.1018 47.105 46.5002 47.105C45.8982 47.105 45.3213 47.2138 44.7875 47.4122L36.8329 39.4573C36.0281 38.6528 34.723 38.6528 33.9183 39.4573C33.1135 40.2621 33.1133 41.5672 33.9183 42.3722L41.8736 50.3277C41.6758 50.8608 41.5674 51.4372 41.5674 52.0384C41.5674 54.7584 43.7803 56.9715 46.5005 56.9715C49.2208 56.9715 51.4337 54.7586 51.4337 52.0384C51.4337 51.4368 51.3251 50.8601 51.1271 50.3262L54.9971 46.4562C55.8018 45.6514 55.8018 44.3463 54.9969 43.5413ZM46.5002 53.2614C45.8256 53.2614 45.2768 52.7124 45.2768 52.038C45.2768 51.3636 45.8258 50.8147 46.5002 50.8147C47.1748 50.8147 47.7235 51.3636 47.7235 52.038C47.7233 52.7126 47.1746 53.2614 46.5002 53.2614Z" fill="#80CF00"/>
<path d="M70.8321 20.7903L73.1673 17.4554L82.5292 24.0108C82.8779 24.2553 83.2913 24.3837 83.7113 24.3837C83.8304 24.3837 83.9501 24.3734 84.0691 24.3525C84.6075 24.2576 85.0859 23.9529 85.3994 23.5049C90.1244 16.7568 88.4786 7.42253 81.7307 2.69717C74.9826 -2.02856 65.6479 -0.382173 60.9233 6.36593C60.2703 7.29829 60.4972 8.58339 61.4293 9.23621L69.7909 15.0912L67.4552 18.427C61.3725 14.6209 54.1893 12.4169 46.5002 12.4169C38.811 12.4169 31.628 14.6209 25.5451 18.427L23.2092 15.0912L31.5708 9.23621C32.5032 8.58321 32.7299 7.29829 32.0771 6.36593C27.3521 -0.382354 18.0178 -2.02819 11.2695 2.69699C4.52138 7.42199 2.87536 16.7563 7.60036 23.5046C7.91387 23.9525 8.39249 24.2573 8.93069 24.3521C9.04966 24.3734 9.16936 24.3833 9.28852 24.3833C9.70847 24.3833 10.1221 24.2547 10.4706 24.0104L19.8325 17.455L22.1677 20.79C12.8692 28.0474 6.8787 39.3557 6.8787 52.0382C6.8787 65.8299 13.9634 77.9964 24.683 85.0948L21.419 89.7565C20.766 90.6886 20.9928 91.9739 21.925 92.6267C22.2848 92.8788 22.697 92.9998 23.1053 92.9998C23.7549 92.9998 24.3944 92.6934 24.7953 92.1207L28.2439 87.1955C33.7107 90.0456 39.9199 91.66 46.4998 91.66C53.079 91.66 59.2876 90.046 64.7539 87.1966L68.2018 92.1209C68.6026 92.6934 69.2422 93.0002 69.8917 93.0002C70.2999 93.0002 70.7124 92.8792 71.072 92.6271C72.0044 91.9741 72.2309 90.6892 71.5781 89.7568L68.3149 85.0965C79.0355 77.9982 86.1209 65.8312 86.1209 52.0387C86.1215 39.3557 80.1311 28.0474 70.8321 20.7903ZM65.6432 7.15498C69.292 3.62662 75.0574 3.05645 79.3666 6.07331C83.6758 9.09089 85.1117 14.7037 83.0441 19.339L65.6432 7.15498ZM9.95641 19.3392C7.88862 14.7039 9.32448 9.09089 13.6339 6.07349C15.5184 4.75406 17.6808 4.12068 19.8236 4.12068C22.5804 4.12068 25.3042 5.16965 27.3571 7.15516L9.95641 19.3392ZM46.5002 87.5377C26.9256 87.5377 11.0007 71.6128 11.0007 52.0382C11.0007 32.4636 26.9256 16.5389 46.5002 16.5389C66.0748 16.5389 81.9997 32.4638 81.9997 52.0382C81.9997 71.6126 66.0746 87.5377 46.5002 87.5377Z" fill="#80CF00"/>
<path d="M46.5002 22.8993C30.433 22.8993 17.3613 35.971 17.3613 52.0382C17.3613 68.1053 30.433 81.1771 46.5002 81.1771C62.5673 81.1771 75.6389 68.1053 75.6389 52.0382C75.6389 35.971 62.5673 22.8993 46.5002 22.8993ZM65.8703 68.4935L64.4776 67.101C63.6728 66.2964 62.3677 66.2964 61.563 67.101C60.7582 67.9059 60.7582 69.211 61.563 70.0156L62.9555 71.4083C59.0083 74.7666 54.0263 76.9428 48.5613 77.3833V75.4013C48.5613 74.2631 47.6385 73.3402 46.5002 73.3402C45.3619 73.3402 44.4391 74.2631 44.4391 75.4013V77.3833C38.9739 76.9428 33.9921 74.7666 30.0447 71.4083L31.4373 70.0156C32.2422 69.2108 32.2422 67.9057 31.4373 67.101C30.6325 66.2964 29.3274 66.2964 28.5224 67.101L27.1297 68.4937C23.7714 64.5465 21.5952 59.5644 21.1547 54.0993H23.1368C24.2751 54.0993 25.1978 53.1765 25.1978 52.0382C25.1978 50.8998 24.2751 49.9771 23.1368 49.9771H21.1547C21.5952 44.5119 23.7714 39.5301 27.1297 35.5827L28.5224 36.9753C28.9249 37.3777 29.4524 37.5789 29.9797 37.5789C30.507 37.5789 31.0346 37.3775 31.437 36.9753C32.2418 36.1705 32.2418 34.8654 31.437 34.0604L30.0443 32.6677C33.9916 29.3094 38.9736 27.1332 44.4388 26.6927V28.6749C44.4388 29.8131 45.3615 30.736 46.4998 30.736C47.6382 30.736 48.5609 29.8131 48.5609 28.6749V26.6927C54.0261 27.1332 59.0079 29.3094 62.9551 32.6677L61.5627 34.0604C60.7578 34.8652 60.7578 36.1703 61.5627 36.9753C61.9652 37.3777 62.4927 37.5789 63.02 37.5789C63.5473 37.5789 64.0749 37.3775 64.4773 36.9753L65.8699 35.5829C69.2282 39.5301 71.4043 44.5119 71.8448 49.9771H69.8627C68.7244 49.9771 67.8016 50.8998 67.8016 52.0382C67.8016 53.1765 68.7247 54.0993 69.8629 54.0993H71.8449C71.4048 59.5644 69.2286 64.5463 65.8703 68.4935Z" fill="#80CF00"/>
</g>
<defs>
<clipPath id="clip0">
<rect width="93" height="93" fill="white"/>
</clipPath>
</defs>
</svg>
