<svg width="108" height="108" viewBox="0 0 108 108" fill="none" xmlns="http://www.w3.org/2000/svg">
<path d="M11.8138 35.7961C11.4216 35.4037 10.8774 35.1801 10.3227 35.1801C9.7679 35.1801 9.22368 35.4037 8.83133 35.7961C8.43878 36.1905 8.21329 36.7348 8.21329 37.2874C8.21329 37.8443 8.43899 38.3864 8.83133 38.7808C9.22368 39.1732 9.7679 39.3989 10.3227 39.3989C10.8772 39.3989 11.4214 39.1732 11.8138 38.7808C12.2063 38.3885 12.432 37.8443 12.432 37.2874C12.432 36.7326 12.2061 36.1905 11.8138 35.7961Z" fill="#80CF00"/>
<path d="M20.2639 95.9744C19.8716 95.5821 19.3297 95.3564 18.7726 95.3564C18.2178 95.3564 17.6736 95.5821 17.2815 95.9744C16.8889 96.3668 16.6632 96.911 16.6632 97.4658C16.6632 98.0226 16.8891 98.5647 17.2815 98.9571C17.6736 99.3515 18.2178 99.5751 18.7726 99.5751C19.3297 99.5751 19.8716 99.3515 20.2639 98.9571C20.6565 98.5647 20.882 98.0226 20.882 97.4658C20.882 96.911 20.6563 96.3668 20.2639 95.9744Z" fill="#80CF00"/>
<path d="M89.2266 8.45081C88.0618 8.45081 87.1172 9.39517 87.1172 10.5602V93.2477C87.1172 94.4108 86.1709 95.357 85.0078 95.357H27.2109C26.0461 95.357 25.1016 96.3014 25.1016 97.4664C25.1016 98.6314 26.0461 99.5758 27.2109 99.5758H85.0078C88.4971 99.5758 91.3359 96.737 91.3359 93.2477V10.5602C91.3359 9.39517 90.3914 8.45081 89.2266 8.45081Z" fill="#80CF00"/>
<path d="M97.6773 16.875C96.5125 16.875 95.568 17.8194 95.568 18.9844V101.672C95.568 102.835 94.6217 103.781 93.4586 103.781H27.2242C26.0594 103.781 25.1148 104.726 25.1148 105.891C25.1148 107.056 26.0594 108 27.2242 108H93.4586C96.9479 108 99.7867 105.161 99.7867 101.672V18.9844C99.7867 17.8194 98.8421 16.875 97.6773 16.875Z" fill="#80CF00"/>
<path d="M42.3852 15.6094H22.1352C20.9704 15.6094 20.0258 16.5537 20.0258 17.7188V37.9688C20.0258 39.1338 20.9704 40.0781 22.1352 40.0781H42.3852C43.55 40.0781 44.4945 39.1338 44.4945 37.9688V17.7188C44.4945 16.5537 43.55 15.6094 42.3852 15.6094ZM40.2758 35.8594H24.2445V19.8281H40.2758V35.8594Z" fill="#80CF00"/>
<path d="M35.598 49.6551C34.7741 48.8316 33.4389 48.8314 32.6147 49.6551L27.0074 55.2625L24.4002 52.6551C23.5765 51.8314 22.2413 51.8316 21.4169 52.6551C20.5932 53.4788 20.5932 54.8144 21.4169 55.6382L25.5159 59.7371C25.9116 60.1326 26.448 60.3549 27.0074 60.3549C27.567 60.3549 28.1032 60.1326 28.4991 59.7371L35.598 52.6382C36.4217 51.8145 36.4217 50.4788 35.598 49.6551Z" fill="#80CF00"/>
<path d="M70.1587 52.5234H45.5492C44.3844 52.5234 43.4398 53.4678 43.4398 54.6328C43.4398 55.7978 44.3844 56.7422 45.5492 56.7422H70.1587C71.3235 56.7422 72.268 55.7978 72.268 54.6328C72.268 53.4678 71.3235 52.5234 70.1587 52.5234Z" fill="#80CF00"/>
<path d="M68.9633 15.6094H54.1977C53.0329 15.6094 52.0883 16.5537 52.0883 17.7188C52.0883 18.8838 53.0329 19.8281 54.1977 19.8281H68.9633C70.1281 19.8281 71.0727 18.8838 71.0727 17.7188C71.0727 16.5537 70.1281 15.6094 68.9633 15.6094Z" fill="#80CF00"/>
<path d="M68.9633 25.7344H54.1977C53.0329 25.7344 52.0883 26.6787 52.0883 27.8438C52.0883 29.0088 53.0329 29.9531 54.1977 29.9531H68.9633C70.1281 29.9531 71.0727 29.0088 71.0727 27.8438C71.0727 26.6787 70.1281 25.7344 68.9633 25.7344Z" fill="#80CF00"/>
<path d="M68.9633 35.8594H54.1977C53.0329 35.8594 52.0883 36.8037 52.0883 37.9688C52.0883 39.1338 53.0329 40.0781 54.1977 40.0781H68.9633C70.1281 40.0781 71.0727 39.1338 71.0727 37.9688C71.0727 36.8037 70.1281 35.8594 68.9633 35.8594Z" fill="#80CF00"/>
<path d="M35.598 65.7638C34.7741 64.9403 33.4389 64.9401 32.6147 65.7638L27.0074 71.3711L24.4002 68.7637C23.5765 67.94 22.2413 67.9402 21.4169 68.7637C20.5932 69.5874 20.5932 70.9231 21.4169 71.7468L25.5159 75.8457C25.9116 76.2412 26.448 76.4636 27.0074 76.4636C27.567 76.4636 28.1032 76.2412 28.4991 75.8457L35.598 68.7468C36.4217 67.9231 36.4217 66.5875 35.598 65.7638Z" fill="#80CF00"/>
<path d="M76.557 0H14.5414C11.0521 0 8.21326 2.8388 8.21326 6.32812V27.8438C8.21326 29.0088 9.15784 29.9531 10.3226 29.9531C11.4874 29.9531 12.432 29.0088 12.432 27.8438V6.32812C12.432 5.16502 13.3783 4.21875 14.5414 4.21875H76.557C77.7201 4.21875 78.6664 5.16502 78.6664 6.32812V84.7969C78.6664 85.96 77.7201 86.9062 76.557 86.9062H14.5414C13.3783 86.9062 12.432 85.96 12.432 84.7969V45.6327C12.432 44.4677 11.4874 43.5234 10.3226 43.5234C9.15784 43.5234 8.21326 44.4677 8.21326 45.6327V84.7969C8.21326 88.2862 11.0521 91.125 14.5414 91.125H76.557C80.0463 91.125 82.8851 88.2862 82.8851 84.7969V6.32812C82.8851 2.8388 80.0463 0 76.557 0Z" fill="#80CF00"/>
<path d="M70.1587 68.5547H45.5492C44.3844 68.5547 43.4398 69.4991 43.4398 70.6641C43.4398 71.8291 44.3844 72.7734 45.5492 72.7734H70.1587C71.3235 72.7734 72.268 71.8291 72.268 70.6641C72.268 69.4991 71.3235 68.5547 70.1587 68.5547Z" fill="#80CF00"/>
</svg>
