<svg width="98" height="98" viewBox="0 0 98 98" fill="none" xmlns="http://www.w3.org/2000/svg">
<g clip-path="url(#clip0)">
<path d="M89.7881 19.6431H66.9331V11.4809C66.9277 6.9749 63.2763 3.32353 58.771 3.31815H39.18C34.6746 3.32353 31.0232 6.9749 31.0178 11.4809V19.6431H8.1628C3.65675 19.6485 0.00537955 23.2998 0 27.8059V86.5762C0.00537955 91.0822 3.65675 94.7336 8.1628 94.739H89.7881C94.2942 94.7336 97.9456 91.0822 97.9509 86.5762V27.8059C97.9456 23.2998 94.2942 19.6485 89.7881 19.6431ZM34.2826 11.4809C34.2826 8.7757 36.4754 6.58286 39.18 6.58286H58.7703C61.4755 6.58286 63.6677 8.7757 63.6677 11.4809V19.6431H60.403V11.4809C60.403 10.5792 59.672 9.84825 58.771 9.84825H39.18C38.2789 9.84825 37.5479 10.5792 37.5479 11.4809V19.6431H34.2826V11.4809ZM40.8127 19.6431V13.113H57.1383V19.6431H40.8127ZM3.26472 27.8059C3.26472 25.1013 5.45756 22.9085 8.1628 22.9085H89.7881C92.4934 22.9085 94.6855 25.1013 94.6855 27.8059V44.699L57.1383 61.2183V57.191C57.1383 56.2893 56.4073 55.5583 55.5056 55.5583H42.4454C41.5436 55.5583 40.8127 56.2893 40.8127 57.191V61.2183L3.26472 44.699V27.8059ZM53.8729 62.0884H44.0781V58.8237H53.8729V62.0884ZM44.0781 65.3538H53.8729V70.2512C53.8729 72.9558 51.6807 75.1487 48.9755 75.1487C46.2709 75.1487 44.0781 72.9558 44.0781 70.2512V65.3538ZM89.7881 91.4743H8.1628C5.45756 91.4743 3.26472 89.2814 3.26472 86.5762V48.2663L40.8127 64.787V70.2512C40.8127 74.7593 44.4674 78.414 48.9755 78.414C53.4835 78.414 57.1383 74.7593 57.1383 70.2512V64.787L94.6855 48.2663V86.5762C94.6862 89.2814 92.4934 91.4743 89.7881 91.4743Z" fill="#80CF00"/>
<path d="M47.3428 68.6186H50.6082V71.884H47.3428V68.6186Z" fill="#00A0E3"/>
</g>
<defs>
<clipPath id="clip0">
<rect width="98" height="98" fill="white"/>
</clipPath>
</defs>
</svg>
