<svg width="107" height="107" viewBox="0 0 107 107" fill="none" xmlns="http://www.w3.org/2000/svg">
<g clip-path="url(#clip0)">
<path d="M105.429 28.4775C102.601 28.4775 100.299 26.1763 100.299 23.3473C100.299 22.4798 99.5963 21.7768 98.7288 21.7768C97.8613 21.7768 97.1583 22.4798 97.1583 23.3473C97.1583 26.1761 94.8572 28.4775 92.0282 28.4775C91.1607 28.4775 90.4576 29.1805 90.4576 30.048C90.4576 30.9155 91.1607 31.6185 92.0282 31.6185C94.857 31.6185 97.1583 33.9198 97.1583 36.7486C97.1583 37.6161 97.8613 38.3192 98.7288 38.3192C99.5963 38.3192 100.299 37.6161 100.299 36.7486C100.299 33.9198 102.6 31.6185 105.429 31.6185C106.297 31.6185 107 30.9155 107 30.048C107 29.1805 106.297 28.4775 105.429 28.4775ZM98.729 31.9046C98.2124 31.1922 97.5846 30.5646 96.8724 30.048C97.5848 29.5314 98.2126 28.9036 98.729 28.1914C99.2456 28.9038 99.8734 29.5314 100.586 30.048C99.8732 30.5646 99.2456 31.1924 98.729 31.9046Z" fill="#80CF00"/>
<path d="M14.9717 28.4775C12.1431 28.4775 9.84152 26.1763 9.84152 23.3473C9.84152 22.4798 9.13829 21.7768 8.271 21.7768C7.40372 21.7768 6.70048 22.4798 6.70048 23.3473C6.70048 26.1761 4.39894 28.4775 1.57033 28.4775C0.703049 28.4775 -0.000183105 29.1805 -0.000183105 30.048C-0.000183105 30.9155 0.703049 31.6185 1.57033 31.6185C4.39894 31.6185 6.70048 33.9198 6.70048 36.7486C6.70048 37.6161 7.40372 38.3192 8.271 38.3192C9.13829 38.3192 9.84152 37.6161 9.84152 36.7486C9.84152 33.9198 12.1431 31.6185 14.9717 31.6185C15.839 31.6185 16.5422 30.9155 16.5422 30.048C16.5422 29.1805 15.839 28.4775 14.9717 28.4775ZM8.271 31.9046C7.75439 31.1922 7.12681 30.5646 6.41438 30.048C7.12702 29.5314 7.7546 28.9036 8.271 28.1914C8.78761 28.9038 9.41519 29.5314 10.1276 30.048C9.4154 30.5646 8.78761 31.1924 8.271 31.9046Z" fill="#80CF00"/>
<path d="M61.8757 8.37567C58.1231 8.37567 55.0703 5.32304 55.0703 1.57031C55.0705 0.703023 54.3675 0 53.5 0C52.6327 0 51.9295 0.703023 51.9295 1.57052C51.9295 5.32304 48.8764 8.37588 45.1241 8.37588C44.2568 8.37588 43.5536 9.07891 43.5536 9.9464C43.5536 10.8139 44.2568 11.5169 45.1241 11.5169C48.8764 11.5169 51.9295 14.5698 51.9295 18.3223C51.9295 19.1898 52.6327 19.8928 53.5 19.8928C54.3675 19.8928 55.0705 19.1898 55.0705 18.3223C55.0705 14.5698 58.1234 11.5169 61.8759 11.5169C62.7434 11.5169 63.4464 10.8139 63.4464 9.9464C63.4464 9.07891 62.7432 8.37567 61.8757 8.37567ZM53.5 12.9627C52.7236 11.7539 51.6923 10.7226 50.4833 9.94619C51.6923 9.16982 52.7236 8.13848 53.5 6.92971C54.2764 8.13848 55.3077 9.16982 56.5165 9.94619C55.3077 10.7226 54.2764 11.7539 53.5 12.9627Z" fill="#80CF00"/>
<path d="M86.1969 52.9773L80.0878 35.6684C79.6308 34.3731 78.4007 33.5029 77.0273 33.5029H29.5539C28.1803 33.5029 26.9504 34.3731 26.4934 35.6682L20.3843 52.9773C20.0295 53.9828 20.8006 55.0705 21.8652 55.0705H84.716C85.2255 55.0705 85.7034 54.8231 85.9977 54.4072C86.2922 53.9911 86.3666 53.458 86.1969 52.9773ZM24.0848 51.9295L29.4551 36.7136C29.4693 36.6732 29.5109 36.6438 29.5537 36.6438H77.0273C77.0701 36.6438 77.1117 36.6732 77.1261 36.7138L82.4964 51.9295H24.0848Z" fill="#80CF00"/>
<path d="M83.4433 73.7065C77.8659 73.7065 73.4971 76.6038 73.4971 80.3025C73.4971 84.0011 77.8659 86.8984 83.4433 86.8984C89.0207 86.8984 93.3895 84.0011 93.3895 80.3025C93.3895 76.6038 89.0207 73.7065 83.4433 73.7065ZM83.4433 83.7574C79.5483 83.7574 76.638 81.9334 76.638 80.3025C76.638 78.6715 79.5481 76.8475 83.4433 76.8475C87.3384 76.8475 90.2487 78.6715 90.2487 80.3025C90.2487 81.9334 87.3384 83.7574 83.4433 83.7574Z" fill="#80CF00"/>
<path d="M23.1379 73.7065C17.5605 73.7065 13.1917 76.6038 13.1917 80.3025C13.1917 84.0011 17.5605 86.8984 23.1379 86.8984C28.7153 86.8984 33.0841 84.0011 33.0841 80.3025C33.0841 76.6038 28.7153 73.7065 23.1379 73.7065ZM23.1379 83.7574C19.2431 83.7574 16.3325 81.9334 16.3325 80.3025C16.3325 78.6715 19.2429 76.8475 23.1379 76.8475C27.033 76.8475 29.9433 78.6715 29.9433 80.3025C29.9433 81.9334 27.033 83.7574 23.1379 83.7574Z" fill="#80CF00"/>
<path d="M103.545 50.2545H95.1694C94.4488 50.2545 93.8206 50.745 93.6459 51.444L92.5426 55.8567L84.8267 33.9957C83.6618 30.6952 80.5275 28.4775 77.0272 28.4775H29.5539C26.0536 28.4775 22.9193 30.6952 21.7544 33.9959L14.0387 55.8569L12.9355 51.444C12.7606 50.7448 12.1323 50.2545 11.412 50.2545H3.03609C2.16881 50.2545 1.46558 50.9575 1.46558 51.825V58.5257C1.46558 59.3932 2.16881 60.0962 3.03609 60.0962H11.7104L6.35644 67.5916C5.34872 69.0025 4.81601 70.6651 4.81601 72.3991V92.0286C4.81601 94.7485 6.13617 97.1656 8.16896 98.6739C8.16833 98.6922 8.16624 98.7104 8.16624 98.729V103.754C8.16624 105.544 9.62224 107 11.4118 107H21.4627C23.2524 107 24.7082 105.544 24.7082 103.754V100.3H81.8725V103.754C81.8725 105.544 83.3285 107 85.1181 107H95.169C96.9587 107 98.4145 105.544 98.4145 103.754V98.729C98.4145 98.7104 98.4124 98.6922 98.4118 98.6739C100.445 97.1656 101.765 94.7485 101.765 92.0286V72.3991C101.765 70.6649 101.232 69.0023 100.224 67.5916L94.8701 60.0962H103.545C104.412 60.0962 105.115 59.3932 105.115 58.5257V51.825C105.115 50.9573 104.413 50.2545 103.545 50.2545ZM4.60661 56.9549V53.3953H10.1857L11.0755 56.9549H4.60661ZM21.5676 103.754C21.5676 103.812 21.5208 103.859 21.4629 103.859H11.412C11.3543 103.859 11.3073 103.812 11.3073 103.754V100.3H13.0872H21.5676V103.754ZM95.2739 103.754C95.2739 103.812 95.2268 103.859 95.1692 103.859H85.1183C85.0606 103.859 85.0136 103.812 85.0136 103.754V100.3H93.4939H95.2739V103.754ZM93.4941 97.1585H13.087C10.8059 97.1585 8.86864 95.6618 8.20365 93.5989H98.3773C97.7123 95.6618 95.7752 97.1585 93.4941 97.1585ZM66.7964 80.1978V83.7574H39.7847V80.1978H66.7964ZM40.0316 77.0567C40.6965 74.9938 42.6336 73.4971 44.9149 73.4971H61.6665C63.9475 73.4971 65.8848 74.9938 66.5498 77.0567H40.0316ZM66.7964 86.8982V90.4578H39.7847V86.8982H66.7964ZM97.6688 69.4171C98.2939 70.2921 98.6243 71.3232 98.6243 72.3989V90.458H69.9374V78.6272C69.9374 74.0666 66.2269 70.3563 61.6665 70.3563H44.9149C40.3542 70.3563 36.6439 74.0668 36.6439 78.6272V90.458H7.95684V72.3989C7.95684 71.3232 8.28724 70.2921 8.91232 69.4171L15.5703 60.096H73.3922C74.2596 60.096 74.9627 59.3929 74.9627 58.5254C74.9627 57.658 74.2596 56.9549 73.3922 56.9549H16.9818L24.7161 35.041C25.4388 32.994 27.3828 31.6183 29.5539 31.6183H77.0274C79.1984 31.6183 81.1423 32.9938 81.8652 35.041L89.5993 56.9549H80.0928C79.2253 56.9549 78.5223 57.658 78.5223 58.5254C78.5223 59.3929 79.2253 60.096 80.0928 60.096H91.0108L97.6688 69.4171ZM101.975 56.9549H95.5054L96.3953 53.3953H101.975V56.9549Z" fill="#80CF00"/>
<path d="M28.1634 68.681H18.1124C17.2452 68.681 16.5419 69.3841 16.5419 70.2516C16.5419 71.119 17.2452 71.8221 18.1124 71.8221H28.1634C29.0306 71.8221 29.7339 71.119 29.7339 70.2516C29.7339 69.3841 29.0306 68.681 28.1634 68.681Z" fill="#80CF00"/>
<path d="M88.4687 68.681H78.4178C77.5503 68.681 76.8473 69.3841 76.8473 70.2516C76.8473 71.119 77.5503 71.8221 78.4178 71.8221H88.4687C89.3362 71.8221 90.0393 71.119 90.0393 70.2516C90.0393 69.3841 89.3362 68.681 88.4687 68.681Z" fill="#80CF00"/>
</g>
<defs>
<clipPath id="clip0">
<rect width="107" height="107" fill="white"/>
</clipPath>
</defs>
</svg>
