<svg width="103" height="103" viewBox="0 0 103 103" fill="none" xmlns="http://www.w3.org/2000/svg">
<g clip-path="url(#clip0)">
<path d="M102.828 47.6901C102.887 47.5289 102.922 47.3603 102.929 47.1882C102.929 47.007 102.9 46.8265 102.844 46.6545L102.711 46.2794C101.308 32.7179 94.576 20.2693 83.9945 11.6725C83.2384 11.0565 82.4479 10.5001 81.6573 9.92949C81.6179 9.89676 81.5969 9.85061 81.5541 9.81956C81.5113 9.78851 81.4769 9.79186 81.4408 9.76921C72.6922 3.49788 62.2039 0.116747 51.4395 0.0966059C50.9964 0.0966059 50.5508 0.0966059 50.2193 0.131013C44.4775 0.242626 38.7978 1.33526 33.4244 3.36193C28.766 -0.271802 22.4427 -0.930573 17.1347 1.66507C11.8268 4.26071 8.46413 9.65675 8.47252 15.5647C8.57575 17.5301 9.03227 19.4603 9.82195 21.262C8.06803 23.6596 6.52391 26.2032 5.2072 28.866C5.18119 28.9071 5.16608 28.9516 5.14342 28.9944C-7.04173 54.1897 3.09746 84.5057 27.9889 97.3001C52.8795 110.095 83.4331 100.697 96.83 76.1246C100.499 69.3649 102.584 61.8599 102.928 54.1771C102.981 53.3479 103 52.5029 103 51.657C103 50.3251 102.931 49.0051 102.828 47.6901ZM97.8337 38.8701C97.6155 38.6762 97.4141 38.4522 97.1859 38.2734C94.9402 36.5682 92.3949 35.2968 89.6817 34.5256C87.2111 33.9054 84.6289 33.8785 82.1457 34.4467C80.0335 34.925 77.8432 34.9359 75.7259 34.4786C71.6172 33.5815 68.3703 32.874 66.6483 30.124C64.1819 26.1705 65.3383 20.6142 67.9406 18.6588C68.7983 18.0672 69.8565 17.8415 70.8812 18.0311C72.7039 18.1805 74.5359 17.8717 76.2093 17.134C77.99 16.2998 79.5719 15.0956 80.85 13.6001C81.1748 13.8511 81.518 14.0768 81.8361 14.3361C89.5919 20.6503 95.1835 29.2269 97.8337 38.8701ZM23.9406 3.53396C30.5812 3.54487 35.9613 8.92497 35.9714 15.5647C35.9714 20.7056 28.2499 32.4754 23.9406 38.4421C19.8546 32.9202 16.3039 27.0206 13.3382 20.824C12.53 19.1783 12.045 17.3933 11.9099 15.5647C11.9174 8.92329 17.2992 3.54151 23.9406 3.53396ZM3.31649 51.657C3.3232 48.4546 3.6463 45.2597 4.28073 42.1203C4.46451 44.5095 4.77586 46.6352 5.05447 48.4789C6.11941 55.5257 7.12561 62.1687 12.3194 68.2437C14.4913 70.8033 18.1283 75.0823 23.7518 75.7151C29.3753 76.3478 36.417 73.1127 38.4512 72.1057L39.2317 71.7121C40.3125 71.0315 41.5478 70.6363 42.8226 70.5624C44.997 70.7596 47.011 71.7885 48.4461 73.4341C51.3791 76.681 52.1234 82.1022 50.0389 85.0352C49.3709 85.9063 48.4486 86.5475 47.3987 86.8697C45.602 87.4706 44.0747 88.6883 43.0886 90.3071C41.636 92.9371 41.3657 96.0598 42.3459 98.9005C19.7111 94.5148 3.35174 74.7131 3.31649 51.657ZM51.4395 99.7799C49.7787 99.7799 48.1196 99.6943 46.4672 99.524C46.3262 99.3436 46.1953 99.1556 46.0753 98.96C44.9139 96.8117 44.9013 94.2244 46.0426 92.0652C46.6628 91.08 47.6236 90.3574 48.7415 90.0352C50.3804 89.4704 51.8104 88.4205 52.8401 87.0258C55.8293 82.8223 54.9834 75.5397 51.0014 71.1347C48.9303 68.7665 45.9998 67.3231 42.8604 67.1251H42.784C40.9738 67.1796 39.2098 67.7049 37.664 68.6499L36.9306 69.0208C33.1752 70.8721 27.832 72.7024 24.1336 72.2861C19.8655 71.8086 16.9014 68.3159 14.9352 66.003C10.3767 60.675 9.4846 54.7796 8.45406 47.9569C7.348 42.1203 7.30436 36.1326 8.32315 30.2801C9.24375 28.4162 10.2835 26.6136 11.4374 24.8832C11.4945 24.9973 11.5574 25.1139 11.6094 25.2272C11.7194 25.4454 11.8327 25.6619 11.9527 25.8801C12.1247 26.2049 12.2968 26.5297 12.4688 26.857C12.5871 27.0768 12.7071 27.2967 12.8296 27.5182C13.0117 27.8447 13.1955 28.1711 13.381 28.4976C13.5052 28.7141 13.6286 28.9315 13.7544 29.148C13.9458 29.4744 14.1371 29.7992 14.3301 30.124C14.4568 30.3371 14.5827 30.5486 14.7111 30.7601C14.9142 31.1033 15.119 31.4247 15.3237 31.7562C15.4404 31.9442 15.5554 32.1347 15.667 32.3201C15.9212 32.728 16.1738 33.1233 16.4264 33.5236C16.4936 33.6268 16.5607 33.735 16.6262 33.8366C16.9409 34.3242 17.2531 34.8 17.5594 35.264C17.676 35.4361 17.7893 35.6081 17.9034 35.7802C18.0923 36.0638 18.2811 36.3475 18.4649 36.6185L18.8727 37.2152C19.0204 37.4334 19.1698 37.6516 19.3141 37.8597L19.7262 38.4522C19.8537 38.6368 19.9813 38.8172 20.103 38.9901C20.2247 39.1638 20.3623 39.3602 20.4898 39.5373C20.6166 39.7143 20.703 39.8377 20.8045 39.9803L21.1478 40.4545L21.4281 40.843L21.7016 41.2198L21.9249 41.522L22.1347 41.8073L22.2597 41.9793C22.4133 42.1874 22.5299 42.3435 22.5627 42.3863C22.8866 42.8194 23.396 43.0745 23.9373 43.0745C24.4786 43.0745 24.9879 42.8194 25.3119 42.3863C26.7545 40.4738 39.4087 23.5086 39.4087 15.5647C39.4087 15.0629 39.3777 14.5644 39.3298 14.0693C39.3147 13.9165 39.2904 13.7638 39.2711 13.6111C39.2266 13.267 39.1738 12.9229 39.0999 12.5797C39.0672 12.4076 39.0311 12.2465 38.9933 12.0812C38.9136 11.7371 38.8213 11.3939 38.7164 11.0498C38.6736 10.9122 38.6375 10.7729 38.5922 10.6378C38.4378 10.1771 38.2641 9.72137 38.0669 9.27827C38.0291 9.19352 37.9838 9.10624 37.9443 9.02903C37.7723 8.67153 37.6011 8.31739 37.403 7.97164C37.3174 7.81723 37.2226 7.66785 37.1303 7.51596C36.965 7.2449 36.7929 6.97803 36.6142 6.71536C36.5076 6.56263 36.3994 6.40989 36.2878 6.25968C36.229 6.18415 36.1795 6.10359 36.1157 6.02974C39.6915 4.82549 43.4 4.05678 47.1604 3.7404C44.4808 8.79825 43.6056 13.4768 44.6059 17.6619C45.3519 20.4648 46.7677 23.0453 48.7314 25.1811C50.3485 27.1834 51.5117 28.6268 51.4395 30.9833C51.2918 35.9673 45.6633 40.1163 43.5334 41.6839C40.7397 43.6955 37.617 45.2035 34.3047 46.1417C31.1829 47.1614 28.4899 48.0408 27.4602 51.114C26.4423 55.1724 28.114 59.4304 31.6218 61.7114C33.724 62.8468 36.2013 63.0659 38.4705 62.3164C40.9562 61.7391 43.5258 61.6157 46.0552 61.9539C49.3205 62.4163 52.136 62.8133 53.4712 64.683C54.2634 65.8 54.2223 66.9547 54.0678 69.0728C53.7154 72.0713 54.02 75.1109 54.9591 77.9801C55.7429 80.3315 56.927 83.8822 59.7719 84.2917C59.9565 84.3211 60.1436 84.3362 60.3299 84.3362C62.3432 84.3362 63.5751 82.5587 64.8708 80.689C65.4432 79.8624 66.0743 78.9703 66.8304 78.0749C70.3676 83.7899 73.961 88.559 74.128 88.7856C74.4528 89.2186 74.9622 89.4729 75.5026 89.4729C76.0439 89.4729 76.5533 89.2186 76.8781 88.7856C80.6067 83.7924 84.0054 78.5591 87.0509 73.122C89.1623 73.7337 91.173 74.6501 93.0192 75.8426C84.42 90.6662 68.5767 99.7875 51.4395 99.7799ZM83.5187 53.0097C86.0723 55.2873 87.5326 58.5468 87.5317 61.969C87.5317 63.2052 87.0299 65.6556 84.6466 70.3098C81.9259 75.3526 78.8712 80.2065 75.501 84.8397C73.8838 82.5864 71.1011 78.5868 68.6112 74.3833C67.2231 72.0788 65.9836 69.6896 64.8985 67.2283C64.0904 65.5826 63.6053 63.7976 63.4702 61.969C63.4778 55.3276 68.8596 49.9458 75.501 49.9383C75.8727 49.9383 76.2411 49.9551 76.6079 49.9886C79.1775 50.2211 81.6028 51.2818 83.5187 53.0097ZM99.502 54C99.2058 60.5373 97.5585 66.9421 94.6624 72.8106C92.7792 71.6198 90.75 70.6749 88.6269 69.9985C89.9545 67.5136 90.7526 64.7787 90.9691 61.969C90.9548 56.0711 87.6014 50.6902 82.3119 48.0786L82.2037 48.0308C81.8193 47.8453 81.4291 47.6716 81.0304 47.5155C80.7569 47.4089 80.4732 47.3258 80.1929 47.2369C80.0209 47.1849 79.8665 47.1202 79.6995 47.0649C79.2564 46.939 78.8057 46.8366 78.3526 46.7518H78.3299C78.0555 46.7006 77.7769 46.673 77.4983 46.6369C73.079 46.0251 68.612 47.3653 65.2594 50.3084C61.906 53.2523 59.9985 57.5078 60.0329 61.969C60.1663 64.26 60.7445 66.504 61.7348 68.5743C62.6982 70.768 63.7849 72.9054 64.99 74.9758C63.9158 76.1515 62.9323 77.4061 62.0469 78.7295C61.5745 79.5393 60.9778 80.2694 60.2788 80.8938C59.9347 80.8418 59.2977 80.1083 58.216 76.8925C57.4272 74.4513 57.1796 71.8665 57.4926 69.3204C57.9391 67.0336 57.5002 64.6628 56.2657 62.6874C54.0712 59.6184 50.2403 59.078 46.5125 58.5493C43.6148 58.1532 40.6692 58.2858 37.8193 58.9395C35.6206 59.36 34.6001 59.5169 33.4328 58.7893C31.3004 57.3274 30.2346 54.7418 30.7172 52.2016C31.1762 50.827 32.5516 50.3302 35.3579 49.4087C39.0227 48.3572 42.4768 46.6788 45.5684 44.4474C48.0726 42.6104 54.6779 37.7355 54.8768 31.0848C54.9868 27.4461 53.1665 25.2012 51.4067 23.0311C49.7804 21.2889 48.5971 19.1817 47.956 16.8864C47.0429 13.0572 48.1742 8.56663 51.2423 3.53396H51.4395C60.9014 3.54739 70.1511 6.3436 78.0362 11.5743C77.1257 12.5889 76.0238 13.413 74.7927 13.9996C73.5943 14.5182 72.2843 14.723 70.9844 14.5954C69.1768 14.3722 67.3524 14.8413 65.8762 15.9088C61.979 18.8426 60.2326 26.3241 63.7354 31.9425C66.2287 35.9245 70.4876 36.8527 75.1384 37.8664C77.6418 38.3951 80.229 38.3842 82.7281 37.8337C84.7338 37.3553 86.8251 37.3612 88.8274 37.853C91.0807 38.5025 93.1955 39.5616 95.0669 40.9756C97.0105 42.5877 98.4841 44.6924 99.3342 47.0699C99.4752 48.588 99.5625 50.1103 99.5625 51.657C99.5625 52.4257 99.5474 53.2036 99.4953 54H99.502Z" fill="#80CF00"/>
<path d="M23.9406 20.7207C27.7372 20.7207 30.8153 17.6434 30.8153 13.846C30.8153 10.0495 27.7372 6.97128 23.9406 6.97128C20.1441 6.97128 17.0659 10.0495 17.0659 13.846C17.0659 17.6434 20.1441 20.7207 23.9406 20.7207ZM23.9406 10.4086C25.8389 10.4086 27.378 11.9477 27.378 13.846C27.378 15.7443 25.8389 17.2833 23.9406 17.2833C22.0424 17.2833 20.5033 15.7443 20.5033 13.846C20.5033 11.9477 22.0424 10.4086 23.9406 10.4086Z" fill="#80CF00"/>
<path d="M68.6262 60.2503C68.6262 64.0477 71.7044 67.125 75.5009 67.125C79.2975 67.125 82.3757 64.0477 82.3757 60.2503C82.3757 56.4538 79.2975 53.3756 75.5009 53.3756C71.7044 53.3756 68.6262 56.4538 68.6262 60.2503ZM78.9383 60.2503C78.9383 62.1486 77.3992 63.6877 75.5009 63.6877C73.6027 63.6877 72.0636 62.1486 72.0636 60.2503C72.0636 58.3521 73.6027 56.813 75.5009 56.813C77.3992 56.813 78.9383 58.3521 78.9383 60.2503Z" fill="#80CF00"/>
</g>
<defs>
<clipPath id="clip0">
<rect width="103" height="103" fill="white"/>
</clipPath>
</defs>
</svg>
