<svg width="98" height="98" viewBox="0 0 98 98" fill="none" xmlns="http://www.w3.org/2000/svg">
<g clip-path="url(#clip0)">
<path d="M89.2319 78.5573L85.276 77.1838C87.4906 75.4298 88.9149 72.7202 88.9149 69.6824V66.7829C88.9149 61.5072 84.6225 57.2148 79.3469 57.2148C74.0712 57.2148 69.7788 61.5072 69.7788 66.7829V69.6824C69.7788 72.7202 71.2039 75.4298 73.4185 77.1838L69.4618 78.5573C66.9241 79.4388 64.791 81.0553 63.2635 83.1167H52.5762V78.899C52.5762 73.3475 49.0523 68.3941 43.8081 66.5735L39.8514 65.2C42.066 63.446 43.4911 60.7364 43.4911 57.6985V54.799C43.4911 49.5226 39.1987 45.231 33.923 45.231C28.6474 45.231 24.3549 49.5234 24.3549 54.799V57.6985C24.3549 60.7364 25.78 63.446 27.9939 65.2L24.0379 66.5735C18.7937 68.3941 15.2699 73.3475 15.2699 78.899V83.1167H1.44975C0.648987 83.1167 0 83.7657 0 84.5664V96.5503C0 97.351 0.648987 98 1.44975 98H61.7577C61.8227 98 61.887 97.994 61.9506 97.9858C62.0141 97.994 62.0784 98 62.1442 98H96.5502C97.351 98 98 97.351 98 96.5503V90.8828C98 85.3321 94.4769 80.3787 89.2319 78.5573ZM72.6783 66.7829C72.6783 63.1058 75.6698 60.1143 79.3469 60.1143C83.024 60.1143 86.0154 63.1058 86.0154 66.7829V69.6824C86.0154 73.3595 83.024 76.3509 79.3469 76.3509C75.6698 76.3509 72.6783 73.3595 72.6783 69.6824V66.7829ZM27.2545 54.799C27.2545 51.1219 30.2459 48.1305 33.923 48.1305C37.6001 48.1305 40.5916 51.1219 40.5916 54.799V57.6985C40.5916 61.3756 37.6001 64.3671 33.923 64.3671C30.2459 64.3671 27.2545 61.3756 27.2545 57.6985V54.799ZM36.9646 67.2666L38.3732 67.7556L33.923 75.4769L29.4728 67.7556L30.8815 67.2666H36.9646ZM18.1694 78.899C18.1694 74.5812 20.9104 70.7284 24.989 69.3123L26.6847 68.7238L32.6669 79.1046C32.9256 79.554 33.4049 79.8306 33.923 79.8306C34.4412 79.8306 34.9204 79.554 35.1791 79.1046L41.1613 68.7238L42.8571 69.3123C46.9357 70.7284 49.6759 74.5812 49.6759 78.899V83.1167H18.1694V78.899ZM2.89951 86.0162H61.6388C61.0272 87.5332 60.6945 89.1796 60.6945 90.8828V95.1005H2.89951V86.0162ZM95.1005 95.1005H63.594V90.8828C63.594 86.565 66.3342 82.7129 70.4128 81.2961L76.3053 79.2504H82.3884L88.2809 81.2961C92.3602 82.7129 95.1005 86.565 95.1005 90.8828V95.1005Z" fill="#80CF00"/>
<path d="M88.8185 10.4376H74.0922C73.2914 10.4376 72.6424 11.0874 72.6424 11.8874C72.6424 12.6881 73.2914 13.3371 74.0922 13.3371H88.8185C92.2825 13.3371 95.1005 16.1551 95.1005 19.6199V39.722C95.1005 43.186 92.2825 46.004 88.8185 46.004H68.9092C68.1085 46.004 67.4595 46.653 67.4595 47.4538V53.6192L60.2698 46.4287C59.9976 46.1566 59.629 46.004 59.2447 46.004H47.4538C43.9898 46.004 41.171 43.186 41.171 39.722V19.6191C41.171 16.1551 43.989 13.3371 47.4538 13.3371H67.3144C68.1152 13.3371 68.7642 12.6881 68.7642 11.8874C68.7642 11.0866 68.1152 10.4376 67.3144 10.4376H59.7277V9.18152C59.7277 4.11897 55.6087 0 50.5462 0H9.18152C4.11897 0 0 4.11897 0 9.18152V12.3868C0 13.1876 0.648987 13.8366 1.44975 13.8366C2.25052 13.8366 2.89951 13.1876 2.89951 12.3868V9.18152C2.89951 5.71751 5.71751 2.89951 9.18152 2.89951H50.5462C54.0102 2.89951 56.8282 5.71751 56.8282 9.18152V10.4376H47.4538C42.3913 10.4376 38.2723 14.5566 38.2723 19.6191V35.5657H23.0988C22.2981 35.5657 21.6491 36.2147 21.6491 37.0154V43.1808L14.4594 35.9904C14.1872 35.7182 13.8186 35.5657 13.4343 35.5657H9.18152C5.71751 35.5657 2.89951 32.7477 2.89951 29.2837V19.1279C2.89951 18.3271 2.25052 17.6782 1.44975 17.6782C0.648987 17.6782 0 18.3271 0 19.1279V29.2837C0 34.347 4.11897 38.4652 9.18152 38.4652H12.8332L22.0738 47.7058C22.3512 47.9832 22.722 48.1304 23.0988 48.1297C23.2858 48.1297 23.4742 48.0938 23.6536 48.0198C24.1949 47.7955 24.5486 47.2669 24.5486 46.6807V38.4652H38.2723V39.722C38.2723 44.7846 42.3913 48.9028 47.4538 48.9028H58.6443L67.8842 58.1434C68.1616 58.4208 68.5324 58.5681 68.9092 58.5681C69.0962 58.5681 69.2846 58.5322 69.464 58.4574C70.0053 58.2331 70.359 57.7045 70.359 57.1183V48.9028H88.8185C93.881 48.9028 98 44.7846 98 39.722V19.6191C98 14.5566 93.881 10.4376 88.8185 10.4376Z" fill="#80CF00"/>
</g>
<defs>
<clipPath id="clip0">
<rect width="98" height="98" fill="white"/>
</clipPath>
</defs>
</svg>
