<svg width="108" height="108" viewBox="0 0 108 108" fill="none" xmlns="http://www.w3.org/2000/svg">
<path d="M57.5821 71.0948H86.373C87.4527 71.0948 88.1724 70.3751 88.1724 69.2954V53.1005C88.1724 52.0208 87.4527 51.3011 86.373 51.3011H57.5821C56.5024 51.3011 55.7827 52.0208 55.7827 53.1005V69.2954C55.7825 70.3749 56.5024 71.0948 57.5821 71.0948ZM59.3815 54.8998H84.5736V67.4958H59.3815V54.8998Z" fill="#80CF00"/>
<path d="M8.99727 47.7019H23.3928C24.4725 47.7019 25.1922 46.9822 25.1922 45.9026C25.1922 44.8229 24.4725 44.1032 23.3928 44.1032H8.99727C7.91761 44.1032 7.19791 44.8229 7.19791 45.9026C7.19791 46.9822 7.91761 47.7019 8.99727 47.7019Z" fill="#80CF00"/>
<path d="M30.5905 47.7019H44.9861C46.0658 47.7019 46.7855 46.9822 46.7855 45.9026C46.7855 44.8229 46.0658 44.1032 44.9861 44.1032H30.5905C29.5109 44.1032 28.7912 44.8229 28.7912 45.9026C28.7912 46.9822 29.5109 47.7019 30.5905 47.7019Z" fill="#80CF00"/>
<path d="M8.99727 54.8998H32.3899C33.4696 54.8998 34.1893 54.1801 34.1893 53.1005C34.1893 52.0208 33.4696 51.3011 32.3899 51.3011H8.99727C7.91761 51.3011 7.19791 52.0208 7.19791 53.1005C7.19791 54.1801 7.91761 54.8998 8.99727 54.8998Z" fill="#80CF00"/>
<path d="M44.9859 51.3008H39.5876C38.5079 51.3008 37.7882 52.0205 37.7882 53.1002C37.7882 54.1799 38.5079 54.8996 39.5876 54.8996H44.9859C46.0655 54.8996 46.7852 54.1799 46.7852 53.1002C46.7852 52.0205 46.0655 51.3008 44.9859 51.3008Z" fill="#80CF00"/>
<path d="M106.347 28.9879C105.087 27.3684 103.468 26.4686 101.488 26.2888L97.1696 25.7654V20.7104V17.1116C97.1696 13.1529 93.9307 9.91394 89.972 9.91394H7.19768C3.23899 9.91373 0 13.1527 0 17.1116V20.7106V35.1061V74.6937C0 77.9439 2.184 80.7073 5.15644 81.593C5.06577 85.2331 7.81996 88.3932 11.5165 88.7293L94.6506 98.0863C94.8304 98.0863 95.1904 98.0863 95.3703 98.0863C98.9692 98.0863 102.208 95.3872 102.568 91.9683L107.966 34.2064C108.146 32.4068 107.606 30.4273 106.347 28.9879ZM3.59895 22.5099H93.5709V27.1885V33.3066H3.59895V22.5099ZM7.19768 13.5127H89.9717C91.9512 13.5127 93.5707 15.1322 93.5707 17.1116V18.911H3.59895V17.1116C3.59895 15.1322 5.21844 13.5127 7.19768 13.5127ZM3.59895 74.6935V36.9053H93.5709V74.6935C93.5709 76.6729 91.9514 78.2924 89.972 78.2924H7.37777H7.19789C5.21844 78.2924 3.59895 76.6729 3.59895 74.6935ZM104.367 33.4864L98.969 91.2484C98.7891 93.2278 96.9896 94.6672 95.0103 94.4874L12.0562 85.1304C10.2568 84.9505 8.99705 83.5109 8.81717 81.8914H89.9717C93.9304 81.8914 97.1694 78.6524 97.1694 74.6937V35.1059V29.1678L101.308 29.5277C102.208 29.5277 103.108 30.0676 103.647 30.7873C104.187 31.507 104.547 32.5866 104.367 33.4864Z" fill="#80CF00"/>
</svg>
