<svg width="87" height="87" viewBox="0 0 87 87" fill="none" xmlns="http://www.w3.org/2000/svg">
<g clip-path="url(#clip0)">
<path d="M81.215 44.6268C80.865 43.9106 80.865 43.0892 81.215 42.3732L84.4598 35.7352C86.2664 32.0392 84.835 27.6341 81.2011 25.706L74.6744 22.243C73.9703 21.8695 73.4875 21.2048 73.3497 20.4199L72.0733 13.1423C71.3625 9.09041 67.6144 6.3676 63.5419 6.9438L56.2263 7.97862C55.4367 8.09009 54.6559 7.83623 54.0831 7.28211L48.7729 2.14506C45.8161 -0.715384 41.1841 -0.715554 38.2274 2.14506L32.9171 7.28262C32.3441 7.83691 31.5633 8.09026 30.7738 7.97913L23.4582 6.94431C19.3844 6.36777 15.6376 9.09092 14.9269 13.1429L13.6504 20.4201C13.5126 21.2051 13.0299 21.8697 12.3259 22.2433L5.79921 25.7063C2.16529 27.6342 0.733872 32.0398 2.54047 35.7357L5.78511 42.3735C6.13515 43.0897 6.13515 43.9111 5.78511 44.6272L2.5403 51.2649C0.733702 54.9609 2.16512 59.3661 5.79904 61.2942L12.3257 64.7572C13.0299 65.1307 13.5126 65.7954 13.6504 66.5803L14.9269 73.8578C15.5739 77.5464 18.7368 80.1333 22.3719 80.133C22.73 80.133 23.0933 80.1078 23.4584 80.0562L30.774 79.0214C31.563 78.9094 32.3443 79.1637 32.9172 79.7179L38.2274 84.8549C39.7061 86.2853 41.6027 87.0003 43.5001 87.0002C45.3969 87 47.2948 86.285 48.7727 84.8549L54.0831 79.7179C54.6561 79.1637 55.437 78.9106 56.2263 79.0214L63.5419 80.0562C67.6163 80.6325 71.3625 77.9096 72.0733 73.8576L73.3499 66.5804C73.4877 65.7954 73.9705 65.1308 74.6744 64.7572L81.2011 61.2942C84.835 59.3663 86.2664 54.9607 84.4598 51.2648L81.215 44.6268ZM78.8492 56.8615L72.3226 60.3245C70.2417 61.4288 68.8145 63.3927 68.4076 65.7132L67.1311 72.9905C66.8907 74.3615 65.6233 75.2822 64.2447 75.0877L56.9291 74.0529C54.5961 73.7224 52.2875 74.4733 50.5943 76.1111L45.2839 81.248C44.2837 82.2155 42.7166 82.2155 41.7161 81.248L36.4059 76.111C34.9748 74.7266 33.104 73.9764 31.1509 73.9764C30.7931 73.9764 30.4323 74.0016 30.0711 74.0527L22.7555 75.0875C21.3781 75.2822 20.1096 74.3613 19.869 72.9904L18.5924 65.7128C18.1853 63.3924 16.7583 61.4283 14.6772 60.3243L8.15058 56.8613C6.92103 56.209 6.43676 54.7186 7.04796 53.4681L10.2928 46.8302C11.3273 44.7136 11.3273 42.2862 10.2928 40.1696L7.04796 33.5317C6.43676 32.2812 6.92103 30.7908 8.15058 30.1385L14.6772 26.6755C16.7581 25.5712 18.1853 23.6073 18.5922 21.2868L19.8687 14.0095C20.1093 12.6385 21.3765 11.7176 22.7551 11.9123L30.0707 12.9471C32.4029 13.2773 34.7123 12.5267 36.4055 10.8889L41.7159 5.75181C42.7161 4.78428 44.2832 4.78428 45.2837 5.75181L50.5939 10.8889C52.2872 12.5269 54.5962 13.2773 56.9288 12.9471L64.2444 11.9123C65.6219 11.7174 66.8904 12.6385 67.1308 14.0095L68.4072 21.287C68.8144 23.6074 70.2414 25.5716 72.3224 26.6755L78.8491 30.1385C80.0786 30.7908 80.5629 32.2812 79.9517 33.5317L76.7069 40.1695C75.6724 42.2858 75.6724 44.7136 76.7069 46.83L79.9517 53.4678C80.563 54.7186 80.0788 56.2091 78.8492 56.8615Z" fill="#80CF00"/>
<path d="M61.8318 25.168C60.8522 24.1882 59.2635 24.1882 58.2837 25.168L25.168 58.2839C24.1882 59.2636 24.1882 60.8522 25.168 61.832C25.6579 62.3219 26.3 62.5669 26.942 62.5669C27.5839 62.5669 28.2262 62.3221 28.7159 61.832L61.8317 28.7163C62.8118 27.7363 62.8118 26.1479 61.8318 25.168Z" fill="#80CF00"/>
<path d="M33.4644 20.92C28.3919 20.92 24.265 25.0469 24.265 30.1193C24.265 35.1918 28.3919 39.3187 33.4644 39.3187C38.5368 39.3187 42.6637 35.1918 42.6637 30.1193C42.6637 25.0469 38.5368 20.92 33.4644 20.92ZM33.4644 34.3007C31.1587 34.3007 29.2829 32.425 29.2829 30.1192C29.2829 27.8135 31.1587 25.9377 33.4644 25.9377C35.77 25.9377 37.646 27.8135 37.646 30.1192C37.6458 32.425 35.77 34.3007 33.4644 34.3007Z" fill="#80CF00"/>
<path d="M53.5354 47.6815C48.4629 47.6815 44.3361 51.8084 44.3361 56.8808C44.3361 61.9533 48.4629 66.0802 53.5354 66.0802C58.6079 66.0802 62.7348 61.9533 62.7348 56.8808C62.7348 51.8084 58.6079 47.6815 53.5354 47.6815ZM53.5354 61.0623C51.2298 61.0623 49.3538 59.1865 49.3538 56.8808C49.3538 54.5752 51.2296 52.6994 53.5354 52.6994C55.8411 52.6994 57.7168 54.5752 57.7168 56.8808C57.7168 59.1865 55.8411 61.0623 53.5354 61.0623Z" fill="#80CF00"/>
</g>
<defs>
<clipPath id="clip0">
<rect width="87" height="87" fill="white"/>
</clipPath>
</defs>
</svg>
