<svg width="101" height="101" viewBox="0 0 101 101" fill="none" xmlns="http://www.w3.org/2000/svg">
<path d="M99.0274 77.4515C100.117 77.4515 101 76.5681 101 75.4788V72.0293C101 66.764 97.9671 62.1964 93.5584 59.9728C95.852 58.0309 97.3119 55.1335 97.3119 51.8999V49.4412C97.3119 43.6086 92.5667 38.8634 86.7342 38.8634C80.9016 38.8634 76.1564 43.6086 76.1564 49.4412V51.8999C76.1564 54.7107 77.2605 57.2669 79.055 59.1632C75.5869 59.9369 72.3076 61.4132 69.3782 63.5502L51.5154 76.5815C51.1461 76.851 50.8076 77.1538 50.4999 77.4826C50.1922 77.1538 49.8535 76.851 49.4844 76.5815L31.6216 63.5502C28.6922 61.4132 25.4129 59.9369 21.9448 59.1632C23.7393 57.2669 24.8436 54.7107 24.8436 51.8999V49.4412C24.8436 43.6086 20.0984 38.8634 14.2658 38.8634C8.43329 38.8634 3.68807 43.6086 3.68807 49.4412V51.8999C3.68807 55.1335 5.14803 58.0309 7.44163 59.9728C3.03276 62.1964 0 66.764 0 72.0294V99.023C0 100.112 0.883354 100.996 1.97265 100.996H26.5588C27.6481 100.996 28.5315 100.112 28.5315 99.023V80.9095L41.4383 88.6917C43.7161 90.065 46.4583 90.1039 48.7742 88.7962C49.4284 88.4267 50.0048 87.9703 50.4999 87.4491C50.995 87.9705 51.5714 88.4269 52.2256 88.7962C53.3526 89.4328 54.5805 89.7502 55.8065 89.7502C57.1002 89.7502 58.3921 89.3967 59.5613 88.6917L72.4683 80.9095V99.023C72.4683 100.112 73.3517 100.996 74.441 100.996H99.0272C100.116 100.996 101 100.112 101 99.023V91.8958C101 90.8065 100.116 89.9232 99.0272 89.9232C97.9379 89.9232 97.0545 90.8065 97.0545 91.8958V97.0504H76.4137V78.8457C76.4137 78.7436 76.4034 78.644 76.3886 78.5459L78.5329 77.253C79.4659 76.6904 79.7662 75.4782 79.2036 74.5452C78.6408 73.6121 77.428 73.3113 76.4957 73.8745L57.5241 85.3131C56.4812 85.942 55.2256 85.9597 54.1657 85.3608C53.1056 84.7621 52.4726 83.6778 52.4726 82.46C52.4726 81.3997 52.9841 80.3935 53.8408 79.7686L71.7036 66.7372C75.5236 63.9503 80.0422 62.4773 84.771 62.4773H87.5025C92.7695 62.4773 97.0547 66.7623 97.0547 72.0293V75.4788C97.0547 76.5681 97.9381 77.4515 99.0274 77.4515ZM7.63318 49.4412C7.63318 45.7841 10.6085 42.8087 14.2656 42.8087C17.9227 42.8087 20.8981 45.7841 20.8981 49.4412V51.8999C20.8981 55.557 17.9227 58.5324 14.2656 58.5324C10.6085 58.5324 7.63318 55.557 7.63318 51.8999V49.4412ZM46.8341 85.3608C45.7736 85.9595 44.5182 85.9416 43.4755 85.3131L24.5041 73.8745C23.5712 73.3115 22.3586 73.6123 21.7962 74.5452C21.2336 75.478 21.5339 76.6904 22.4669 77.253L24.6088 78.5445C24.5938 78.6428 24.586 78.7434 24.586 78.8457V97.0504H3.94531V72.0294C3.94531 66.7625 8.2305 62.4775 13.4975 62.4775H16.229C20.9579 62.4775 25.4764 63.9504 29.2965 66.7374L47.1592 79.7687C48.0159 80.3937 48.5275 81.3999 48.5275 82.4602C48.5273 83.6778 47.8942 84.7621 46.8341 85.3608ZM93.3666 51.8999C93.3666 55.557 90.3913 58.5324 86.7342 58.5324C83.0771 58.5324 80.1017 55.557 80.1017 51.8999V49.4412C80.1017 45.7841 83.0771 42.8087 86.7342 42.8087C90.3913 42.8087 93.3666 45.7841 93.3666 49.4412V51.8999Z" fill="#80CF00"/>
<path d="M100.422 82.0505C100.055 81.6838 99.546 81.4745 99.0272 81.4745C98.5083 81.4745 97.9994 81.6838 97.6325 82.0505C97.2656 82.4194 97.0545 82.9264 97.0545 83.4452C97.0545 83.966 97.2654 84.4729 97.6325 84.8418C97.9994 85.2087 98.5083 85.4198 99.0272 85.4198C99.546 85.4198 100.055 85.2089 100.422 84.8418C100.789 84.4729 101 83.966 101 83.4452C101 82.9264 100.789 82.4174 100.422 82.0505Z" fill="#80CF00"/>
<path d="M81.4792 0.0043335H74.9695C73.8802 0.0043335 72.9968 0.88749 72.9968 1.97699C72.9968 3.06648 73.8802 3.94964 74.9695 3.94964H76.7167L53.6642 27.0022L38.5788 11.9168C38.2087 11.5469 37.7071 11.339 37.1839 11.339C36.6608 11.339 36.1591 11.5469 35.789 11.9168L21.7323 25.9735C20.962 26.744 20.962 27.9929 21.7323 28.7634C22.5028 29.534 23.7515 29.5338 24.5222 28.7634L37.1841 16.1014L52.2696 31.1868C52.6548 31.5721 53.1596 31.7646 53.6644 31.7646C54.1692 31.7646 54.674 31.5721 55.0593 31.1868L79.5066 6.73956V8.48674C79.5066 9.57623 80.3899 10.4594 81.4792 10.4594C82.5685 10.4594 83.4519 9.57623 83.4519 8.48674V1.97699C83.4519 0.88749 82.5685 0.0043335 81.4792 0.0043335Z" fill="#80CF00"/>
<path d="M19.5429 30.9531C19.1762 30.5862 18.6672 30.3751 18.1484 30.3751C17.6296 30.3751 17.1207 30.5862 16.7537 30.9531C16.3868 31.32 16.1758 31.8289 16.1758 32.3477C16.1758 32.8666 16.3866 33.3755 16.7537 33.7424C17.1208 34.1093 17.6296 34.3204 18.1484 34.3204C18.6672 34.3204 19.1762 34.1093 19.5429 33.7424C19.9098 33.3755 20.1211 32.8666 20.1211 32.3477C20.1211 31.827 19.91 31.32 19.5429 30.9531Z" fill="#80CF00"/>
</svg>
