<svg width="109" height="109" viewBox="0 0 109 109" fill="none" xmlns="http://www.w3.org/2000/svg">
<g clip-path="url(#clip0)">
<path d="M87.7708 11.8129H79.5779V11.6258C79.5779 9.75804 78.0577 8.2387 76.1907 8.2387H67.3874C67.3183 3.56675 63.4963 -0.212891 58.8077 -0.212891H26.2329C21.6292 -0.212891 17.8828 3.53349 17.8828 8.13725V14.2545C17.8828 15.1369 18.598 15.8512 19.4795 15.8512C20.361 15.8512 21.0762 15.1369 21.0762 14.2545V8.13725C21.0762 5.29399 23.3897 2.98047 26.2329 2.98047H58.8077C61.7782 2.98047 64.1948 5.39711 64.1948 8.3676V9.78632C64.1948 9.80295 64.194 9.81875 64.194 9.83538C64.194 9.85201 64.1948 9.86864 64.1948 9.88528V12.978C64.1948 13.8595 64.91 14.5747 65.7915 14.5747C66.6739 14.5747 67.3882 13.8595 67.3882 12.978V11.4321H76.1907C76.2972 11.4321 76.3845 11.5194 76.3845 11.6258V33.5028C76.3845 33.6109 76.2997 33.6966 76.1907 33.6966H67.3882V19.3639C67.3882 18.4824 66.6739 17.7672 65.7915 17.7672C64.91 17.7672 64.1948 18.4824 64.1948 19.3639V35.2434C64.1948 35.26 64.194 35.2766 64.194 35.2933C64.194 35.3091 64.1948 35.3257 64.1948 35.3423V43.6401H58.0942C57.3482 39.843 53.9944 36.9698 49.9811 36.9698C45.9686 36.9698 42.6139 39.843 41.8679 43.6401H35.7673V37.0887H40.6347C41.5162 37.0887 42.2313 36.3744 42.2313 35.492C42.2313 34.6105 41.5162 33.8953 40.6347 33.8953H26.2329C23.3897 33.8953 21.0762 31.5827 21.0762 28.7386V20.6412C21.0762 19.7597 20.361 19.0446 19.4795 19.0446C18.598 19.0446 17.8828 19.7597 17.8828 20.6412V28.7386C17.8828 33.3432 21.6284 37.0887 26.2329 37.0887H32.5739V43.6401H29.5377C27.4837 43.6401 25.8122 45.3116 25.8122 47.3657V55.2193C25.8122 57.2734 27.4837 58.9449 29.5377 58.9449H34.065V63.8564H29.5377C27.4837 63.8564 25.8122 65.5279 25.8122 67.582V71.5562C25.8122 73.6103 27.4837 75.2818 29.5377 75.2818H35.9968L26.4774 106.727C26.2213 107.571 26.6986 108.463 27.5427 108.718C27.6974 108.765 27.8529 108.787 28.0059 108.787C28.6912 108.787 29.3249 108.342 29.5336 107.653L39.3332 75.2818H43.7116V84.0211C43.7116 86.9267 45.6983 89.3766 48.3852 90.0843V107.19C48.3852 108.072 49.0996 108.786 49.9819 108.786C50.8634 108.786 51.5777 108.072 51.5777 107.19V90.0843C54.2638 89.3766 56.2505 86.9259 56.2505 84.0211V75.2818H60.6289L70.4285 107.653C70.6373 108.342 71.271 108.787 71.9562 108.787C72.11 108.787 72.2656 108.765 72.4194 108.718C73.2635 108.463 73.7408 107.571 73.4855 106.727L63.9661 75.2818H70.4252C72.4793 75.2818 74.1508 73.6103 74.1508 71.5562V67.582C74.1508 65.5279 72.4793 63.8564 70.4252 63.8564H65.898V58.9449H70.4252C72.4793 58.9449 74.1508 57.2734 74.1508 55.2193V47.3657C74.1508 45.3116 72.4793 43.6401 70.4252 43.6401H67.3882V36.89H76.1907C78.0577 36.89 79.5779 35.3698 79.5779 33.5028V33.3174H87.7708C89.8033 33.3174 91.4565 31.6642 91.4565 29.6317V15.4978C91.4565 13.4653 89.8033 11.8129 87.7708 11.8129ZM49.9811 40.1623C52.7794 40.1623 55.0563 42.4392 55.0563 45.2376C55.0563 48.0359 52.7794 50.312 49.9811 50.312C47.1827 50.312 44.9066 48.0359 44.9066 45.2376C44.9066 42.4392 47.1827 40.1623 49.9811 40.1623ZM37.2584 58.9449H48.3844V63.8564H37.2584V58.9449ZM53.0572 84.0211C53.0572 85.7176 51.6775 87.0972 49.9811 87.0972C48.2846 87.0972 46.905 85.7176 46.905 84.0211V75.2818H53.0572V84.0211ZM70.9574 67.582V71.5562C70.9574 71.8498 70.7188 72.0884 70.4252 72.0884H61.8381C61.8206 72.0876 61.8023 72.0876 61.7849 72.0884H38.1773C38.1598 72.0876 38.1423 72.0876 38.1249 72.0884H29.5377C29.2442 72.0884 29.0055 71.8498 29.0055 71.5562V67.582C29.0055 67.2884 29.2442 67.0497 29.5377 67.0497H70.4252C70.7179 67.0497 70.9574 67.2884 70.9574 67.582ZM62.7046 63.8564H51.5777V58.9449H62.7046V63.8564ZM70.9574 47.3657V55.2193C70.9574 55.5129 70.7188 55.7516 70.4252 55.7516H29.5377C29.2442 55.7516 29.0055 55.5129 29.0055 55.2193V47.3657C29.0055 47.0721 29.2442 46.8334 29.5377 46.8334H34.1265C34.1415 46.8343 34.1556 46.8343 34.1706 46.8343C34.1856 46.8343 34.1997 46.8343 34.2147 46.8334H41.8671C42.6131 50.6314 45.9677 53.5054 49.9811 53.5054C53.9944 53.5054 57.3482 50.6314 58.0942 46.8334H65.7474C65.7616 46.8343 65.7766 46.8343 65.7915 46.8343C65.8057 46.8343 65.8206 46.8343 65.8348 46.8334H70.4244C70.7188 46.8334 70.9574 47.0721 70.9574 47.3657ZM88.2631 29.6317C88.2631 29.9028 88.0427 30.124 87.7708 30.124H79.5779V15.0063H87.7708C88.0419 15.0063 88.2631 15.2267 88.2631 15.4978V29.6317Z" fill="#80CF00"/>
<path d="M30.7993 15.6217H45.3083C46.1898 15.6217 46.905 14.9074 46.905 14.025C46.905 13.1435 46.1898 12.4283 45.3083 12.4283H30.7993C29.9178 12.4283 29.2026 13.1435 29.2026 14.025C29.2026 14.9074 29.9178 15.6217 30.7993 15.6217Z" fill="#80CF00"/>
<path d="M30.7993 22.7435H38.0542C38.9357 22.7435 39.6509 22.0292 39.6509 21.1469C39.6509 20.2654 38.9357 19.5502 38.0542 19.5502H30.7993C29.9178 19.5502 29.2026 20.2654 29.2026 21.1469C29.2026 22.0292 29.9178 22.7435 30.7993 22.7435Z" fill="#80CF00"/>
</g>
<defs>
<clipPath id="clip0">
<rect width="109" height="109" fill="white"/>
</clipPath>
</defs>
</svg>
