<svg width="85" height="100" viewBox="0 0 85 100" fill="none" xmlns="http://www.w3.org/2000/svg">
<g clip-path="url(#clip0)">
<path d="M36.2294 44.6945C35.6935 45.552 35.2647 46.5166 34.7288 47.3741C31.406 53.4834 28.0831 59.5927 24.7603 65.702C22.5094 69.7749 20.2584 73.955 18.1147 78.0279C15.5421 82.7438 12.9696 87.4598 10.3971 92.283C9.96837 93.1404 9.32524 93.4619 8.36055 93.4619C6.32398 93.4619 4.28741 93.4619 2.25084 93.4619C0.428649 93.4619 -0.428854 91.747 0.321461 90.1393C8.14618 74.4909 16.0781 58.7353 23.9028 42.9796C24.01 42.8725 24.01 42.7653 24.1172 42.5509C23.6884 42.5509 23.3669 42.5509 23.0453 42.4437C21.9734 42.3365 21.2231 41.4791 21.2231 40.4073C21.2231 37.5134 21.2231 34.6195 21.2231 31.7256C21.2231 30.4394 22.4022 29.6892 23.3669 29.6892C26.4753 29.6892 29.4766 29.6892 32.585 29.6892C32.6922 29.6892 36.015 29.6892 36.2294 29.6892C34.6216 27.8671 32.4778 25.7235 32.0491 23.3655C31.9419 23.3655 29.6909 23.3655 29.4766 23.3655C27.44 23.3655 25.5106 23.3655 23.474 23.3655C22.0806 23.3655 21.2231 22.508 21.2231 21.1147C21.2231 16.2915 21.2231 11.3612 21.2231 6.53805C21.2231 5.14469 22.0806 4.28725 23.474 4.28725C35.3719 4.28725 47.1626 4.28725 59.0604 4.28725C59.1676 4.28725 59.382 4.28725 59.5964 4.28725C59.5964 3.53698 59.5964 2.89389 59.5964 2.2508C59.5964 1.60772 59.8107 1.07181 60.2395 0.643087C60.5611 0.214362 60.9898 0 61.5258 0C63.6695 0 65.8133 0 67.8498 0C69.0289 0 69.7792 0.643087 69.9936 1.60772C69.9936 1.82208 70.1008 2.03644 70.1008 2.2508C70.1008 9.96784 70.1008 17.5777 70.1008 25.2947C70.1008 26.6881 69.2433 27.5456 67.8498 27.5456C65.8133 27.5456 63.7767 27.5456 61.7401 27.5456C60.3467 27.5456 59.4892 26.6881 59.4892 25.2947C59.4892 24.6517 59.4892 24.0086 59.4892 23.3655C57.9886 23.3655 54.3442 23.3655 52.8435 23.3655C52.522 25.8307 50.3782 27.8671 48.7704 29.7964C48.9848 29.7964 52.3076 29.7964 52.4148 29.7964C55.5232 29.7964 58.5245 29.7964 61.6329 29.7964C62.812 29.7964 63.5623 30.4394 63.7767 31.5113C63.7767 31.6184 63.7767 31.8328 63.7767 31.94C63.7767 34.7267 63.7767 37.5134 63.7767 40.3001C63.7767 41.5863 62.9192 42.4437 61.6329 42.5509C61.4186 42.5509 61.097 42.5509 60.8826 42.5509C60.9898 42.7653 60.9898 42.8725 61.097 42.9796C68.9217 58.7353 76.8536 74.4909 84.6783 90.2465C85.2143 91.3183 85.1071 92.3901 84.1424 93.1404C83.7136 93.462 83.1777 93.5691 82.749 93.5691C80.7124 93.5691 78.6758 93.5691 76.6392 93.5691C75.6746 93.5691 75.0314 93.1404 74.6027 92.283C71.1727 85.8521 67.6355 79.4212 64.2055 72.9903C59.9179 65.0589 55.6304 57.1275 51.3429 49.1961C50.5926 47.8028 49.7351 46.3022 48.9848 44.9089C48.9848 44.8017 48.8776 44.6945 48.7704 44.5873C48.7704 44.9089 48.7704 45.2304 48.6632 45.552C48.556 48.8746 48.4488 52.09 48.3416 55.4126C48.2345 58.1994 48.1273 60.9861 48.0201 63.7728C47.9129 67.5241 47.6985 71.3826 47.5913 75.134C47.4841 77.9207 47.3769 80.7074 47.2698 83.4941C47.1626 86.7095 47.0554 89.8178 46.9482 93.0332C46.841 94.7481 46.841 96.463 46.7338 98.1779C46.7338 99.2497 45.7691 100.107 44.6973 100.107C43.1966 100.107 41.8032 100.107 40.3025 100.107C39.1235 100.107 38.266 99.1425 38.266 97.9636C38.1588 94.7481 38.0516 91.5327 37.9444 88.3173C37.73 83.4941 37.6229 78.7781 37.4085 73.955C37.1941 69.1318 37.0869 64.4159 36.8725 59.5927C36.7654 55.4126 36.551 51.2326 36.4438 47.0525C36.4438 46.4094 36.4438 45.8735 36.3366 45.2304C36.3366 44.9089 36.2294 44.8017 36.2294 44.6945ZM59.4892 6.43087C48.1273 6.43087 34.7288 6.43087 23.3669 6.43087C23.3669 9.96784 23.3669 17.7921 23.3669 21.329C34.7288 21.329 48.1273 21.329 59.4892 21.329C59.4892 17.6849 59.4892 9.96784 59.4892 6.43087ZM61.6329 31.94C50.271 31.94 34.7288 31.94 23.3669 31.94C23.3669 33.3333 23.3669 39.0139 23.3669 40.4073C34.7288 40.4073 50.271 40.4073 61.6329 40.4073C61.6329 39.0139 61.6329 33.3333 61.6329 31.94ZM5.57367 91.4255C6.00242 91.4255 6.43117 91.4255 6.85992 91.4255C7.0743 91.4255 8.25337 91.3183 8.46774 91.104C9.754 88.746 12.0049 84.3515 13.2912 82.1007C17.4715 74.3837 21.6519 66.7738 25.725 59.0568C28.6191 53.8049 31.406 48.5531 34.3 43.3012C34.4072 43.0868 34.6216 42.7653 34.7288 42.4437C33.5497 42.4437 30.3341 42.4437 29.2622 42.4437C29.0478 42.4437 26.6897 42.5509 26.5825 42.7653C18.9722 58.1994 9.86118 75.6699 2.14366 91.104C2.03647 91.2111 5.68086 91.3183 5.57367 91.4255ZM79.4261 91.4255C79.4261 91.3183 82.5346 91.2111 82.5346 91.104C75.9961 78.0279 68.3858 62.8081 61.8473 49.732C60.6683 47.4812 59.5964 45.1233 58.4173 42.8725C58.3101 42.7653 58.2029 42.6581 58.0957 42.6581C56.9167 42.6581 51.5573 42.6581 50.271 42.6581C50.3782 42.8725 50.3782 42.9796 50.4854 43.0868C52.8435 47.3741 55.0945 51.6613 57.4526 55.9486C61.4186 63.3441 65.4917 70.7395 69.4577 78.135C71.4942 81.8864 73.5308 85.5305 75.4602 89.2819C75.5674 89.3891 76.7464 91.6399 76.8536 91.6399C77.3896 91.4255 78.9974 91.4255 79.4261 91.4255ZM38.266 42.5509C38.9091 60.2358 39.5522 80.0643 40.3025 97.7492H44.6973C45.3404 80.0643 45.9835 60.2358 46.7338 42.5509C45.3404 42.5509 39.6594 42.5509 38.266 42.5509ZM50.6998 23.3655C45.2332 23.3655 39.8738 23.3655 34.4072 23.3655C35.0503 26.3666 37.9444 29.4748 42.1247 29.6892C46.7338 30.0107 49.9495 26.5809 50.6998 23.3655ZM61.6329 2.14362C61.6329 8.57449 61.6329 19.1854 61.6329 25.5091C62.3833 25.5091 67.3139 25.5091 68.0642 25.5091C68.0642 19.0782 68.0642 8.46731 68.0642 2.14362C67.3139 2.14362 62.3833 2.14362 61.6329 2.14362Z" fill="#80CF00" stroke="#80CF00"/>
</g>
<defs>
<clipPath id="clip0">
<rect width="85" height="100" fill="white"/>
</clipPath>
</defs>
</svg>
