<svg width="30" height="30" viewBox="0 0 30 30" fill="none" xmlns="http://www.w3.org/2000/svg">
<g clip-path="url(#clip0)">
<path d="M25.5002 20.1L25.2001 19.6C24.6001 18.7 23.9002 17.8 23.1002 17L22.1002 16.1C22.0002 16 22.0002 15.9 22.1002 15.8L23.5002 13.9C23.7002 13.6 23.9002 13.3 24.0002 13L25.2001 10.8C25.4001 10.4 25.4001 9.99998 25.2001 9.59998C25.0001 9.19998 24.6001 9 24.2001 9H21.7001C21.2001 9 20.7002 9.30005 20.5002 9.80005L20.2001 10.4C19.5001 11.9 18.6002 13.4 17.4002 14.6V10.2C17.4002 9.59995 16.9001 9 16.2001 9H12.6002C12.0002 9 11.5002 9.49998 11.5002 10.1C11.5002 10.3 11.6001 10.5 11.7001 10.7L11.9002 11C12.1002 11.3 12.3002 11.7 12.3002 12.2V15.4C11.9002 14.9 11.3002 14.2 10.9002 13.4C10.2002 12.2 9.70018 10.8 9.50018 10C9.30018 9.4 8.70015 9 8.10015 9H5.60015C5.20015 9 4.90013 9.2 4.70013 9.5C4.50013 9.8 4.40018 10.1 4.50018 10.5L5.00018 12.2C5.30018 13.2 5.70013 14.2 6.20013 15.2C6.40013 15.5 6.70018 15.6 7.00018 15.4C7.30018 15.2 7.40013 14.9 7.20013 14.6C6.70013 13.7 6.40015 12.8 6.10015 11.8L5.60015 10.2H8.10015C8.20015 10.2 8.4002 10.3 8.4002 10.4C8.6002 11.2 9.2002 12.7 9.9002 14C10.5002 15.1 11.3002 16 11.8002 16.5C12.1002 16.8 12.5002 16.9 12.9002 16.8C13.3002 16.6 13.5002 16.3 13.5002 15.9V12.2C13.5002 11.5 13.3002 10.9 12.9002 10.4L12.8002 10.2H16.1002V14.9C16.1002 15.2 16.3002 15.6 16.6002 15.7C16.9002 15.9 17.2002 15.9 17.6002 15.8L17.8002 15.7C17.9002 15.6 18.0002 15.6 18.1002 15.5C19.4002 14.1 20.4002 12.6 21.1002 10.9L21.4002 10.3C21.4002 10.2 21.5002 10.2 21.5002 10.2H24.0002L22.8002 12.4C22.7002 12.7 22.5002 12.9 22.3002 13.2L20.9002 15.1C20.5002 15.7 20.6002 16.5 21.1002 17L22.1002 17.9C22.8002 18.6 23.5002 19.4 24.0002 20.2L24.3002 20.7C24.3002 20.7 24.3002 20.7 24.3002 20.8C24.3002 20.9 24.2001 20.8 24.2001 20.8H22.0002C21.7002 20.8 21.5002 20.7 21.3002 20.5L19.1002 18.3C18.6002 17.8 17.9001 17.4 17.2001 17.3C16.9001 17.2 16.5002 17.3 16.3002 17.5C16.0002 17.7 15.9002 18 15.9002 18.3V20.5C15.9002 20.7 15.7002 20.8 15.6002 20.8C13.9002 20.8 12.3002 20.2 10.9002 19.2C10.4002 18.8 9.9002 18.3 9.4002 17.9C9.2002 17.7 8.80015 17.7 8.60015 17.9C8.40015 18.1 8.40015 18.5 8.60015 18.7C9.10015 19.2 9.70013 19.7 10.2001 20.2C11.7001 21.4 13.6002 22 15.6002 22C16.4002 22 17.1002 21.3 17.1002 20.5V18.4C17.5002 18.5 17.9002 18.8 18.3002 19.1L20.5002 21.3C20.9002 21.7 21.5002 22 22.1002 22H24.3002C24.8002 22 25.2002 21.8 25.4002 21.4C25.7002 21 25.7002 20.5 25.5002 20.1Z" fill="white"/>
<path d="M8.19994 16.3C7.99994 16 7.60002 15.9999 7.40002 16.1999C7.10002 16.3999 7.10004 16.7999 7.30004 16.9999L7.80004 16.6999L7.30004 16.9999C7.40004 17.1999 7.60004 17.1999 7.80004 17.1999C7.90004 17.1999 7.99997 17.1999 8.09997 17.0999C8.29997 16.8999 8.39994 16.5 8.19994 16.3Z" fill="white"/>
<path d="M12.0001 26H7.20007C6.90007 26 6.6001 26.3 6.6001 26.6C6.6001 26.9 6.90007 27.2 7.20007 27.2H12.0001C12.3001 27.2 12.6001 26.9 12.6001 26.6C12.6001 26.3 12.3001 26 12.0001 26Z" fill="white"/>
<path d="M14.7001 26C14.4001 26 14.1001 26.3 14.1001 26.6C14.1001 26.9 14.4001 27.2 14.7001 27.2C15.0001 27.2 15.3002 26.9 15.3002 26.6C15.3002 26.3 15.0001 26 14.7001 26Z" fill="white"/>
<path d="M26.0999 0H3.79993C1.69993 0 -0.100098 1.70002 -0.100098 3.90002V26.2C-0.100098 28.3 1.59993 30.1 3.79993 30.1H26.0999C28.1999 30.1 29.9999 28.4 29.9999 26.2V3.90002C29.9999 1.70002 28.2999 0 26.0999 0ZM28.7999 26.1C28.7999 27.6 27.5999 28.8 26.0999 28.8H3.79993C2.29993 28.8 1.09985 27.6 1.09985 26.1V3.80005C1.09985 2.30005 2.29993 1.09998 3.79993 1.09998H26.0999C27.5999 1.09998 28.7999 2.30005 28.7999 3.80005V26.1Z" fill="white"/>
</g>
<defs>
<clipPath id="clip0">
<rect width="30" height="30" fill="white"/>
</clipPath>
</defs>
</svg>
