<svg width="30" height="30" viewBox="0 0 30 30" fill="none" xmlns="http://www.w3.org/2000/svg">
<path d="M21.2109 0H8.78906C3.94277 0 0 3.94277 0 8.78906V21.2109C0 26.0572 3.94277 30 8.78906 30H21.2109C26.0572 30 30 26.0572 30 21.2109V8.78906C30 3.94277 26.0572 0 21.2109 0ZM28.8281 21.2109C28.8281 25.4111 25.4111 28.8281 21.2109 28.8281H8.78906C4.58895 28.8281 1.17188 25.4111 1.17188 21.2109V8.78906C1.17188 4.58895 4.58895 1.17188 8.78906 1.17188H21.2109C25.4111 1.17188 28.8281 4.58895 28.8281 8.78906V21.2109Z" fill="white"/>
<path d="M3.99991 9.86657C5.46657 13.5332 6.52037 15.8359 9.30704 18.737C11.8627 21.3982 13.5699 21.5398 14.9999 21.5999M3.99991 9.86657L4.46434 9.68137C4.4682 9.69105 4.4692 9.6969 4.46948 9.69889C4.4698 9.70115 4.46974 9.70239 4.46967 9.70319C4.46949 9.7052 4.46837 9.71041 4.4646 9.71573C4.46416 9.71636 4.46377 9.71686 4.46345 9.71724M3.99991 9.86657L4.46414 9.68087C4.4679 9.69026 4.47165 9.69963 4.4754 9.709M3.99991 9.86657C3.90604 9.63117 3.99991 9.16404 4.73324 9.16404C5.09399 9.16404 5.44163 9.1566 5.79522 9.14903C6.16114 9.1412 6.53344 9.13324 6.93324 9.13324C7.02528 9.13324 7.10825 9.13119 7.18412 9.12932C7.71273 9.11629 7.89649 9.11177 8.39991 9.86657C8.83762 10.5231 9.27532 11.245 9.69354 11.9347C10.6767 13.5561 11.5521 14.9999 12.0666 14.9999L7.98388 10.1439C7.6964 9.7129 7.58954 9.65904 7.55155 9.64492C7.52979 9.63684 7.4907 9.6275 7.38564 9.62641C7.33265 9.62586 7.27338 9.62727 7.19551 9.62919L7.19457 9.62922C7.11951 9.63107 7.03144 9.63324 6.93324 9.63324C6.54624 9.63324 6.18478 9.64081 5.82441 9.64852L5.80382 9.64896C5.45167 9.6565 5.0994 9.66404 4.73324 9.66404C4.60158 9.66404 4.52825 9.68514 4.49351 9.70008C4.48586 9.70336 4.47993 9.70639 4.4754 9.709M4.46345 9.71724C4.46276 9.71789 4.46247 9.71824 4.4625 9.71826C4.46253 9.71827 4.46288 9.71795 4.46345 9.71724ZM4.46345 9.71724C4.46503 9.71579 4.46867 9.71286 4.4754 9.709M4.4754 9.709C5.92814 13.3391 6.95486 15.5665 9.66763 18.3906L9.66768 18.3906C10.9101 19.6844 11.9194 20.3378 12.7637 20.6806C13.6055 21.0224 14.3182 21.0708 15.0209 21.1003M15.0209 21.1003C15.0209 21.1003 15.0209 21.1003 15.0209 21.1003L14.9999 21.5999M15.0209 21.1003C15.1877 21.1074 15.1906 21.1072 15.202 21.1064C15.2037 21.1063 15.2055 21.1062 15.2081 21.1061C15.2638 21.1038 15.3632 21.0999 15.7332 21.0999C15.7792 21.0999 15.7891 21.0897 15.7988 21.0798L15.7997 21.0788C15.8235 21.0545 15.8612 20.9961 15.8948 20.8808C15.9635 20.6443 15.9666 20.3481 15.9666 20.1332C15.9666 19.604 16.2262 19.1165 16.5714 18.7713C16.9165 18.4262 17.404 18.1666 17.9332 18.1666C18.2452 18.1666 18.5521 18.2949 18.8136 18.442C19.0856 18.595 19.3666 18.8022 19.6397 19.0275C20.1821 19.475 20.7458 20.0387 21.2114 20.5042L21.2201 20.513C21.4072 20.7001 21.534 20.8266 21.6365 20.9189C21.7379 21.0102 21.7907 21.0446 21.8235 21.061C21.8793 21.0889 21.9286 21.0999 22.3332 21.0999H22.3375H22.3419H22.3462H22.3506H22.3549H22.3593H22.3637H22.3681H22.3726H22.377H22.3815H22.386H22.3905H22.395H22.3995H22.4041H22.4086H22.4132H22.4178H22.4224H22.427H22.4317H22.4363H22.441H22.4457H22.4503H22.455H22.4598H22.4645H22.4693H22.474H22.4788H22.4836H22.4884H22.4932H22.498H22.5029H22.5077H22.5126H22.5175H22.5224H22.5273H22.5322H22.5372H22.5421H22.5471H22.552H22.557H22.562H22.567H22.572H22.5771H22.5821H22.5872H22.5922H22.5973H22.6024H22.6075H22.6126H22.6177H22.6229H22.628H22.6332H22.6383H22.6435H22.6487H22.6539H22.6591H22.6643H22.6695H22.6748H22.68H22.6853H22.6905H22.6958H22.7011H22.7064H22.7117H22.717H22.7223H22.7276H22.733H22.7383H22.7437H22.749H22.7544H22.7598H22.7652H22.7706H22.776H22.7814H22.7868H22.7922H22.7977H22.8031H22.8086H22.814H22.8195H22.825H22.8305H22.8359H22.8414H22.8469H22.8524H22.858H22.8635H22.869H22.8745H22.8801H22.8856H22.8912H22.8967H22.9023H22.9079H22.9134H22.919H22.9246H22.9302H22.9358H22.9414H22.947H22.9526H22.9582H22.9638H22.9695H22.9751H22.9807H22.9864H22.992H22.9977H23.0033H23.009H23.0146H23.0203H23.0259H23.0316H23.0373H23.043H23.0486H23.0543H23.06H23.0657H23.0714H23.0771H23.0828H23.0885H23.0942H23.0999H23.1056H23.1113H23.117H23.1227H23.1284H23.1341H23.1398H23.1456H23.1513H23.157H23.1627H23.1684H23.1742H23.1799H23.1856H23.1913H23.1971H23.2028H23.2085H23.2143H23.22H23.2257H23.2314H23.2372H23.2429H23.2486H23.2544H23.2601H23.2658H23.2715H23.2773H23.283H23.2887H23.2944H23.3002H23.3059H23.3116H23.3173H23.323H23.3288H23.3345H23.3402H23.3459H23.3516H23.3573H23.363H23.3687H23.3744H23.3801H23.3858H23.3915H23.3972H23.4029H23.4085H23.4142H23.4199H23.4256H23.4312H23.4369H23.4426H23.4482H23.4539H23.4595H23.4652H23.4708H23.4765H23.4821H23.4877H23.4934H23.499H23.5046H23.5102H23.5158H23.5214H23.527H23.5326H23.5382H23.5438H23.5493H23.5549H23.5605H23.566H23.5716H23.5771H23.5827H23.5882H23.5937H23.5993H23.6048H23.6103H23.6158H23.6213H23.6268H23.6323H23.6377H23.6432H23.6487H23.6541H23.6596H23.665H23.6704H23.6759H23.6813H23.6867H23.6921H23.6975H23.7029H23.7082H23.7136H23.719H23.7243H23.7297H23.735H23.7403H23.7456H23.7509H23.7562H23.7615H23.7668H23.7721H23.7773H23.7826H23.7878H23.793H23.7983H23.8035H23.8087H23.8139H23.819H23.8242H23.8294H23.8345H23.8396H23.8448H23.8499H23.855H23.8601H23.8652H23.8702H23.8753H23.8803H23.8854H23.8904H23.8954H23.9004H23.9054H23.9104H23.9153H23.9203H23.9252H23.9301H23.935H23.9399H23.9448H23.9497H23.9546H23.9594H23.9643H23.9691H23.9739H23.9787H23.9835H23.9882H23.993H23.9977H24.0024H24.0072H24.0119H24.0165H24.0212H24.0259H24.0305H24.0351H24.0397H24.0443H24.0489H24.0535H24.058H24.0626H24.0671H24.0716H24.0761H24.0806H24.085H24.0895H24.0939H24.0983H24.1027H24.1071H24.1114H24.1158H24.1201H24.1244H24.1287H24.133H24.1372H24.1415H24.1457H24.1499H24.1541H24.1583H24.1624H24.1666H24.1707H24.1748H24.1789H24.1829H24.187H24.191H24.195H24.199H24.203H24.207H24.2109H24.2148H24.2187H24.2226H24.2265H24.2303H24.2341H24.2379H24.2417H24.2455H24.2492H24.253H24.2567H24.2604H24.264H24.2677H24.2713H24.2749H24.2785H24.282H24.2856H24.2891H24.2926H24.2961H24.2996H24.303H24.3064H24.3098H24.3132H24.3165H24.3199H24.3232H24.3265H24.3297H24.333H24.3362H24.3394H24.3426H24.3457H24.3489H24.352H24.355H24.3581H24.3612H24.3642H24.3672H24.3701H24.3731H24.376H24.3789H24.3818H24.3846H24.3875H24.3903H24.3931H24.3958H24.3985H24.4013H24.4039H24.4066H24.4092H24.4118H24.4144H24.417H24.4195H24.422H24.4245H24.427H24.4294H24.4318H24.4342H24.4366H24.4389H24.4412H24.4435H24.4457H24.448H24.4502H24.4523H24.4545H24.4566H24.4587H24.4608H24.4628H24.4648H24.4668H24.4688H24.4707H24.4726H24.4745H24.4764H24.4782H24.48H24.4817H24.4835H24.4852H24.4869H24.4885H24.4902H24.4918H24.4933H24.4949H24.4964H24.4979H24.4993H24.5007H24.5021H24.5035H24.5048H24.5062H24.5074H24.5087H24.5099H24.5111H24.5123H24.5134H24.5145H24.5156H24.5166H24.5176H24.5182C24.5237 21.0995 24.5322 21.0988 24.5432 21.0976C24.5706 21.0946 24.613 21.089 24.6651 21.0787C24.7716 21.0576 24.9068 21.0191 25.0362 20.9519C25.1645 20.8853 25.2762 20.7965 25.3564 20.6778C25.4337 20.5633 25.4999 20.3943 25.4999 20.1332C25.4999 20.0727 25.4595 19.8749 25.1324 19.4257C24.8177 18.9937 24.2896 18.3967 23.4464 17.5535C23.1474 17.2545 22.8845 17.0589 22.6545 16.8878C22.6256 16.8663 22.5972 16.8452 22.5693 16.8243C22.4499 16.7348 22.3188 16.6341 22.211 16.5228C22.0982 16.4063 21.9861 16.2536 21.9337 16.0508C21.8305 15.652 22.0087 15.2606 22.2277 14.8922C22.4627 14.4968 22.8492 13.9672 23.4 13.2332L23.4 13.2331C24.0693 12.3412 24.6394 11.5017 25.0185 10.8353C25.209 10.5006 25.343 10.224 25.4188 10.0147C25.4396 9.95728 25.4545 9.90898 25.4649 9.86917C25.383 9.83218 25.2706 9.78996 25.1289 9.74551C24.7768 9.63505 24.3041 9.52945 23.816 9.45662C23.3259 9.38352 22.8445 9.34707 22.4714 9.36487C22.2834 9.37384 22.1439 9.39574 22.0521 9.42318C22.0236 9.43169 22.0048 9.43915 21.9934 9.44434C20.566 11.5869 20.3018 12.1148 19.8562 13.0053L19.8471 13.0235C19.8471 13.0236 19.8471 13.0236 19.847 13.0237C19.6697 13.3784 19.5319 13.6895 19.4124 13.9627C19.4012 13.9884 19.39 14.0139 19.379 14.0392C19.2753 14.2767 19.1785 14.4986 19.0821 14.6822C18.9764 14.8837 18.8451 15.0924 18.6561 15.2482C18.4481 15.4197 18.2047 15.4999 17.9332 15.4999C17.5541 15.4999 17.2878 15.285 17.1253 15.0485C16.9721 14.8254 16.8839 14.5506 16.8284 14.2989C16.7158 13.7892 16.6999 13.1927 16.6999 12.7999C16.6999 12.2758 16.7161 11.7836 16.7307 11.3398C16.7332 11.2619 16.7357 11.1854 16.7381 11.1105C16.7542 10.6021 16.7631 10.1751 16.7409 9.81983C16.7183 9.45784 16.6656 9.22594 16.593 9.08313C16.5431 8.98505 16.4871 8.93127 16.3973 8.8999M15.0209 21.1003L14.9999 21.5999M14.9999 21.5999C15.1465 21.6061 15.1759 21.6073 15.2052 21.6066C15.2492 21.6055 15.2931 21.5999 15.7332 21.5999C16.4666 21.5999 16.4666 20.5432 16.4666 20.1332C16.4666 19.3999 17.1999 18.6666 17.9332 18.6666C18.6666 18.6666 19.9242 19.9242 20.8666 20.8666C21.2883 21.2883 21.4675 21.4675 21.6831 21.5436C21.8424 21.5999 22.0216 21.5999 22.3332 21.5999H24.5332L16.3973 8.8999M16.3973 8.8999H16.3962H16.3941H16.392H16.3899H16.3878H16.3857H16.3835H16.3813H16.3791H16.3768H16.3745H16.3722H16.3699H16.3675H16.3652H16.3628H16.3603H16.3579H16.3554H16.3529H16.3503H16.3478H16.3452H16.3426H16.3399H16.3373H16.3346H16.3319H16.3291H16.3264H16.3236H16.3208H16.318H16.3151H16.3122H16.3093H16.3064H16.3035H16.3005H16.2975H16.2945H16.2914H16.2884H16.2853H16.2822H16.2791H16.2759H16.2727H16.2695H16.2663H16.2631H16.2598H16.2565H16.2532H16.2499H16.2465H16.2431H16.2397H16.2363H16.2329H16.2294H16.2259H16.2224H16.2189H16.2154H16.2118H16.2082H16.2046H16.201H16.1974H16.1937H16.19H16.1863H16.1826H16.1788H16.1751H16.1713H16.1675H16.1636H16.1598H16.1559H16.1521H16.1482H16.1442H16.1403H16.1363H16.1324H16.1284H16.1244H16.1203H16.1163H16.1122H16.1081H16.104H16.0999H16.0958H16.0916H16.0874H16.0832H16.079H16.0748H16.0706H16.0663H16.062H16.0577H16.0534H16.0491H16.0448H16.0404H16.036H16.0316H16.0272H16.0228H16.0183H16.0139H16.0094H16.0049H16.0004H15.9959H15.9914H15.9868H15.9823H15.9777H15.9731H15.9685H15.9638H15.9592H15.9545H15.9499H15.9452H15.9405H15.9358H15.9311H15.9263H15.9216H15.9168H15.912H15.9072H15.9024H15.8976H15.8928H15.8879H15.883H15.8782H15.8733H15.8684H15.8635H15.8585H15.8536H15.8487H15.8437H15.8387H15.8337H15.8287H15.8237H15.8187H15.8137H15.8086H15.8036H15.7985H15.7934H15.7883H15.7832H15.7781H15.773H15.7678H15.7627H15.7575H15.7524H15.7472H15.742H15.7368H15.7316H15.7264H15.7211H15.7159H15.7107H15.7054H15.7001H15.6948H15.6896H15.6843H15.679H15.6736H15.6683H15.663H15.6576H15.6523H15.6469H15.6416H15.6362H15.6308H15.6254H15.62H15.6146H15.6092H15.6038H15.5983H15.5929H15.5875H15.582H15.5765H15.5711H15.5656H15.5601H15.5546H15.5491H15.5436H15.5381H15.5326H15.5271H15.5216H15.516H15.5105H15.5049H15.4994H15.4938H15.4883H15.4827H15.4771H15.4715H15.4659H15.4603H15.4547H15.4491H15.4435H15.4379H15.4323H15.4267H15.4211H15.4154H15.4098H15.4042H15.3985H15.3929H15.3872H15.3816H15.3759H15.3702H15.3646H15.3589H15.3532H15.3476H15.3419H15.3362H15.3305H15.3248H15.3191H15.3134H15.3077H15.302H15.2963H15.2906H15.2849H15.2792H15.2735H15.2678H15.2621H15.2564H15.2507H15.2449H15.2392H15.2335H15.2278H15.2221H15.2163H15.2106H15.2049H15.1992H15.1934H15.1877H15.182H15.1762H15.1705H15.1648H15.159H15.1533H15.1476H15.1419H15.1361H15.1304H15.1247H15.119H15.1132H15.1075H15.1018H15.0961H15.0903H15.0846H15.0789H15.0732H15.0675H15.0617H15.056H15.0503H15.0446H15.0389H15.0332H15.0275H15.0218H15.0161H15.0104H15.0047H14.999H14.9933H14.9876H14.982H14.9763H14.9706H14.9649H14.9593H14.9536H14.9479H14.9423H14.9366H14.931H14.9253H14.9197H14.9141H14.9084H14.9028H14.8972H14.8916H14.8859H14.8803H14.8747H14.8691H14.8635H14.8579H14.8524H14.8468H14.8412H14.8356H14.8301H14.8245H14.819H14.8134H14.8079H14.8023H14.7968H14.7913H14.7858H14.7803H14.7748H14.7693H14.7638H14.7583H14.7528H14.7474H14.7419H14.7365H14.731H14.7256H14.7202H14.7147H14.7093H14.7039H14.6985H14.6931H14.6877H14.6824H14.677H14.6717H14.6663H14.661H14.6556H14.6503H14.645H14.6397H14.6344H14.6291H14.6239H14.6186H14.6133H14.6081H14.6029H14.5976H14.5924H14.5872H14.582H14.5768H14.5717H14.5665H14.5613H14.5562H14.5511H14.5459H14.5408H14.5357H14.5306H14.5256H14.5205H14.5154H14.5104H14.5054H14.5003H14.4953H14.4903H14.4854H14.4804H14.4754H14.4705H14.4656H14.4606H14.4557H14.4508H14.4459H14.4411H14.4362H14.4314H14.4265H14.4217H14.4169H14.4121H14.4074H14.4026H14.3978H14.3931H14.3884H14.3837H14.379H14.3743H14.3696H14.365H14.3604H14.3557H14.3511H14.3465H14.342H14.3374H14.3329H14.3283H14.3238H14.3193H14.3148H14.3104H14.3059H14.3015H14.2971H14.2927H14.2883H14.2839H14.2795H14.2752H14.2709H14.2666C13.7743 8.8999 13.298 9.05444 12.9311 9.22157C12.7625 9.29838 12.623 9.3751 12.5233 9.43439C12.6683 9.48601 12.8166 9.56597 12.9469 9.69048C13.1852 9.91815 13.2999 10.233 13.2999 10.5999V10.6042V10.6085V10.6128V10.6171V10.6214V10.6257V10.63V10.6343V10.6386V10.6429V10.6472V10.6515V10.6557V10.66V10.6643V10.6686V10.6729V10.6772V10.6815V10.6858V10.6901V10.6944V10.6987V10.703V10.7072V10.7115V10.7158V10.7201V10.7244V10.7287V10.7329V10.7372V10.7415V10.7458V10.7501V10.7543V10.7586V10.7629V10.7672V10.7714V10.7757V10.78V10.7842V10.7885V10.7928V10.797V10.8013V10.8055V10.8098V10.8141V10.8183V10.8226V10.8268V10.8311V10.8353V10.8396V10.8438V10.8481V10.8523V10.8565V10.8608V10.865V10.8692V10.8735V10.8777V10.8819V10.8861V10.8904V10.8946V10.8988V10.903V10.9072V10.9114V10.9157V10.9199V10.9241V10.9283V10.9325V10.9367V10.9409V10.945V10.9492V10.9534V10.9576V10.9618V10.966V10.9701V10.9743V10.9785V10.9826V10.9868V10.991V10.9951V10.9993V11.0034V11.0076V11.0117V11.0159V11.02V11.0241V11.0283V11.0324V11.0365V11.0406V11.0447V11.0489V11.053V11.0571V11.0612V11.0653V11.0694V11.0735V11.0776V11.0817V11.0857V11.0898V11.0939V11.098V11.102V11.1061V11.1101V11.1142V11.1183V11.1223V11.1263V11.1304V11.1344V11.1384V11.1425V11.1465V11.1505V11.1545V11.1585V11.1625V11.1665V11.1705V11.1745V11.1785V11.1825V11.1865V11.1904V11.1944V11.1984V11.2023V11.2063V11.2102V11.2142V11.2181V11.2221V11.226V11.2299V11.2338V11.2378V11.2417V11.2456V11.2495V11.2534V11.2573V11.2611V11.265V11.2689V11.2728V11.2766V11.2805V11.2843V11.2882V11.292V11.2959V11.2997V11.3035V11.3073V11.3112V11.315V11.3188V11.3226V11.3264V11.3302V11.3339V11.3377V11.3415V11.3452V11.349V11.3527V11.3565V11.3602V11.364V11.3677V11.3714V11.3751V11.3788V11.3825V11.3862V11.3899V11.3936V11.3973V11.401V11.4046V11.4083V11.4119V11.4156V11.4192V11.4228V11.4265V11.4301V11.4337V11.4373V11.4409V11.4445V11.4481V11.4516V11.4552V11.4588V11.4623V11.4659V11.4694V11.473V11.4765V11.48V11.4835V11.487V11.4905V11.494V11.4975V11.501V11.5045V11.5079V11.5114V11.5148V11.5183V11.5217V11.5251V11.5286V11.532V11.5354V11.5388V11.5421V11.5455V11.5489V11.5523V11.5556V11.559V11.5623V11.5656V11.569V11.5723V11.5756V11.5789V11.5822V11.5855V11.5887V11.592V11.5953V11.5985V11.6018V11.605V11.6082V11.6115V11.6147V11.6179V11.6211V11.6242V11.6274V11.6306V11.6337V11.6369V11.64V11.6432V11.6463V11.6494V11.6525V11.6556V11.6587V11.6618V11.6649V11.6679V11.671V11.674V11.677V11.6801V11.6831V11.6861V11.6891V11.6921V11.6951V11.698V11.701V11.7039V11.7069V11.7098V11.7127V11.7157V11.7186V11.7215V11.7243V11.7272V11.7301V11.7329V11.7358V11.7386V11.7414V11.7443V11.7471V11.7499V11.7527V11.7554V11.7582V11.761V11.7637V11.7664V11.7692V11.7719V11.7746V11.7773V11.78V11.7826V11.7853V11.788V11.7906V11.7932V11.7959V11.7985V11.8011V11.8037V11.8063V11.8088V11.8114V11.8139V11.8165V11.819V11.8215V11.824V11.8265V11.829V11.8315V11.8339V11.8364V11.8388V11.8413V11.8437V11.8461V11.8485V11.8509V11.8532V11.8556V11.858V11.8603V11.8626V11.8649V11.8673V11.8695V11.8718V11.8741V11.8764V11.8786V11.8809V11.8831V11.8853V11.8875V11.8897V11.8919V11.894V11.8962V11.8983V11.9005V11.9026V11.9047V11.9068V11.9089V11.9109V11.913V11.915V11.9171V11.9191V11.9211V11.9231V11.9251V11.9271V11.929V11.931V11.9329V11.9348V11.9367V11.9386V11.9405V11.9424V11.9443V11.9461V11.9479V11.9498V11.9516V11.9534V11.9552V11.9569V11.9587V11.9604V11.9622V11.9639V11.9656V11.9673V11.969V11.9706V11.9723V11.9739V11.9756V11.9772V11.9788V11.9804V11.9819V11.9835V11.9851V11.9866V11.9881V11.9896V11.9911V11.9926V11.9941V11.9955V11.997V11.9984V11.9998V12.0012V12.0026V12.0039V12.0053V12.0066V12.008V12.0093V12.0106V12.0119V12.0132V12.0144V12.0157V12.0169V12.0181V12.0193V12.0205V12.0217V12.0228V12.024V12.0251V12.0262V12.0273V12.0284V12.0295V12.0305V12.0316V12.0326V12.0336V12.0346V12.0356V12.0366V12.0375V12.0385V12.0394V12.0403V12.0412V12.0421V12.043V12.0438V12.0446V12.0455V12.0463V12.0471V12.0478V12.0486V12.0493V12.0501V12.0508V12.0515V12.0522V12.0528V12.0535V12.0541V12.0548V12.0554V12.0559V12.0565V12.0571V12.0576V12.0582V12.0587V12.0592V12.0596V12.0601V12.0606V12.061V12.0614V12.0618V12.0622V12.0626V12.0629V12.0633V12.0636V12.0639V12.0642V12.0644V12.0647V12.0649V12.0652V12.0654V12.0656L13.2999 12.0656L13.2999 12.0657L13.2999 12.0658L13.2999 12.0659V12.066V12.0662V12.0663V12.0664V12.0664V12.0665V12.0665V12.0665V12.0666L13.2999 12.0686L13.2999 12.0759L13.2998 12.1026C13.2996 12.1256 13.2993 12.1587 13.2987 12.2005C13.2974 12.2841 13.2946 12.4027 13.289 12.5448C13.2777 12.8277 13.2547 13.2093 13.2069 13.5947C13.1601 13.9725 13.0859 14.3863 12.9613 14.7176C12.8996 14.8817 12.8132 15.0596 12.6858 15.2043C12.5524 15.3557 12.3451 15.4999 12.0666 15.4999C11.8155 15.4999 11.6057 15.3794 11.4594 15.2702C11.3039 15.154 11.1532 14.9996 11.0099 14.8314C10.7225 14.494 10.4091 14.0338 10.0864 13.5267C9.8141 13.0988 9.53661 12.6408 9.25344 12.1735C8.8427 11.4957 8.42002 10.7981 7.98394 10.144L16.3973 8.8999Z" stroke="white"/>
</svg>
