<svg width="81" height="81" viewBox="0 0 81 81" fill="none" xmlns="http://www.w3.org/2000/svg">
<path d="M67.0823 20.1601C66.7939 19.0795 66.2084 17.9281 65.7753 16.92C60.5923 4.46399 49.2675 0 40.1234 0C27.8822 0 14.4001 8.20821 12.6001 25.1273V28.5839C12.6001 28.7282 12.6498 30.024 12.7204 30.6722C13.7295 38.7354 20.0919 47.3048 24.8437 55.368C29.9559 64.0069 35.2605 72.5052 40.516 80.9998C43.7567 75.4564 46.9856 69.84 50.1525 64.4401C51.0156 62.8553 52.0174 61.2716 52.8815 59.759C53.4573 58.7518 54.5575 57.7447 55.0602 56.8076C60.1722 47.4481 68.4005 38.0164 68.4005 28.728V24.9122C68.4007 23.9052 67.1525 20.3772 67.0823 20.1601ZM40.3475 37.5125C36.7492 37.5125 32.8106 35.7132 30.8666 30.7443C30.577 29.9534 30.6003 28.3683 30.6003 28.2231V25.9911C30.6003 19.6567 35.9788 16.7761 40.6578 16.7761C46.4182 16.7761 50.8734 21.3847 50.8734 27.1451C50.8734 32.9053 46.1079 37.5125 40.3475 37.5125Z" fill="#80CF00"/>
</svg>
