<svg width="207" height="67" viewBox="0 0 207 67" fill="none" xmlns="http://www.w3.org/2000/svg">
<g clip-path="url(#clip0)">
<path d="M34.9134 67L0.434235 61.0435L2.1278 49.1739L31.7869 45.5217L34.9134 67Z" fill="#80CF00"/>
<path d="M22.3637 10.8261C22.494 11.3043 22.5808 11.7826 22.5808 12.2609C22.8414 12.2609 23.1454 12.2609 23.4493 12.2609C23.4059 10.4348 22.7545 8.86957 21.4084 7.6087C21.1912 7.43478 21.1478 7.21739 21.1478 6.95652C21.1478 5.30435 21.1478 3.65217 21.1478 2C21.1478 0.782609 20.3662 0 19.1069 0C17.7173 0 16.3277 0 14.9381 0C13.7656 0 12.984 0.782609 12.984 1.95652C12.984 3.65217 12.984 5.34783 12.984 7.04348C12.984 7.26087 12.8971 7.43478 12.7234 7.6087C11.3773 8.86957 10.6825 10.3913 10.6825 12.2174C10.6825 12.3913 10.6825 12.5652 10.6825 12.7826C11.0299 12.7826 11.3338 12.7826 11.551 12.7826C11.551 12.5652 11.551 12.3913 11.551 12.2174C11.551 9.82609 13.1577 7.78261 15.4158 7.08696C15.6329 7 15.85 7 16.0671 7.08696C16.7185 7.34783 17.4133 7.34783 18.0647 7.08696C18.2818 7 18.4555 7 18.6726 7.04348C20.5399 7.69565 21.7558 8.91304 22.3637 10.8261ZM17.0659 6.3913C16.0237 6.3913 15.1118 5.47826 15.1118 4.43478C15.1118 3.3913 15.9803 2.52174 17.0659 2.52174C18.1515 2.52174 18.9766 3.3913 18.9766 4.43478C18.9766 5.47826 18.0647 6.3913 17.0659 6.3913ZM19.9319 6.6087C19.7148 6.47826 19.4108 6.47826 19.324 6.30435C19.1937 6.08696 19.4977 5.91304 19.5845 5.69565C20.149 4.47826 19.8451 3 18.8029 2.17391C17.7607 1.34783 16.2408 1.3913 15.1986 2.26087C14.1999 3.04348 13.9393 4.56522 14.5038 5.73913C14.8078 6.30435 14.8078 6.30435 14.1999 6.6087C14.113 6.65217 14.0262 6.69565 13.8525 6.73913C13.8525 5.04348 13.8525 3.43478 13.8525 1.82609C13.8959 1.30435 14.3301 0.913043 14.8947 0.869565C16.3277 0.869565 17.7607 0.869565 19.2371 0.869565C19.8885 0.869565 20.2793 1.30435 20.2793 1.95652C20.2793 3.43478 20.2793 4.91304 20.2793 6.3913C20.2359 6.65217 20.2359 6.78261 19.9319 6.6087Z" fill="white"/>
<path d="M33.8275 51.1739C33.6538 51.1304 33.4801 51.1304 33.3064 51.1304C31.3089 51.1304 29.3114 51.1304 27.3138 51.1304C26.9664 51.1304 26.8362 51 26.7493 50.7391C26.5322 49.913 26.2716 49.087 26.0111 48.2174C25.9242 47.9565 25.794 47.7826 25.49 47.7826C25.186 47.8261 25.0557 48.087 25.1426 48.5217C25.3597 49.3043 25.5768 50.0435 25.8374 50.8261C25.9242 51.0435 25.8808 51.1304 25.6203 51.1739C25.2729 51.1739 25.1426 51.087 25.0123 50.7826C23.4056 46.087 21.7555 41.3478 20.1053 36.6522C19.9751 36.2609 20.0619 36.1739 20.4527 36.2174C20.6698 36.2609 20.887 36.2609 21.1041 36.2174C21.4949 36.1304 21.5818 36.3478 21.6686 36.6956C21.8857 37.4783 22.1029 38.2174 22.32 39C22.4068 39.3043 22.5805 39.4783 22.8845 39.3913C23.1885 39.3043 23.2753 39.0435 23.1885 38.7391C23.1451 38.5652 23.1016 38.3913 23.0582 38.2174C22.6674 36.8696 22.1463 35.5652 22.32 34.1304C22.3634 33.8696 22.4068 33.7391 22.7108 33.7391C23.3188 33.7391 23.8833 33.7391 24.4912 33.7391C25.2294 33.7391 25.3163 33.6957 25.3163 32.9565C25.3163 32.6957 25.4031 32.6087 25.6637 32.6087C26.1848 32.6087 26.7059 32.6087 27.227 32.6087C28.052 32.5652 28.66 31.9565 28.7034 31.1304C28.7468 29.7826 28.7034 28.4348 28.7034 27.1304C28.7034 26.3478 28.0955 25.7391 27.3138 25.6956C26.8362 25.6522 26.3585 25.6522 25.8374 25.6956C25.4466 25.7391 25.3163 25.6087 25.3597 25.2174C25.4031 24.6956 25.2294 24.5652 24.7083 24.5652C24.4478 24.5652 24.1438 24.5652 23.8833 24.5652C23.5793 24.6087 23.4925 24.4783 23.4925 24.1739C23.4925 23.6087 23.4925 23.087 23.4925 22.5217C23.4925 22.2174 23.449 21.913 23.0148 21.913C22.624 21.913 22.5805 22.2174 22.5805 22.5217C22.5805 23.087 22.5805 23.6087 22.5805 24.1739C22.5805 24.4783 22.4937 24.5652 22.1897 24.5652C18.7592 24.5652 15.372 24.5652 11.9415 24.5652C11.6375 24.5652 11.5507 24.4783 11.5507 24.1739C11.5507 23.087 11.5507 22.4783 11.5507 20.6956C11.2901 20.6956 10.9427 20.6956 10.6822 20.6956C10.6822 22.2174 10.6822 22.6087 10.6822 23.5217C10.6822 24.5652 10.6822 24.5652 9.6834 24.5217C8.85833 24.5217 8.85833 24.5217 8.85833 25.3043C8.85833 25.6087 8.72806 25.6522 8.46751 25.6522C7.94641 25.6522 7.42532 25.6522 6.90422 25.6522C6.03573 25.6956 5.42778 26.3478 5.38436 27.2174C5.34093 28.4783 5.38436 29.7391 5.38436 31C5.42778 31.9565 5.9923 32.5652 6.94765 32.6087C7.38189 32.6522 7.81614 32.6522 8.20696 32.6087C8.64121 32.5652 8.77148 32.6956 8.77148 33.1304C8.72806 33.6522 8.81491 33.7391 9.336 33.7391C9.98737 33.7391 10.6822 33.7391 11.3335 33.7391C11.5072 33.7391 11.6809 33.6956 11.6809 33.9565C11.6375 34.6522 11.7678 35.3478 11.5941 36.0435C10.1611 40.9565 8.72806 45.8261 7.29504 50.7391C7.16477 51.1304 6.99107 51.2174 6.64367 51.2174C4.68956 51.2174 2.73545 51.2174 0.781338 51.2174C0.607639 51.2174 0.43394 51.2174 0.260241 51.2609C0.0431177 51.3043 -0.0437317 51.4783 -0.0437317 51.6522C-0.0437317 51.8696 0.0431177 52.0435 0.260241 52.087C0.390515 52.1304 0.564214 52.1304 0.694488 52.1304C6.12258 52.1304 11.5507 52.1304 16.9788 52.1304C22.4068 52.1304 27.8349 52.1304 33.263 52.1304C33.4367 52.1304 33.567 52.1304 33.7407 52.087C33.9578 52.0435 34.0012 51.913 34.0012 51.6956C34.0881 51.3913 34.0447 51.2174 33.8275 51.1739ZM25.6637 26.4348C26.1414 26.4348 26.5756 26.4348 27.0533 26.4348C27.531 26.4348 27.7915 26.6522 27.8349 27.1739C27.8783 27.8261 27.8349 28.4783 27.8349 29.1739C27.8349 29.1739 27.8349 29.1739 27.8783 29.1739C27.8783 29.7391 27.8783 30.2609 27.8783 30.8261C27.8783 31.3913 27.6178 31.6522 27.0533 31.6956C26.5756 31.6956 26.1414 31.6956 25.6637 31.6956C25.4466 31.6956 25.3597 31.6087 25.3597 31.3913C25.3597 29.8696 25.3597 28.3478 25.3597 26.7826C25.3163 26.5217 25.4031 26.4348 25.6637 26.4348ZM8.38066 31.6522C7.94641 31.6087 7.51217 31.6522 7.12134 31.6522C6.60025 31.6522 6.3397 31.3913 6.3397 30.8696C6.3397 29.7391 6.29628 28.5652 6.3397 27.4348C6.3397 26.6522 6.60025 26.4783 7.38189 26.4783C7.72929 26.4783 8.07669 26.5217 8.42409 26.4783C8.77148 26.4348 8.85833 26.6087 8.85833 26.913C8.85833 27.6522 8.85833 28.3478 8.85833 29.087C8.85833 29.8261 8.85833 30.5652 8.85833 31.3043C8.81491 31.5652 8.72806 31.6522 8.38066 31.6522ZM10.1611 32.7826C9.77025 32.7826 9.6834 32.6957 9.6834 32.3043C9.6834 30.1304 9.6834 27.9565 9.6834 25.7826C9.6834 25.4348 9.77025 25.3043 10.1611 25.3043C12.4626 25.3043 14.7641 25.3043 17.109 25.3043C19.4105 25.3043 21.6686 25.3043 23.9701 25.3043C24.3175 25.3043 24.4912 25.3478 24.4912 25.7826C24.4912 27.9565 24.4912 30.1304 24.4912 32.2609C24.4912 32.6087 24.4478 32.7826 24.0136 32.7826C19.3671 32.7826 14.7641 32.7826 10.1611 32.7826ZM8.29381 51.087C8.07669 51 8.20696 50.8261 8.25039 50.6956C8.59778 49.5217 8.90176 48.3478 9.24915 47.1739C10.2479 43.7391 11.2467 40.3043 12.2889 36.8261C12.5494 35.9565 12.3323 36.087 13.2877 36.087C14.0693 36.087 14.1127 36.087 13.8522 36.8696C12.2455 41.4783 10.6387 46.1304 9.03203 50.7391C8.94518 51.0435 8.55436 51.2174 8.29381 51.087ZM16.1537 51.1304C14.243 51.1304 12.2889 51.1304 10.3782 51.1304C10.0308 51.1304 9.90053 51.087 10.0308 50.6956C11.6809 46 13.2877 41.3043 14.9378 36.5652C15.0681 36.2609 15.1983 36.1304 15.5457 36.1304C16.6314 36.1304 16.6314 36.1304 16.6314 37.2609C16.6314 39.3913 16.6314 41.5217 16.6314 43.6087C16.6314 45.9565 16.6314 48.3043 16.6314 50.6522C16.6314 51 16.5011 51.1304 16.1537 51.1304ZM17.0222 35.2174C15.7194 35.2174 14.3733 35.2174 13.0705 35.2174C12.7231 35.2174 12.5929 35.1304 12.6363 34.7826C12.6797 34.5652 12.6797 34.3043 12.6363 34.087C12.5929 33.6956 12.7666 33.6522 13.0705 33.6522C15.7194 33.6522 18.4118 33.6522 21.0607 33.6522C21.3646 33.6522 21.4515 33.6957 21.4515 34.0435C21.4515 35.2174 21.4515 35.2174 20.279 35.2174C19.1934 35.2174 18.1078 35.2174 17.0222 35.2174ZM23.753 51.1304C21.7989 51.1304 19.8448 51.1304 17.9341 51.1304C17.5867 51.1304 17.4998 51.0435 17.4998 50.6956C17.4998 48.3478 17.4998 45.9565 17.4998 43.6087C17.4998 41.2609 17.4998 38.913 17.4998 36.5652C17.4998 36.2174 17.5867 36.1304 17.9341 36.1304C19.0631 36.1739 19.0631 36.1304 19.454 37.2174C21.0172 41.6956 22.5371 46.1739 24.1004 50.6522C24.2307 51 24.1873 51.1304 23.753 51.1304Z" fill="white"/>
<path d="M25.0126 44.6087C25.0126 44.913 24.9258 45.087 24.7087 45.1304C24.4481 45.2174 24.231 45.087 24.1876 44.8696C23.927 44.087 23.7099 43.2609 23.4928 42.4783C23.4493 42.2609 23.5362 42.087 23.7533 42C24.0139 41.913 24.231 42 24.3178 42.2174C24.535 43 24.7521 43.8261 25.0126 44.6087Z" fill="white"/>
<path d="M22.5808 20.6522C22.5808 20.4783 22.5808 20.3478 22.5808 20.1739C22.5808 19.9565 22.7111 19.8696 22.9717 19.8696C23.1888 19.8696 23.3625 19.9565 23.4059 20.1304C23.4493 20.4783 23.4493 20.8696 23.4059 21.2174C23.3625 21.3913 23.1888 21.4783 22.9717 21.4783C22.7545 21.4783 22.5808 21.3913 22.5808 21.1739C22.5808 21 22.5808 20.8261 22.5808 20.6522Z" fill="white"/>
<path d="M17.0659 31C15.4158 31 13.7222 31 12.0721 31C11.4641 31 11.3773 30.913 11.3773 30.3043C11.3773 29.4348 11.3773 28.6087 11.3773 27.7391C11.3773 27.1304 11.5076 27.0435 12.1155 27.0435C13.8525 27.0435 15.5461 27.0869 17.283 27.0869C18.8029 27.0869 20.3228 27.0869 21.8861 27.0435C22.0598 27.0435 22.19 27.0435 22.3637 27.0435C22.6243 27.0435 22.7546 27.1739 22.7546 27.4782C22.7546 28.4782 22.7546 29.5217 22.7546 30.5217C22.7546 30.9565 22.4506 31 22.1466 31C20.4096 31 18.7595 31 17.0659 31ZM17.0225 30.1304C17.7607 30.1304 18.4555 30.1304 19.1937 30.1304C19.3674 30.1304 19.4977 30.1304 19.4977 29.8695C19.4977 29.3478 19.4977 28.8261 19.4977 28.2608C19.4977 28.0435 19.4109 27.9565 19.1937 27.9565C17.7607 27.9565 16.3277 27.9565 14.8513 27.9565C14.5907 27.9565 14.5473 28.0869 14.5473 28.3043C14.5473 28.7826 14.5473 29.2608 14.5473 29.7391C14.5473 30.0435 14.6341 30.1739 14.9381 30.1304C15.6329 30.0869 16.3277 30.1304 17.0225 30.1304ZM20.4096 29.0435C20.4096 30.1739 20.4096 30.1739 21.5387 30.1304H21.5821C21.7558 30.1304 21.8426 30.0869 21.8426 29.8695C21.8426 29.3043 21.8426 28.7826 21.8426 28.2174C21.8426 28 21.7558 27.9565 21.5387 27.9565C20.4096 27.913 20.4096 27.913 20.4096 29.0435ZM13.6788 29.0435C13.7222 27.913 13.7222 27.913 12.5932 27.9565C12.5498 27.9565 12.5498 27.9565 12.5063 27.9565C12.3326 27.9565 12.2458 28.0435 12.2458 28.2174C12.2458 28.7826 12.2458 29.3478 12.2458 29.8695C12.2458 30 12.2458 30.0869 12.4195 30.0869C12.8103 30.0869 13.2446 30.1739 13.5919 30.0435C13.8091 29.9565 13.6354 29.5217 13.6788 29.2174C13.6788 29.1739 13.6788 29.1304 13.6788 29.0435Z" fill="white"/>
<path d="M17.1962 3.04349C17.8476 3.04349 18.4555 3.69566 18.4555 4.39131C18.4555 4.65218 18.3252 4.86957 18.0647 4.86957C17.8041 4.91305 17.6304 4.78262 17.587 4.52175C17.5436 4.17392 17.3699 3.95653 16.9791 3.91305C16.7185 3.86957 16.5882 3.65218 16.6317 3.39131C16.6751 3.17392 16.8488 3.04349 17.1962 3.04349Z" fill="white"/>
<path d="M22.7111 15C22.9717 14.7391 23.0585 14.3913 22.9283 14.087C22.8414 13.7391 22.5374 13.5217 22.19 13.4783L19.2372 13.0435C19.1937 13.0435 19.1069 13 19.1069 12.9565L17.8042 10.2174C17.6739 9.91305 17.3265 9.73914 17.0225 9.73914C16.7185 9.73914 16.3711 9.91305 16.2409 10.2174L14.8947 12.913C14.8513 12.9565 14.8078 13 14.7644 13L11.8115 13.4348C11.4641 13.4783 11.2036 13.7391 11.0733 14.0435C10.9865 14.3913 11.0733 14.7391 11.2904 14.9565L13.4617 17.0435C13.5051 17.087 13.5051 17.1304 13.5051 17.2174L12.984 20.1739C12.9406 20.5217 13.0709 20.8696 13.3314 21.0435C13.592 21.2609 13.9828 21.2609 14.2867 21.1304L16.9357 19.7391C16.9791 19.6957 17.0659 19.6957 17.1094 19.7391L19.7583 21.1304C19.8885 21.2174 20.0188 21.2174 20.1925 21.2174C20.3662 21.2174 20.5399 21.1739 20.7136 21.0435C20.9742 20.8261 21.1479 20.5217 21.061 20.1739L20.5399 17.2174C20.5399 17.1739 20.5399 17.087 20.5833 17.0435L22.7111 15ZM19.8017 17.3478L20.3228 20.3044C20.3228 20.3913 20.2794 20.4783 20.2359 20.4783C20.1925 20.4783 20.1491 20.5217 20.0622 20.4783L17.4133 19.1304C17.2831 19.0435 17.1528 19.0435 16.9791 19.0435C16.8054 19.0435 16.6751 19.087 16.5448 19.1304L13.8959 20.5217C13.8091 20.5652 13.7222 20.5217 13.7222 20.5217C13.7222 20.5217 13.6354 20.4348 13.6354 20.3478L14.1565 17.3913C14.1999 17.087 14.113 16.7826 13.8959 16.6087L11.7247 14.5217C11.6378 14.4348 11.6813 14.3913 11.6813 14.3478C11.6813 14.3044 11.7247 14.2609 11.8115 14.2174L14.7644 13.7826C15.0684 13.7391 15.3289 13.5652 15.4592 13.3044L16.8054 10.6087C16.8488 10.5217 16.9357 10.5217 16.9791 10.5217C17.0225 10.5217 17.1094 10.5217 17.1528 10.6087L18.4989 13.3044C18.6292 13.5652 18.8898 13.7391 19.1937 13.7826L22.1466 14.2174C22.2335 14.2174 22.2769 14.3044 22.2769 14.3478C22.2769 14.3913 22.3203 14.4783 22.2335 14.5217L20.0622 16.6087C19.8451 16.7826 19.7583 17.087 19.8017 17.3478Z" fill="white"/>
<path d="M21.1478 10.2174C20.9741 10.0869 20.757 10.1304 20.6267 10.3043L20.2359 10.8261C20.1056 11 20.1491 11.2174 20.3228 11.3478C20.3662 11.3913 20.453 11.4348 20.5399 11.4348C20.6702 11.4348 20.757 11.3913 20.8439 11.3043L21.2347 10.7826C21.3649 10.5652 21.3215 10.3478 21.1478 10.2174Z" fill="white"/>
<path d="M13.6788 10.8261L13.2879 10.3043C13.1577 10.1304 12.9405 10.0869 12.7668 10.2174C12.5931 10.3478 12.5497 10.5652 12.68 10.7391L13.0708 11.2609C13.1577 11.3478 13.2445 11.3913 13.3748 11.3913C13.4616 11.3913 13.5051 11.3478 13.5919 11.3043C13.7656 11.2174 13.809 11 13.6788 10.8261Z" fill="white"/>
<path d="M11.5075 17.7826C11.4641 17.6087 11.247 17.4783 11.0733 17.5652L10.4219 17.7391C10.2482 17.7826 10.1179 18 10.2048 18.1739C10.2482 18.3043 10.3785 18.4348 10.5522 18.4348C10.5956 18.4348 10.639 18.4348 10.6825 18.4348L11.2904 18.2174C11.4641 18.1739 11.551 17.9565 11.5075 17.7826Z" fill="white"/>
<path d="M16.979 21.7391C16.7619 21.7391 16.6317 21.913 16.6317 22.087V22.7391C16.6317 22.9565 16.8054 23.087 16.979 23.087C17.1962 23.087 17.3264 22.913 17.3264 22.7391V22.087C17.3264 21.913 17.1962 21.7391 16.979 21.7391Z" fill="white"/>
<path d="M23.5362 17.7392L22.9283 17.5218C22.7546 17.4783 22.5374 17.5652 22.494 17.7392C22.4506 17.9131 22.5374 18.1305 22.7111 18.1739L23.3191 18.3913C23.3625 18.3913 23.4059 18.3913 23.4494 18.3913C23.5796 18.3913 23.7533 18.3044 23.7968 18.1305C23.7968 18 23.7099 17.8261 23.5362 17.7392Z" fill="white"/>
<path d="M10.6825 20.7391C10.6825 20.5652 10.6825 20.4348 10.6825 20.2609C10.6825 20.0435 10.8127 19.9565 11.0733 19.9565C11.2904 19.9565 11.4641 20.0435 11.5075 20.2174C11.551 20.5652 11.551 20.9565 11.5075 21.3043C11.4641 21.4783 11.2904 21.5652 11.0733 21.5652C10.8562 21.5652 10.6825 21.4783 10.6825 21.2609C10.6825 21.0869 10.6825 20.913 10.6825 20.7391Z" fill="white"/>
</g>
<path d="M42.3782 20.9944C43.8559 20.9944 45.1225 21.2762 46.178 21.9102C47.3039 22.5443 47.7964 23.3193 47.7964 24.3056V36.0008C47.7964 36.6349 47.5853 37.2689 47.1631 37.903C46.7409 38.5371 46.178 38.8894 45.4743 39.1712V39.2416C46.178 39.3825 46.7409 39.6643 47.1631 40.1575C47.5853 40.6507 47.7964 41.1438 47.7964 41.7075V54.4594C47.7964 55.4457 47.2335 56.3616 46.178 57.0662C45.0521 57.7707 43.7152 58.123 42.0968 58.123C40.6191 58.123 39.2821 57.7707 38.0859 57.0662C36.8897 56.3616 36.3268 55.5162 36.3268 54.5299V48.1891H38.7192V54.389C38.7192 55.0935 39.071 55.5867 39.7747 56.0798C40.4784 56.5025 41.2524 56.7139 42.0968 56.7139C42.9412 56.7139 43.7856 56.5025 44.4892 56.0798C45.1929 55.6571 45.5447 55.0935 45.5447 54.389V41.9893C45.5447 41.2847 45.2632 40.7916 44.7707 40.4393C44.2781 40.087 43.6448 39.9461 43.0115 39.9461H38.7192V38.4666H42.8708C43.5041 38.4666 44.1374 38.3257 44.7003 37.9735C45.2632 37.6212 45.5447 37.1985 45.5447 36.6349V24.6579C45.5447 24.0943 45.1929 23.6011 44.5596 23.2488C43.8559 22.8261 43.1523 22.6852 42.3782 22.6852C41.5338 22.6852 40.7598 22.8261 40.1265 23.1784C39.4932 23.5307 39.2118 24.0238 39.2118 24.6579V30.7873H36.8897V24.4465C36.8897 23.5307 37.4526 22.7557 38.5785 22.1216C39.7043 21.4875 40.9005 20.9944 42.3782 20.9944Z" fill="#80CF00"/>
<path d="M54.7627 21.4171H61.3771C62.714 21.4171 63.7695 21.7693 64.5435 22.4034C65.3175 23.0375 65.8101 23.8829 65.8101 24.9397V36.0712C65.8101 36.7757 65.5286 37.4098 64.9657 38.0439C64.4028 38.678 63.6991 39.0302 62.9251 39.1711V39.2416C63.7695 39.3825 64.5435 39.6643 65.2472 40.2984C65.9508 40.862 66.2323 41.5665 66.2323 42.3415V54.1776C66.2323 55.2344 65.7397 56.0798 64.7546 56.7843C63.7695 57.4184 62.5733 57.7707 61.0252 57.7707H54.6923V21.4171H54.7627ZM57.1551 22.8966V38.4666H60.5327C61.3771 38.4666 62.0807 38.1848 62.714 37.6916C63.2769 37.1985 63.5584 36.5644 63.5584 35.8599V25.2215C63.5584 24.5874 63.2769 24.0238 62.7844 23.6011C62.2918 23.1784 61.5882 22.967 60.6734 22.967H57.1551V22.8966ZM57.1551 40.0166V56.2207H60.1808C61.6585 56.2207 62.6436 56.0093 63.2066 55.5866C63.7695 55.1639 64.051 54.4594 64.051 53.5435V43.2574C64.051 42.1302 63.7695 41.3552 63.2769 40.7916C62.7844 40.2279 61.8696 39.9461 60.603 39.9461H57.1551V40.0166Z" fill="#80CF00"/>
<path d="M73.1985 21.4171H81.9239V22.8966H75.5206V38.3962H81.5017V39.8757H75.5206V56.1503H81.9239V57.6298H73.1985V21.4171Z" fill="#80CF00"/>
<path d="M93.9565 20.9944C95.4342 20.9944 96.7008 21.2762 97.7563 21.9102C98.8821 22.5443 99.3747 23.3193 99.3747 24.3056V36.0008C99.3747 36.6349 99.1636 37.2689 98.7414 37.903C98.3192 38.5371 97.7563 38.8894 97.0526 39.1712V39.2416C97.7563 39.3825 98.3192 39.6643 98.7414 40.1575C99.1636 40.6507 99.3747 41.1438 99.3747 41.7075V54.4594C99.3747 55.4457 98.8117 56.3616 97.7563 57.0662C96.6304 57.7707 95.2935 58.123 93.675 58.123C92.1974 58.123 90.8604 57.7707 89.6642 57.0662C88.468 56.3616 87.905 55.5162 87.905 54.5299V48.1891H90.2271V54.389C90.2271 55.0935 90.5789 55.5867 91.2826 56.0798C91.9863 56.5025 92.7603 56.7139 93.6047 56.7139C94.4491 56.7139 95.2935 56.5025 95.9971 56.0798C96.7008 55.6571 97.0526 55.0935 97.0526 54.389V41.9893C97.0526 41.2847 96.7711 40.7916 96.2786 40.4393C95.786 40.087 95.1527 39.9461 94.5194 39.9461H90.2271V38.4666H94.3787C95.012 38.4666 95.6453 38.3257 96.2082 37.9735C96.7711 37.6212 97.0526 37.1985 97.0526 36.6349V24.6579C97.0526 24.0943 96.7008 23.6011 96.0675 23.2488C95.3638 22.8261 94.6602 22.6852 93.8158 22.6852C92.9714 22.6852 92.1974 22.8261 91.5641 23.1784C90.9308 23.5307 90.5789 24.0238 90.5789 24.6579V30.7873H88.2569V24.4465C88.2569 23.5307 88.8198 22.7557 89.9456 22.1216C91.1419 21.2762 92.4788 20.9944 93.9565 20.9944Z" fill="#80CF00"/>
<path d="M111.689 21.4171H115.559L120.273 56.2207H121.962V67H119.922V57.7002H107.256V67H105.215V56.2207H106.833L111.689 21.4171ZM109.156 56.2207H117.811L113.8 25.2215C113.729 24.9397 113.729 24.3056 113.729 23.3193H113.237C113.237 23.8124 113.166 24.4465 113.026 25.2215L109.156 56.2207Z" fill="#80CF00"/>
<path d="M127.803 21.4171H130.125V50.0913C130.125 52.2049 130.054 53.8253 129.984 54.9526H130.265L136.387 21.4171H140.187V57.7002H137.935V30.5759C137.935 27.8283 138.006 25.5738 138.076 23.8124H137.794L131.813 57.7002H127.873V21.4171H127.803Z" fill="#80CF00"/>
<path d="M147.153 21.4171H149.475V38.3962H155.879V21.4171H158.201V57.7002H155.879V39.8757H149.475V57.7002H147.153V21.4171Z" fill="#80CF00"/>
<path d="M165.167 21.4171H167.489V37.2689H171.007C172.485 37.2689 173.681 37.6212 174.737 38.2553C175.722 38.9598 176.214 39.8052 176.214 40.862V54.6003C176.214 55.5162 175.792 56.2912 175.018 56.8548C174.244 57.4184 173.189 57.7002 171.922 57.7002H165.167V21.4171ZM167.489 38.8189V56.2207H170.937C171.781 56.2207 172.485 56.0798 173.048 55.798C173.611 55.5162 173.892 55.023 173.892 54.4594V41.0734C173.892 40.4393 173.54 39.9461 172.907 39.453C172.274 38.9598 171.5 38.8189 170.585 38.8189H167.489ZM178.818 21.4171H181.14V57.7002H178.818V21.4171Z" fill="#80CF00"/>
<path d="M197.957 21.4171H200.209L194.861 38.1144L200.279 57.7002H197.957L194.439 44.3142C193.947 42.2711 193.735 41.0029 193.665 40.6507H193.384C193.243 41.7074 192.891 42.9051 192.398 44.3142L188.81 57.7002H186.628L192.398 38.1144L187.121 21.4171H189.443L193.172 33.2531C193.384 33.9576 193.595 34.8031 193.806 35.7894H194.087C194.158 35.4372 194.369 34.5213 194.791 33.2531L197.957 21.4171Z" fill="#80CF00"/>
<path d="M43.293 13.1741H40.1266L39.0711 11.131C38.9303 10.7787 38.7193 10.6378 38.5785 10.4969C38.4378 10.4265 38.2267 10.356 37.9452 10.356V13.1037H35.1306V5.84703H37.9452V8.52424C38.1563 8.52424 38.3674 8.45379 38.4378 8.31288C38.5785 8.17197 38.7193 7.89016 38.9303 7.46745C39.1414 7.04473 39.3525 6.69247 39.4933 6.48111C39.634 6.26975 39.8451 6.12884 40.1266 6.05839C40.408 5.98794 40.6895 5.91749 41.1117 5.84703C41.5339 5.77658 42.0968 5.77658 42.8005 5.77658V7.81971H42.6597C42.3079 7.81971 42.0265 7.81971 41.8154 7.89016C41.6043 7.89016 41.4635 7.96062 41.3228 8.10152C41.1821 8.24243 41.0413 8.38333 40.9006 8.66514C40.7599 8.94695 40.6191 9.15831 40.4784 9.29922C40.3377 9.44012 40.1969 9.51058 40.0562 9.51058C40.4784 9.58103 40.7599 9.65148 40.971 9.79239C41.1821 9.93329 41.5339 10.356 41.9561 11.0605L43.293 13.1741Z" fill="white"/>
<path d="M46.741 8.24243L44.0671 7.96062C44.1374 7.46745 44.2782 7.11519 44.4893 6.83338C44.7004 6.55157 44.9818 6.34021 45.3337 6.12885C45.6151 5.98795 45.967 5.84704 46.3892 5.77659C46.8114 5.70613 47.3039 5.63568 47.8668 5.63568C48.7112 5.63568 49.3445 5.70613 49.9075 5.77659C50.4 5.84704 50.8222 6.0584 51.174 6.34021C51.3851 6.55157 51.5962 6.83338 51.737 7.18564C51.8777 7.53791 51.9481 7.89017 51.9481 8.24243V11.4833C51.9481 11.8355 51.9481 12.1173 52.0184 12.2582C52.0888 12.4696 52.1592 12.681 52.2999 13.0332H49.6964C49.5556 12.8219 49.5556 12.681 49.4853 12.6105C49.4853 12.5401 49.4149 12.3287 49.4149 12.1173C49.0631 12.4696 48.7112 12.7514 48.289 12.8923C47.7965 13.1037 47.2335 13.1741 46.5299 13.1741C45.6855 13.1741 44.9818 12.9628 44.5596 12.5401C44.1375 12.1173 43.856 11.6242 43.856 11.0605C43.856 10.4969 43.9967 10.0742 44.3485 9.72194C44.7004 9.36968 45.2633 9.08787 46.1781 8.94696C47.2335 8.7356 47.9372 8.5947 48.2187 8.52424C48.5001 8.45379 48.852 8.31289 49.2038 8.17198C49.2038 7.81972 49.1334 7.60836 48.9927 7.46745C48.852 7.32655 48.5705 7.25609 48.2187 7.25609C47.7261 7.25609 47.4446 7.32655 47.1632 7.46745C47.0225 7.67881 46.8817 7.89017 46.741 8.24243ZM49.2038 9.72194C48.852 9.86285 48.4298 10.0038 48.0076 10.0742C47.4446 10.2151 47.0928 10.356 46.9521 10.4969C46.8114 10.6378 46.741 10.8492 46.741 10.9901C46.741 11.2014 46.8114 11.4128 46.9521 11.5537C47.0928 11.6946 47.3039 11.7651 47.6557 11.7651C47.9372 11.7651 48.289 11.6946 48.5001 11.5537C48.7112 11.4128 48.9927 11.2014 49.0631 10.9901C49.2038 10.7787 49.2038 10.4969 49.2038 10.1447V9.72194Z" fill="white"/>
<path d="M61.8697 15.2877H59.8994V13.1741H54.7627V15.2877H52.7924V11.131H53.4961C53.9887 10.2151 54.2701 9.01737 54.2701 7.53786V5.91745H61.0956V11.2014H61.8697V15.2877ZM58.281 11.131V7.89013H56.944V7.96058C56.944 8.94692 56.7329 10.0037 56.3107 11.131H58.281Z" fill="white"/>
<path d="M68.3433 10.2856L71.0172 10.5674C70.8765 11.131 70.595 11.6242 70.3136 11.9764C70.0321 12.3287 69.5396 12.6809 69.047 12.8923C68.5544 13.1037 67.8508 13.2446 67.0767 13.2446C66.3027 13.2446 65.6694 13.1741 65.1769 13.0332C64.6843 12.8923 64.1917 12.6809 63.8399 12.3287C63.4881 11.9764 63.2066 11.6242 62.9955 11.2014C62.7844 10.7787 62.7141 10.2151 62.7141 9.44012C62.7141 8.66514 62.8548 8.03106 63.0659 7.53789C63.277 7.18563 63.4881 6.83337 63.8399 6.55155C64.1917 6.26974 64.4732 6.05839 64.825 5.91748C65.388 5.70612 66.0916 5.56522 66.936 5.56522C68.1322 5.56522 69.047 5.77657 69.6803 6.19929C70.3136 6.62201 70.7358 7.25608 71.0172 8.10152L68.4137 8.45378C68.3433 8.17197 68.2026 7.89016 67.9915 7.74925C67.7804 7.60835 67.4989 7.53789 67.1471 7.53789C66.6546 7.53789 66.3027 7.6788 66.0213 8.03106C65.7398 8.38333 65.5991 8.8765 65.5991 9.51057C65.5991 10.1446 65.7398 10.5674 66.0213 10.8492C66.3027 11.131 66.6546 11.3423 67.0767 11.3423C67.4286 11.3423 67.7804 11.2719 67.9915 11.0605C68.0619 10.9901 68.2026 10.7083 68.3433 10.2856Z" fill="white"/>
<path d="M78.476 7.89018H76.4354V13.1741H73.6208V7.89018H71.5801V5.84705H78.4056V7.89018H78.476Z" fill="white"/>
<path d="M79.4611 15.9922V5.84704H82.0647V6.90383C82.4165 6.48111 82.7683 6.12885 83.0498 5.98794C83.472 5.77659 83.8942 5.63568 84.3867 5.63568C85.3719 5.63568 86.1459 5.98795 86.6385 6.76293C87.2014 7.53791 87.4125 8.45379 87.4125 9.51058C87.4125 10.7083 87.131 11.6242 86.5681 12.3287C86.0052 13.0332 85.2311 13.315 84.3867 13.315C83.9645 13.315 83.5423 13.2446 83.1905 13.1037C82.8387 12.9628 82.4869 12.7514 82.2054 12.4696V15.9922H79.4611ZM82.2758 9.58104C82.2758 10.1447 82.4165 10.5674 82.6276 10.8492C82.8387 11.131 83.1905 11.2719 83.5423 11.2719C83.8942 11.2719 84.1053 11.131 84.3867 10.8492C84.6682 10.5674 84.7386 10.1447 84.7386 9.51058C84.7386 8.94696 84.5978 8.45379 84.3867 8.17198C84.1756 7.89017 83.8942 7.74926 83.5423 7.74926C83.1905 7.74926 82.9091 7.89017 82.6276 8.17198C82.3461 8.45379 82.2758 8.94696 82.2758 9.58104Z" fill="white"/>
<path d="M88.468 9.58103C88.468 8.45378 88.8198 7.5379 89.5938 6.83337C90.3679 6.12884 91.353 5.77658 92.6196 5.77658C94.0973 5.77658 95.1528 6.1993 95.9268 7.04473C96.5601 7.74926 96.8415 8.59469 96.8415 9.58103C96.8415 10.7083 96.4897 11.6242 95.7157 12.3287C94.9417 13.0332 93.9565 13.3855 92.6196 13.3855C91.4234 13.3855 90.5086 13.1037 89.8049 12.4696C88.9606 11.6946 88.468 10.7083 88.468 9.58103ZM91.2826 9.51058C91.2826 10.1447 91.4234 10.6378 91.7048 10.9901C91.9863 11.2719 92.2677 11.4833 92.6899 11.4833C93.1121 11.4833 93.3936 11.3423 93.6751 10.9901C93.9565 10.7083 94.0973 10.2151 94.0973 9.51058C94.0973 8.8765 93.9565 8.38333 93.6751 8.10152C93.3936 7.81971 93.1121 7.60835 92.6899 7.60835C92.2677 7.60835 91.9159 7.74926 91.7048 8.10152C91.4234 8.45378 91.2826 8.8765 91.2826 9.51058Z" fill="white"/>
<path d="M103.737 9.29923C104.3 9.36968 104.723 9.51059 105.074 9.86285C105.426 10.1447 105.567 10.5674 105.567 11.131C105.567 11.8355 105.356 12.3287 104.863 12.681C104.371 13.0332 103.597 13.1741 102.4 13.1741H98.2489V5.84705H102.752C103.597 5.84705 104.16 5.98795 104.652 6.34021C105.074 6.62203 105.285 7.1152 105.285 7.67882C105.285 8.10153 105.145 8.38334 104.863 8.73561C104.511 8.94697 104.16 9.15832 103.737 9.29923ZM100.993 8.66516H101.697C102.189 8.66516 102.4 8.4538 102.4 8.03108C102.4 7.67882 102.119 7.53791 101.626 7.53791H100.993V8.66516ZM100.993 11.4833H101.908C102.119 11.4833 102.33 11.4128 102.471 11.3424C102.612 11.2719 102.682 11.0605 102.682 10.8492C102.682 10.4265 102.4 10.2151 101.908 10.2151H100.993V11.4833Z" fill="white"/>
<path d="M106.552 9.58103C106.552 8.45378 106.904 7.5379 107.678 6.83337C108.452 6.12884 109.437 5.77658 110.704 5.77658C112.181 5.77658 113.237 6.1993 114.011 7.04473C114.644 7.74926 114.926 8.59469 114.926 9.58103C114.926 10.7083 114.574 11.6242 113.8 12.3287C113.026 13.0332 112.041 13.3855 110.704 13.3855C109.507 13.3855 108.593 13.1037 107.889 12.4696C106.974 11.6946 106.552 10.7083 106.552 9.58103ZM109.296 9.51058C109.296 10.1447 109.437 10.6378 109.719 10.9901C110 11.2719 110.281 11.4833 110.704 11.4833C111.126 11.4833 111.407 11.3423 111.689 10.9901C111.97 10.7083 112.111 10.2151 112.111 9.51058C112.111 8.8765 111.97 8.38333 111.689 8.10152C111.407 7.81971 111.126 7.60835 110.704 7.60835C110.281 7.60835 109.93 7.74926 109.719 8.10152C109.437 8.45378 109.296 8.8765 109.296 9.51058Z" fill="white"/>
<path d="M124.355 10.2151H118.725C118.796 10.6378 118.866 10.9901 119.077 11.2014C119.359 11.4832 119.71 11.6946 120.133 11.6946C120.414 11.6946 120.696 11.6241 120.907 11.4832C121.047 11.4128 121.188 11.2719 121.399 10.9901L124.144 11.2719C123.721 11.9764 123.229 12.54 122.595 12.8218C122.033 13.1741 121.118 13.315 120.062 13.315C119.077 13.315 118.303 13.1741 117.811 12.8923C117.248 12.6105 116.825 12.1878 116.403 11.6241C116.051 11.0605 115.84 10.356 115.84 9.51056C115.84 8.38332 116.192 7.46743 116.966 6.76291C117.67 6.05838 118.725 5.70612 119.992 5.70612C121.047 5.70612 121.892 5.84702 122.455 6.19928C123.018 6.55155 123.51 6.97427 123.862 7.60834C124.144 8.24241 124.355 9.0174 124.355 9.93328V10.2151ZM121.54 8.87649C121.47 8.31287 121.329 7.9606 121.118 7.67879C120.907 7.46743 120.555 7.32653 120.203 7.32653C119.781 7.32653 119.429 7.53789 119.148 7.89015C119.007 8.10151 118.866 8.45377 118.796 8.87649H121.54Z" fill="white"/>
<path d="M132.869 8.24243L130.195 7.96062C130.265 7.46745 130.406 7.11519 130.617 6.83338C130.828 6.55157 131.11 6.34021 131.462 6.12885C131.743 5.98795 132.095 5.84704 132.517 5.77659C132.939 5.70613 133.432 5.63568 133.995 5.63568C134.839 5.63568 135.472 5.70613 136.035 5.77659C136.528 5.84704 136.95 6.0584 137.302 6.34021C137.513 6.55157 137.724 6.83338 137.865 7.18564C138.006 7.53791 138.076 7.89017 138.076 8.24243V11.4833C138.076 11.8355 138.076 12.1173 138.146 12.2582C138.217 12.4696 138.287 12.681 138.428 13.0332H135.824C135.684 12.8219 135.684 12.681 135.613 12.6105C135.613 12.5401 135.543 12.3287 135.543 12.1173C135.191 12.4696 134.839 12.7514 134.417 12.8923C133.924 13.1037 133.361 13.1741 132.658 13.1741C131.813 13.1741 131.11 12.9628 130.688 12.5401C130.265 12.1173 129.984 11.6242 129.984 11.0605C129.984 10.4969 130.125 10.0742 130.476 9.72194C130.828 9.36968 131.391 9.08787 132.306 8.94696C133.361 8.7356 134.065 8.5947 134.347 8.52424C134.628 8.45379 134.98 8.31289 135.332 8.17198C135.332 7.81972 135.261 7.60836 135.121 7.46745C134.98 7.32655 134.698 7.25609 134.347 7.25609C133.854 7.25609 133.573 7.32655 133.291 7.46745C133.15 7.67881 133.01 7.89017 132.869 8.24243ZM135.332 9.72194C134.98 9.86285 134.558 10.0038 134.136 10.0742C133.573 10.2151 133.221 10.356 133.08 10.4969C132.939 10.6378 132.869 10.8492 132.869 10.9901C132.869 11.2014 132.939 11.4128 133.08 11.5537C133.221 11.6946 133.432 11.7651 133.784 11.7651C134.065 11.7651 134.417 11.6946 134.628 11.5537C134.839 11.4128 135.121 11.2014 135.191 10.9901C135.332 10.7787 135.332 10.4969 135.332 10.1447V9.72194Z" fill="white"/>
<path d="M145.746 7.89018H142.65V13.1741H139.835V5.84705H145.746V7.89018Z" fill="white"/>
<path d="M154.964 10.2151H149.335C149.405 10.6378 149.475 10.9901 149.686 11.2014C149.968 11.4832 150.32 11.6946 150.742 11.6946C151.023 11.6946 151.305 11.6241 151.516 11.4832C151.657 11.4128 151.797 11.2719 152.008 10.9901L154.753 11.2719C154.331 11.9764 153.838 12.54 153.205 12.8218C152.642 13.1741 151.727 13.315 150.672 13.315C149.686 13.315 148.912 13.1741 148.42 12.8923C147.857 12.6105 147.435 12.1878 147.012 11.6241C146.661 11.0605 146.45 10.356 146.45 9.51056C146.45 8.38332 146.801 7.46743 147.575 6.76291C148.279 6.05838 149.335 5.70612 150.601 5.70612C151.657 5.70612 152.501 5.84702 153.064 6.19928C153.627 6.55155 154.119 6.97427 154.471 7.60834C154.753 8.24241 154.964 9.0174 154.964 9.93328V10.2151ZM152.149 8.87649C152.079 8.31287 151.938 7.9606 151.727 7.67879C151.516 7.46743 151.164 7.32653 150.812 7.32653C150.39 7.32653 150.038 7.53789 149.757 7.89015C149.616 8.10151 149.475 8.45377 149.405 8.87649H152.149Z" fill="white"/>
<path d="M164.534 13.1741H161.719V10.4265H159.186V13.1741H156.371V5.84705H159.186V8.38334H161.719V5.84705H164.534V13.1741Z" fill="white"/>
<path d="M172.415 7.89018H170.374V13.1741H167.559V7.89018H165.519V5.84705H172.344V7.89018H172.415Z" fill="white"/>
<path d="M178.888 10.2856L181.562 10.6378C181.421 11.2014 181.14 11.6946 180.858 12.0469C180.577 12.3991 180.084 12.7514 179.592 12.9628C179.099 13.1741 178.396 13.315 177.622 13.315C176.848 13.315 176.214 13.2446 175.722 13.1037C175.229 12.9628 174.737 12.7514 174.385 12.3991C174.033 12.0469 173.752 11.6946 173.54 11.2719C173.329 10.8492 173.259 10.2856 173.259 9.51058C173.259 8.7356 173.4 8.10153 173.611 7.60836C173.822 7.25609 174.033 6.90383 174.385 6.62202C174.737 6.34021 175.018 6.12885 175.37 5.98794C175.933 5.77659 176.637 5.63568 177.481 5.63568C178.677 5.63568 179.592 5.84704 180.225 6.26976C180.858 6.69247 181.281 7.32655 181.562 8.17198L178.959 8.52424C178.888 8.24243 178.748 7.96062 178.536 7.81972C178.325 7.67881 178.044 7.60836 177.692 7.60836C177.199 7.60836 176.848 7.74926 176.566 8.10153C176.285 8.45379 176.144 8.94696 176.144 9.58104C176.144 10.2151 176.285 10.6378 176.566 10.9196C176.848 11.2014 177.199 11.4128 177.622 11.4128C177.973 11.4128 178.325 11.3424 178.536 11.131C178.536 10.9901 178.748 10.7083 178.888 10.2856Z" fill="white"/>
<path d="M188.951 7.89018H186.91V13.1741H184.095V7.89018H182.055V5.84705H188.88V7.89018H188.951Z" fill="white"/>
<path d="M195.495 9.29923C196.058 9.36968 196.48 9.51059 196.832 9.86285C197.183 10.1447 197.324 10.5674 197.324 11.131C197.324 11.8355 197.113 12.3287 196.62 12.681C196.128 13.0332 195.354 13.1741 194.158 13.1741H190.006V5.84705H194.509C195.354 5.84705 195.917 5.98795 196.409 6.34021C196.832 6.62203 197.043 7.1152 197.043 7.67882C197.043 8.10153 196.902 8.38334 196.62 8.73561C196.269 8.94697 195.917 9.15832 195.495 9.29923ZM192.75 8.66516H193.454C193.947 8.66516 194.158 8.4538 194.158 8.03108C194.158 7.67882 193.876 7.53791 193.384 7.53791H192.75V8.66516ZM192.75 11.4833H193.665C193.876 11.4833 194.087 11.4128 194.228 11.3424C194.369 11.2719 194.439 11.0605 194.439 10.8492C194.439 10.4265 194.158 10.2151 193.665 10.2151H192.75V11.4833Z" fill="white"/>
<path d="M198.309 9.58103C198.309 8.45378 198.661 7.5379 199.435 6.83337C200.209 6.12884 201.194 5.77658 202.461 5.77658C203.939 5.77658 204.994 6.1993 205.768 7.04473C206.401 7.74926 206.683 8.59469 206.683 9.58103C206.683 10.7083 206.331 11.6242 205.557 12.3287C204.783 13.0332 203.798 13.3855 202.461 13.3855C201.265 13.3855 200.35 13.1037 199.646 12.4696C198.731 11.6946 198.309 10.7083 198.309 9.58103ZM201.054 9.51058C201.054 10.1447 201.194 10.6378 201.476 10.9901C201.757 11.2719 202.039 11.4833 202.461 11.4833C202.883 11.4833 203.165 11.3423 203.446 10.9901C203.727 10.7083 203.868 10.2151 203.868 9.51058C203.868 8.8765 203.727 8.38333 203.446 8.10152C203.165 7.81971 202.883 7.60835 202.461 7.60835C202.039 7.60835 201.687 7.74926 201.476 8.10152C201.194 8.45378 201.054 8.8765 201.054 9.51058Z" fill="white"/>
<defs>
<clipPath id="clip0">
<rect width="141" height="67" fill="white"/>
</clipPath>
</defs>
</svg>
