<svg width="263" height="42" viewBox="0 0 263 42" fill="none" xmlns="http://www.w3.org/2000/svg">
<rect y="3" width="15" height="15" fill="#80CF00"/>
<rect x="20" y="3" width="15" height="15" fill="#1C7DD5"/>
<rect y="23" width="15" height="15" fill="#1C7DD5"/>
<rect x="20" y="23" width="15" height="15" fill="#1C7DD5"/>
<path d="M68.7549 11.7793H67.6299V17H65.0459V4.20312H67.6299V9.31836H68.5L70.7236 4.20312H73.8701L70.7412 10.1621L74.2217 17H71.1455L68.7549 11.7793ZM81.2969 14.3809H77.7725L77.0869 17H74.3535L78.3525 4.20312H80.7168L84.7422 17H81.9824L81.2969 14.3809ZM78.335 12.2275H80.7256L79.5303 7.66602L78.335 12.2275ZM96.3701 20.1465H93.9971V17H87.9414V20.1377H85.498L85.3574 14.8555H86.21C86.585 14.5098 86.8809 13.9531 87.0977 13.1855C87.3145 12.418 87.4668 11.4131 87.5547 10.1709L87.915 4.20312H95.2715V14.8555H96.5986L96.3701 20.1465ZM88.9873 14.8555H92.6963V6.35645H90.376L90.165 9.88086C90.0186 11.9961 89.626 13.6543 88.9873 14.8555ZM104.184 14.3809H100.659L99.9736 17H97.2402L101.239 4.20312H103.604L107.629 17H104.869L104.184 14.3809ZM101.222 12.2275H103.612L102.417 7.66602L101.222 12.2275ZM117.314 12.7373C117.25 14.1963 116.84 15.3008 116.084 16.0508C115.328 16.8008 114.262 17.1758 112.885 17.1758C111.438 17.1758 110.327 16.7012 109.554 15.752C108.786 14.7969 108.402 13.4375 108.402 11.6738V9.52051C108.402 7.7627 108.801 6.40918 109.598 5.45996C110.395 4.50488 111.502 4.02734 112.92 4.02734C114.314 4.02734 115.372 4.41699 116.093 5.19629C116.819 5.97559 117.232 7.09473 117.332 8.55371H114.739C114.716 7.65137 114.575 7.03027 114.317 6.69043C114.065 6.34473 113.6 6.17188 112.92 6.17188C112.229 6.17188 111.739 6.41504 111.452 6.90137C111.165 7.38184 111.013 8.17578 110.995 9.2832V11.7002C110.995 12.9717 111.136 13.8447 111.417 14.3193C111.704 14.7939 112.193 15.0312 112.885 15.0312C113.564 15.0312 114.033 14.8672 114.291 14.5391C114.549 14.2051 114.695 13.6045 114.73 12.7373H117.314ZM126.93 6.35645H123.766V17H121.173V6.35645H118.062V4.20312H126.93V6.35645ZM130.999 12.5V17H128.415V4.20312H132.774C134.04 4.20312 135.048 4.5957 135.798 5.38086C136.554 6.16602 136.932 7.18555 136.932 8.43945C136.932 9.69336 136.56 10.6836 135.815 11.4102C135.071 12.1367 134.04 12.5 132.722 12.5H130.999ZM130.999 10.3467H132.774C133.267 10.3467 133.647 10.1855 133.917 9.86328C134.187 9.54102 134.321 9.07227 134.321 8.45703C134.321 7.81836 134.184 7.31152 133.908 6.93652C133.633 6.55566 133.264 6.3623 132.801 6.35645H130.999V10.3467ZM147.672 11.7529C147.672 13.4697 147.265 14.8027 146.45 15.752C145.642 16.7012 144.517 17.1758 143.075 17.1758C141.64 17.1758 140.512 16.707 139.691 15.7695C138.871 14.8262 138.455 13.5078 138.443 11.8145V9.62598C138.443 7.86816 138.851 6.49707 139.665 5.5127C140.479 4.52246 141.61 4.02734 143.058 4.02734C144.481 4.02734 145.604 4.51367 146.424 5.48633C147.244 6.45312 147.66 7.8125 147.672 9.56445V11.7529ZM145.079 9.6084C145.079 8.4541 144.915 7.5957 144.587 7.0332C144.259 6.4707 143.749 6.18945 143.058 6.18945C142.372 6.18945 141.865 6.46191 141.537 7.00684C141.209 7.5459 141.039 8.36914 141.027 9.47656V11.7529C141.027 12.8721 141.194 13.6982 141.528 14.2314C141.862 14.7588 142.378 15.0225 143.075 15.0225C143.749 15.0225 144.25 14.7646 144.578 14.249C144.906 13.7275 145.073 12.9219 145.079 11.832V9.6084ZM149.526 17V4.20312H153.481C154.817 4.20312 155.831 4.50195 156.522 5.09961C157.22 5.69141 157.568 6.56152 157.568 7.70996C157.568 8.36035 157.425 8.91992 157.138 9.38867C156.851 9.85742 156.458 10.2002 155.96 10.417C156.534 10.5811 156.977 10.9121 157.287 11.4102C157.598 11.9023 157.753 12.5117 157.753 13.2383C157.753 14.4805 157.41 15.418 156.725 16.0508C156.045 16.6836 155.058 17 153.763 17H149.526ZM152.11 11.4365V14.8555H153.763C154.226 14.8555 154.577 14.7119 154.817 14.4248C155.058 14.1377 155.178 13.7305 155.178 13.2031C155.178 12.0547 154.762 11.4658 153.93 11.4365H152.11ZM152.11 9.55566H153.455C154.469 9.55566 154.976 9.03125 154.976 7.98242C154.976 7.40234 154.858 6.98633 154.624 6.73438C154.39 6.48242 154.009 6.35645 153.481 6.35645H152.11V9.55566ZM168.643 11.7529C168.643 13.4697 168.235 14.8027 167.421 15.752C166.612 16.7012 165.487 17.1758 164.046 17.1758C162.61 17.1758 161.482 16.707 160.662 15.7695C159.842 14.8262 159.426 13.5078 159.414 11.8145V9.62598C159.414 7.86816 159.821 6.49707 160.636 5.5127C161.45 4.52246 162.581 4.02734 164.028 4.02734C165.452 4.02734 166.574 4.51367 167.395 5.48633C168.215 6.45312 168.631 7.8125 168.643 9.56445V11.7529ZM166.05 9.6084C166.05 8.4541 165.886 7.5957 165.558 7.0332C165.229 6.4707 164.72 6.18945 164.028 6.18945C163.343 6.18945 162.836 6.46191 162.508 7.00684C162.18 7.5459 162.01 8.36914 161.998 9.47656V11.7529C161.998 12.8721 162.165 13.6982 162.499 14.2314C162.833 14.7588 163.349 15.0225 164.046 15.0225C164.72 15.0225 165.221 14.7646 165.549 14.249C165.877 13.7275 166.044 12.9219 166.05 11.832V9.6084ZM177.106 11.4629H173.081V14.8555H177.845V17H170.497V4.20312H177.827V6.35645H173.081V9.37988H177.106V11.4629ZM189.596 14.3809H186.071L185.386 17H182.652L186.651 4.20312H189.016L193.041 17H190.281L189.596 14.3809ZM186.634 12.2275H189.024L187.829 7.66602L186.634 12.2275ZM201.452 6.35645H196.855V17H194.271V4.20312H201.452V6.35645ZM209.661 11.4629H205.636V14.8555H210.399V17H203.052V4.20312H210.382V6.35645H205.636V9.37988H209.661V11.4629ZM220.867 17H218.292V11.5244H214.478V17H211.894V4.20312H214.478V9.37988H218.292V4.20312H220.867V17ZM231.625 12.7373C231.561 14.1963 231.15 15.3008 230.395 16.0508C229.639 16.8008 228.572 17.1758 227.195 17.1758C225.748 17.1758 224.638 16.7012 223.864 15.752C223.097 14.7969 222.713 13.4375 222.713 11.6738V9.52051C222.713 7.7627 223.111 6.40918 223.908 5.45996C224.705 4.50488 225.812 4.02734 227.23 4.02734C228.625 4.02734 229.683 4.41699 230.403 5.19629C231.13 5.97559 231.543 7.09473 231.643 8.55371H229.05C229.026 7.65137 228.886 7.03027 228.628 6.69043C228.376 6.34473 227.91 6.17188 227.23 6.17188C226.539 6.17188 226.05 6.41504 225.763 6.90137C225.476 7.38184 225.323 8.17578 225.306 9.2832V11.7002C225.306 12.9717 225.446 13.8447 225.728 14.3193C226.015 14.7939 226.504 15.0312 227.195 15.0312C227.875 15.0312 228.344 14.8672 228.602 14.5391C228.859 14.2051 229.006 13.6045 229.041 12.7373H231.625ZM241.24 6.35645H238.076V17H235.483V6.35645H232.372V4.20312H241.24V6.35645ZM242.726 17V4.20312H246.681C248.017 4.20312 249.03 4.50195 249.722 5.09961C250.419 5.69141 250.768 6.56152 250.768 7.70996C250.768 8.36035 250.624 8.91992 250.337 9.38867C250.05 9.85742 249.657 10.2002 249.159 10.417C249.733 10.5811 250.176 10.9121 250.486 11.4102C250.797 11.9023 250.952 12.5117 250.952 13.2383C250.952 14.4805 250.609 15.418 249.924 16.0508C249.244 16.6836 248.257 17 246.962 17H242.726ZM245.31 11.4365V14.8555H246.962C247.425 14.8555 247.776 14.7119 248.017 14.4248C248.257 14.1377 248.377 13.7305 248.377 13.2031C248.377 12.0547 247.961 11.4658 247.129 11.4365H245.31ZM245.31 9.55566H246.654C247.668 9.55566 248.175 9.03125 248.175 7.98242C248.175 7.40234 248.058 6.98633 247.823 6.73438C247.589 6.48242 247.208 6.35645 246.681 6.35645H245.31V9.55566ZM261.842 11.7529C261.842 13.4697 261.435 14.8027 260.62 15.752C259.812 16.7012 258.687 17.1758 257.245 17.1758C255.81 17.1758 254.682 16.707 253.861 15.7695C253.041 14.8262 252.625 13.5078 252.613 11.8145V9.62598C252.613 7.86816 253.021 6.49707 253.835 5.5127C254.649 4.52246 255.78 4.02734 257.228 4.02734C258.651 4.02734 259.773 4.51367 260.594 5.48633C261.414 6.45312 261.83 7.8125 261.842 9.56445V11.7529ZM259.249 9.6084C259.249 8.4541 259.085 7.5957 258.757 7.0332C258.429 6.4707 257.919 6.18945 257.228 6.18945C256.542 6.18945 256.035 6.46191 255.707 7.00684C255.379 7.5459 255.209 8.36914 255.197 9.47656V11.7529C255.197 12.8721 255.364 13.6982 255.698 14.2314C256.032 14.7588 256.548 15.0225 257.245 15.0225C257.919 15.0225 258.42 14.7646 258.748 14.249C259.076 13.7275 259.243 12.9219 259.249 11.832V9.6084ZM70.1523 28.7275C70.1523 28.2588 70.0205 27.8838 69.7568 27.6025C69.499 27.3213 69.1475 27.1807 68.7021 27.1807C68.3096 27.1807 67.9873 27.3184 67.7354 27.5938C67.4893 27.8633 67.3662 28.2236 67.3662 28.6748H64.7822C64.7822 27.9658 64.9521 27.3359 65.292 26.7852C65.6377 26.2285 66.1123 25.7979 66.7158 25.4932C67.3193 25.1885 67.9814 25.0361 68.7021 25.0361C69.9736 25.0361 70.9639 25.3555 71.6729 25.9941C72.3877 26.627 72.7451 27.5205 72.7451 28.6748C72.7451 29.2607 72.5957 29.7969 72.2969 30.2832C72.0039 30.7637 71.5996 31.1445 71.084 31.4258C71.6699 31.6719 72.1211 32.0469 72.4375 32.5508C72.7539 33.0488 72.9121 33.6699 72.9121 34.4141C72.9121 35.5684 72.5283 36.4824 71.7607 37.1562C70.9932 37.8301 69.9736 38.167 68.7021 38.167C67.9287 38.167 67.2285 38.0176 66.6016 37.7188C65.9805 37.4199 65.4941 36.9922 65.1426 36.4355C64.7969 35.8789 64.624 35.2168 64.624 34.4492H67.2168C67.2168 34.8887 67.3545 35.2637 67.6299 35.5742C67.9053 35.8848 68.2627 36.04 68.7021 36.04C69.1943 36.04 69.5869 35.8848 69.8799 35.5742C70.1729 35.2637 70.3193 34.8623 70.3193 34.3701C70.3193 33.708 70.1934 33.2334 69.9414 32.9463C69.6895 32.6592 69.3232 32.5156 68.8428 32.5156H67.5332V30.4326H68.8516C69.7188 30.4268 70.1523 29.8584 70.1523 28.7275ZM74.7842 38V25.2031H78.7393C80.0752 25.2031 81.0889 25.502 81.7803 26.0996C82.4775 26.6914 82.8262 27.5615 82.8262 28.71C82.8262 29.3604 82.6826 29.9199 82.3955 30.3887C82.1084 30.8574 81.7158 31.2002 81.2178 31.417C81.792 31.5811 82.2344 31.9121 82.5449 32.4102C82.8555 32.9023 83.0107 33.5117 83.0107 34.2383C83.0107 35.4805 82.668 36.418 81.9824 37.0508C81.3027 37.6836 80.3154 38 79.0205 38H74.7842ZM77.3682 32.4365V35.8555H79.0205C79.4834 35.8555 79.835 35.7119 80.0752 35.4248C80.3154 35.1377 80.4355 34.7305 80.4355 34.2031C80.4355 33.0547 80.0195 32.4658 79.1875 32.4365H77.3682ZM77.3682 30.5557H78.7129C79.7266 30.5557 80.2334 30.0312 80.2334 28.9824C80.2334 28.4023 80.1162 27.9863 79.8818 27.7344C79.6475 27.4824 79.2666 27.3564 78.7393 27.3564H77.3682V30.5557ZM91.501 32.4629H87.4756V35.8555H92.2393V38H84.8916V25.2031H92.2217V27.3564H87.4756V30.3799H91.501V32.4629ZM98.8574 28.7275C98.8574 28.2588 98.7256 27.8838 98.4619 27.6025C98.2041 27.3213 97.8525 27.1807 97.4072 27.1807C97.0146 27.1807 96.6924 27.3184 96.4404 27.5938C96.1943 27.8633 96.0713 28.2236 96.0713 28.6748H93.4873C93.4873 27.9658 93.6572 27.3359 93.9971 26.7852C94.3428 26.2285 94.8174 25.7979 95.4209 25.4932C96.0244 25.1885 96.6865 25.0361 97.4072 25.0361C98.6787 25.0361 99.6689 25.3555 100.378 25.9941C101.093 26.627 101.45 27.5205 101.45 28.6748C101.45 29.2607 101.301 29.7969 101.002 30.2832C100.709 30.7637 100.305 31.1445 99.7891 31.4258C100.375 31.6719 100.826 32.0469 101.143 32.5508C101.459 33.0488 101.617 33.6699 101.617 34.4141C101.617 35.5684 101.233 36.4824 100.466 37.1562C99.6982 37.8301 98.6787 38.167 97.4072 38.167C96.6338 38.167 95.9336 38.0176 95.3066 37.7188C94.6855 37.4199 94.1992 36.9922 93.8477 36.4355C93.502 35.8789 93.3291 35.2168 93.3291 34.4492H95.9219C95.9219 34.8887 96.0596 35.2637 96.335 35.5742C96.6104 35.8848 96.9678 36.04 97.4072 36.04C97.8994 36.04 98.292 35.8848 98.585 35.5742C98.8779 35.2637 99.0244 34.8623 99.0244 34.3701C99.0244 33.708 98.8984 33.2334 98.6465 32.9463C98.3945 32.6592 98.0283 32.5156 97.5479 32.5156H96.2383V30.4326H97.5566C98.4238 30.4268 98.8574 29.8584 98.8574 28.7275ZM113.737 41.1465H111.364V38H105.309V41.1377H102.865L102.725 35.8555H103.577C103.952 35.5098 104.248 34.9531 104.465 34.1855C104.682 33.418 104.834 32.4131 104.922 31.1709L105.282 25.2031H112.639V35.8555H113.966L113.737 41.1465ZM106.354 35.8555H110.063V27.3564H107.743L107.532 30.8809C107.386 32.9961 106.993 34.6543 106.354 35.8555ZM121.568 25.2031H124.152V38H121.568V29.5273L117.798 38H115.205V25.2031H117.798V33.6846L121.568 25.2031ZM135.191 38H132.616V32.5244H128.802V38H126.218V25.2031H128.802V30.3799H132.616V25.2031H135.191V38ZM139.894 29.7998H141.423C142.718 29.7998 143.749 30.1689 144.517 30.9072C145.284 31.6396 145.668 32.6211 145.668 33.8516C145.668 35.0762 145.293 36.0693 144.543 36.8311C143.793 37.5869 142.8 37.9766 141.563 38H137.301V25.2031H139.894V29.7998ZM148.92 38H146.336V25.2031H148.92V38ZM139.894 31.9443V35.8555H141.458C141.962 35.8555 142.357 35.668 142.645 35.293C142.938 34.9121 143.084 34.4258 143.084 33.834C143.084 33.2773 142.94 32.8262 142.653 32.4805C142.372 32.1289 141.979 31.9502 141.476 31.9443H139.894ZM155.169 29.5977L156.892 25.2031H159.854L156.848 31.5488L159.924 38H156.927L155.169 33.5264L153.42 38H150.423L153.499 31.5488L150.484 25.2031H153.446L155.169 29.5977Z" fill="white"/>
</svg>
